<?xml version="1.0" standalone="no"?>
 <!DOCTYPE svg PUBLIC "-//W3C//DTD SVG 1.1//EN" 
 "http://www.w3.org/Graphics/SVG/1.1/DTD/svg11.dtd"> 
<svg
  xmlns:svg="http://www.w3.org/2000/svg"
  xmlns="http://www.w3.org/2000/svg"
  xmlns:xlink="http://www.w3.org/1999/xlink"
  version="1.1"
  width="297.002200mm" height="210.007200mm" viewBox="0.000000 0.000000 297.002200 210.007200">
<title>SVG Image created as SmartWatch-F_Cu.svg date 2023/05/23 19:44:37 </title>
  <desc>Image generated by PCBNEW </desc>
<g style="fill:#000000; fill-opacity:1.000000;stroke:#000000; stroke-opacity:1.000000;
stroke-linecap:round; stroke-linejoin:round;"
 transform="translate(0 0) scale(1 1)">
</g>
<g style="fill:#000000; fill-opacity:0.0; 
stroke:#000000; stroke-width:0.000000; stroke-opacity:1; 
stroke-linecap:round; stroke-linejoin:round;">
<g >
</g>
<g style="fill:#000000; fill-opacity:1.000000; 
stroke:#000000; stroke-width:0.000000; stroke-opacity:1; 
stroke-linecap:round; stroke-linejoin:round;">
<circle cx="126.732200" cy="60.575000" r="1.000000" /> 
<circle cx="124.192200" cy="60.575000" r="1.000000" /> 
<circle cx="121.652200" cy="60.575000" r="1.000000" /> 
<circle cx="119.112200" cy="60.575000" r="1.000000" /> 
</g>
<g >
</g>
<g style="fill:#000000; fill-opacity:1.000000; 
stroke:#000000; stroke-width:0.000000; stroke-opacity:1; 
stroke-linecap:round; stroke-linejoin:round;">
<path style="fill:#000000; fill-opacity:1.000000; 
stroke:#000000; stroke-width:0.000000; stroke-opacity:1; 
stroke-linecap:round; stroke-linejoin:round;fill-rule:evenodd;"
d="M 104.639700,96.175000
104.639700,97.175000
106.339700,97.175000
106.339700,96.175000
Z" /> 
<path style="fill:#000000; fill-opacity:1.000000; 
stroke:#000000; stroke-width:0.000000; stroke-opacity:1; 
stroke-linecap:round; stroke-linejoin:round;fill-rule:evenodd;"
d="M 110.939700,96.175000
110.939700,97.175000
112.639700,97.175000
112.639700,96.175000
Z" /> 
<path style="fill:#000000; fill-opacity:1.000000; 
stroke:#000000; stroke-width:0.000000; stroke-opacity:1; 
stroke-linecap:round; stroke-linejoin:round;fill-rule:evenodd;"
d="M 104.639700,92.375000
104.639700,93.375000
106.339700,93.375000
106.339700,92.375000
Z" /> 
<path style="fill:#000000; fill-opacity:1.000000; 
stroke:#000000; stroke-width:0.000000; stroke-opacity:1; 
stroke-linecap:round; stroke-linejoin:round;fill-rule:evenodd;"
d="M 110.939700,92.375000
110.939700,93.375000
112.639700,93.375000
112.639700,92.375000
Z" /> 
</g>
<g >
</g>
<g style="fill:#000000; fill-opacity:1.000000; 
stroke:#000000; stroke-width:0.000000; stroke-opacity:1; 
stroke-linecap:round; stroke-linejoin:round;">
<path style="fill:#000000; fill-opacity:1.000000; 
stroke:#000000; stroke-width:0.000000; stroke-opacity:1; 
stroke-linecap:round; stroke-linejoin:round;fill-rule:evenodd;"
d="M 118.802200,96.175000
118.802200,97.175000
120.502200,97.175000
120.502200,96.175000
Z" /> 
<path style="fill:#000000; fill-opacity:1.000000; 
stroke:#000000; stroke-width:0.000000; stroke-opacity:1; 
stroke-linecap:round; stroke-linejoin:round;fill-rule:evenodd;"
d="M 125.102200,96.175000
125.102200,97.175000
126.802200,97.175000
126.802200,96.175000
Z" /> 
<path style="fill:#000000; fill-opacity:1.000000; 
stroke:#000000; stroke-width:0.000000; stroke-opacity:1; 
stroke-linecap:round; stroke-linejoin:round;fill-rule:evenodd;"
d="M 118.802200,92.375000
118.802200,93.375000
120.502200,93.375000
120.502200,92.375000
Z" /> 
<path style="fill:#000000; fill-opacity:1.000000; 
stroke:#000000; stroke-width:0.000000; stroke-opacity:1; 
stroke-linecap:round; stroke-linejoin:round;fill-rule:evenodd;"
d="M 125.102200,92.375000
125.102200,93.375000
126.802200,93.375000
126.802200,92.375000
Z" /> 
</g>
<g >
</g>
<g style="fill:#000000; fill-opacity:1.000000; 
stroke:#000000; stroke-width:0.000000; stroke-opacity:1; 
stroke-linecap:round; stroke-linejoin:round;">
<path style="fill:#000000; fill-opacity:1.000000; 
stroke:#000000; stroke-width:0.000000; stroke-opacity:1; 
stroke-linecap:round; stroke-linejoin:round;fill-rule:evenodd;"
d="M 106.862200,99.050000
105.162200,99.050000
105.162200,100.750000
106.862200,100.750000
Z" /> 
<circle cx="108.552200" cy="99.900000" r="0.850000" /> 
<circle cx="111.092200" cy="99.900000" r="0.850000" /> 
<circle cx="113.632200" cy="99.900000" r="0.850000" /> 
</g>
<g >
</g>
<g style="fill:#000000; fill-opacity:1.000000; 
stroke:#000000; stroke-width:0.000000; stroke-opacity:1; 
stroke-linecap:round; stroke-linejoin:round;">
<path style="fill:#000000; fill-opacity:1.000000; 
stroke:#000000; stroke-width:0.000000; stroke-opacity:1; 
stroke-linecap:round; stroke-linejoin:round;fill-rule:evenodd;"
d="M 132.964700,96.175000
132.964700,97.175000
134.664700,97.175000
134.664700,96.175000
Z" /> 
<path style="fill:#000000; fill-opacity:1.000000; 
stroke:#000000; stroke-width:0.000000; stroke-opacity:1; 
stroke-linecap:round; stroke-linejoin:round;fill-rule:evenodd;"
d="M 139.264700,96.175000
139.264700,97.175000
140.964700,97.175000
140.964700,96.175000
Z" /> 
<path style="fill:#000000; fill-opacity:1.000000; 
stroke:#000000; stroke-width:0.000000; stroke-opacity:1; 
stroke-linecap:round; stroke-linejoin:round;fill-rule:evenodd;"
d="M 132.964700,92.375000
132.964700,93.375000
134.664700,93.375000
134.664700,92.375000
Z" /> 
<path style="fill:#000000; fill-opacity:1.000000; 
stroke:#000000; stroke-width:0.000000; stroke-opacity:1; 
stroke-linecap:round; stroke-linejoin:round;fill-rule:evenodd;"
d="M 139.264700,92.375000
139.264700,93.375000
140.964700,93.375000
140.964700,92.375000
Z" /> 
</g>
<g >
</g>
<g >
</g>
<g >
</g>
<g >
</g>
<g >
</g>
<g >
</g>
<g >
</g>
<g >
</g>
<g >
</g>
<g style="fill:#000000; fill-opacity:1.000000; 
stroke:#000000; stroke-width:0.000000; stroke-opacity:1; 
stroke-linecap:round; stroke-linejoin:round;">
<path style="fill:#000000; fill-opacity:1.000000; 
stroke:#000000; stroke-width:0.000000; stroke-opacity:1; 
stroke-linecap:round; stroke-linejoin:round;fill-rule:evenodd;"
d="M 138.102200,61.217500
138.110501,61.289047
138.156888,61.394105
138.238095,61.475312
138.343153,61.521699
138.414700,61.530000
139.789700,61.530000
139.861247,61.521699
139.966305,61.475312
140.047512,61.394105
140.093899,61.289047
140.102200,61.217500
140.102200,59.842500
140.093899,59.770953
140.047512,59.665895
139.966305,59.584688
139.861247,59.538301
139.789700,59.530000
138.414700,59.530000
138.343153,59.538301
138.238095,59.584688
138.156888,59.665895
138.110501,59.770953
138.102200,59.842500
Z" /> 
<circle cx="142.702200" cy="60.530000" r="1.000000" /> 
</g>
<g style="fill:#000000; fill-opacity:1.000000; 
stroke:#000000; stroke-width:0.021200; stroke-opacity:1; 
stroke-linecap:round; stroke-linejoin:round;">
</g>
<g >
</g>
<g >
</g>
<g >
</g>
<g >
</g>
<g >
</g>
<g >
</g>
<g >
</g>
<g >
</g>
<g >
</g>
<g >
</g>
<g >
</g>
<g >
</g>
<g >
</g>
<g >
</g>
<g style="fill:#000000; fill-opacity:1.000000; 
stroke:#000000; stroke-width:0.021200; stroke-opacity:1; 
stroke-linecap:round; stroke-linejoin:round;">
</g>
<g style="fill:#000000; fill-opacity:1.000000; 
stroke:#000000; stroke-width:0.000000; stroke-opacity:1; 
stroke-linecap:round; stroke-linejoin:round;">
<circle cx="136.822200" cy="90.410000" r="1.000000" /> 
</g>
<g style="fill:#000000; fill-opacity:1.000000; 
stroke:#000000; stroke-width:0.021200; stroke-opacity:1; 
stroke-linecap:round; stroke-linejoin:round;">
</g>
<g style="fill:#000000; fill-opacity:1.000000; 
stroke:#000000; stroke-width:0.000000; stroke-opacity:1; 
stroke-linecap:round; stroke-linejoin:round;">
<circle cx="131.532202" cy="100.625000" r="1.000000" /> 
</g>
<g style="fill:#000000; fill-opacity:1.000000; 
stroke:#000000; stroke-width:0.021200; stroke-opacity:1; 
stroke-linecap:round; stroke-linejoin:round;">
</g>
<g style="fill:#000000; fill-opacity:1.000000; 
stroke:#000000; stroke-width:0.000000; stroke-opacity:1; 
stroke-linecap:round; stroke-linejoin:round;">
<circle cx="109.502200" cy="61.690000" r="1.000000" /> 
</g>
<g style="fill:#000000; fill-opacity:1.000000; 
stroke:#000000; stroke-width:0.021200; stroke-opacity:1; 
stroke-linecap:round; stroke-linejoin:round;">
</g>
<g style="fill:#000000; fill-opacity:1.000000; 
stroke:#000000; stroke-width:0.000000; stroke-opacity:1; 
stroke-linecap:round; stroke-linejoin:round;">
<circle cx="106.462200" cy="61.690000" r="1.000000" /> 
</g>
<g style="fill:#000000; fill-opacity:1.000000; 
stroke:#000000; stroke-width:0.021200; stroke-opacity:1; 
stroke-linecap:round; stroke-linejoin:round;">
</g>
<g style="fill:#000000; fill-opacity:1.000000; 
stroke:#000000; stroke-width:0.000000; stroke-opacity:1; 
stroke-linecap:round; stroke-linejoin:round;">
<circle cx="103.942200" cy="63.540000" r="1.000000" /> 
</g>
<g style="fill:#000000; fill-opacity:1.000000; 
stroke:#000000; stroke-width:0.021200; stroke-opacity:1; 
stroke-linecap:round; stroke-linejoin:round;">
</g>
<g style="fill:#000000; fill-opacity:1.000000; 
stroke:#000000; stroke-width:0.000000; stroke-opacity:1; 
stroke-linecap:round; stroke-linejoin:round;">
<circle cx="113.802200" cy="85.780000" r="1.000000" /> 
</g>
<g style="fill:#000000; fill-opacity:1.000000; 
stroke:#000000; stroke-width:0.021200; stroke-opacity:1; 
stroke-linecap:round; stroke-linejoin:round;">
</g>
<g style="fill:#000000; fill-opacity:1.000000; 
stroke:#000000; stroke-width:0.000000; stroke-opacity:1; 
stroke-linecap:round; stroke-linejoin:round;">
<circle cx="120.182200" cy="63.010000" r="1.000000" /> 
</g>
<g style="fill:#000000; fill-opacity:1.000000; 
stroke:#000000; stroke-width:0.021200; stroke-opacity:1; 
stroke-linecap:round; stroke-linejoin:round;">
</g>
<g style="fill:#000000; fill-opacity:1.000000; 
stroke:#000000; stroke-width:0.000000; stroke-opacity:1; 
stroke-linecap:round; stroke-linejoin:round;">
<circle cx="120.312200" cy="87.750000" r="1.000000" /> 
</g>
<g style="fill:#000000; fill-opacity:1.000000; 
stroke:#000000; stroke-width:0.021200; stroke-opacity:1; 
stroke-linecap:round; stroke-linejoin:round;">
</g>
<g style="fill:#000000; fill-opacity:1.000000; 
stroke:#000000; stroke-width:0.000000; stroke-opacity:1; 
stroke-linecap:round; stroke-linejoin:round;">
<circle cx="122.832200" cy="85.990000" r="1.000000" /> 
</g>
<g style="fill:#000000; fill-opacity:1.000000; 
stroke:#000000; stroke-width:0.021200; stroke-opacity:1; 
stroke-linecap:round; stroke-linejoin:round;">
</g>
<g >
</g>
<g style="fill:#000000; fill-opacity:1.000000; 
stroke:#000000; stroke-width:0.021200; stroke-opacity:1; 
stroke-linecap:round; stroke-linejoin:round;">
</g>
<g style="fill:#000000; fill-opacity:1.000000; 
stroke:#000000; stroke-width:0.750000; stroke-opacity:1; 
stroke-linecap:round; stroke-linejoin:round;">
</g>
<g style="fill:#000000; fill-opacity:0.0; 
stroke:#000000; stroke-width:0.750000; stroke-opacity:1; 
stroke-linecap:round; stroke-linejoin:round;">
<path d="M130.087202 102.070000
L131.532202 100.625000
" />
<path d="M106.412200 102.070000
L130.087202 102.070000
" />
<path d="M106.012200 101.670000
L106.412200 102.070000
" />
<path d="M106.012200 99.900000
L106.012200 101.670000
" />
<path d="M143.172200 97.210000
L139.757200 100.625000
" />
<path d="M141.852200 90.410000
L143.172200 91.730000
" />
<path d="M139.757200 100.625000
L131.532202 100.625000
" />
<path d="M105.489700 97.960000
L106.012200 98.482500
" />
<path d="M143.172200 91.730000
L143.172200 97.210000
" />
<path d="M106.012200 98.482500
L106.012200 99.900000
" />
<path d="M105.489700 96.675000
L105.489700 97.960000
" />
<path d="M136.822200 90.410000
L141.852200 90.410000
" />
<path d="M140.114700 92.875000
L140.109700 92.870000
" />
<path d="M116.172200 88.210000
L110.802200 88.210000
" />
<path d="M133.814700 92.875000
L132.677200 92.875000
" />
<path d="M110.802200 88.210000
L109.502200 86.910000
" />
<path d="M128.512200 84.050000
L120.332200 84.050000
" />
<path d="M133.819700 92.870000
L133.814700 92.875000
" />
<path d="M140.109700 92.870000
L133.819700 92.870000
" />
<path d="M109.502200 86.910000
L109.502200 61.690000
" />
<path d="M131.992200 87.530000
L128.512200 84.050000
" />
<path d="M131.992200 92.190000
L131.992200 87.530000
" />
<path d="M132.677200 92.875000
L131.992200 92.190000
" />
<path d="M120.332200 84.050000
L116.172200 88.210000
" />
<path d="M106.462200 87.060000
L106.462200 61.690000
" />
<path d="M116.417200 92.875000
L113.542200 90.000000
" />
<path d="M119.652200 92.875000
L116.417200 92.875000
" />
<path d="M125.952200 92.875000
L119.652200 92.875000
" />
<path d="M113.542200 90.000000
L109.402200 90.000000
" />
<path d="M109.402200 90.000000
L106.462200 87.060000
" />
<path d="M103.942200 87.180000
L103.942200 63.540000
" />
<path d="M105.489700 88.727500
L103.942200 87.180000
" />
<path d="M111.789700 92.875000
L105.489700 92.875000
" />
<path d="M105.489700 92.875000
L105.489700 88.727500
" />
<path d="M120.182200 63.010000
L120.182200 78.500000
" />
<path d="M120.182200 78.500000
L113.812200 84.870000
" />
<path d="M113.812200 84.870000
L113.812200 85.780000
" />
<path d="M128.282200 91.380000
L126.932200 90.030000
" />
<path d="M111.562200 98.200000
L127.642200 98.200000
" />
<path d="M111.092200 99.900000
L111.092200 98.670000
" />
<path d="M127.642200 98.200000
L128.282200 97.560000
" />
<path d="M121.162200 90.030000
L120.312200 89.180000
" />
<path d="M120.312200 89.180000
L120.312200 87.750000
" />
<path d="M111.092200 98.670000
L111.562200 98.200000
" />
<path d="M128.282200 97.560000
L128.282200 91.380000
" />
<path d="M126.932200 90.030000
L121.162200 90.030000
" />
<path d="M127.312200 85.990000
L122.832200 85.990000
" />
<path d="M130.042200 88.720000
L127.312200 85.990000
" />
<path d="M113.632200 99.900000
L128.592200 99.900000
" />
<path d="M130.042200 98.450000
L130.042200 88.720000
" />
<path d="M128.592200 99.900000
L130.042200 98.450000
" />
</g>
<g >
</g>
<g style="fill:#000000; fill-opacity:0.0; 
stroke:#000000; stroke-width:0.750000; stroke-opacity:1; 
stroke-linecap:round; stroke-linejoin:round;">
<g >
</g>
<g style="fill:#000000; fill-opacity:1.000000; 
stroke:#000000; stroke-width:0.000000; stroke-opacity:1; 
stroke-linecap:round; stroke-linejoin:round;">
<path style="fill:#000000; fill-opacity:1.000000; 
stroke:#000000; stroke-width:0.000000; stroke-opacity:1; 
stroke-linecap:round; stroke-linejoin:round;fill-rule:evenodd;"
d="M 141.064200,58.167113
141.018813,58.212500
141.002200,58.274500
141.002200,60.138019
141.016342,60.195528
141.055544,60.239919
141.110862,60.261067
141.169679,60.254146
141.218578,60.220737
141.246406,60.168460
141.277355,60.046249
141.280673,60.036585
141.376408,59.818330
141.381276,59.809335
141.471198,59.671699
141.479166,59.663974
141.488547,59.669898
142.337105,60.518457
142.343769,60.530000
142.337105,60.541542
141.488547,61.390100
141.479166,61.396024
141.471198,61.388299
141.381276,61.250664
141.376408,61.241669
141.280673,61.023414
141.277355,61.013750
141.246406,60.891540
141.218578,60.839263
141.169679,60.805854
141.110862,60.798933
141.055544,60.820081
141.016342,60.864472
141.002200,60.921981
141.002200,63.876000
141.018813,63.938000
141.064200,63.983387
141.126200,64.000000
145.202700,64.000000
145.264700,63.983387
145.310087,63.938000
145.326700,63.876000
145.326700,61.753248
143.566451,61.753248
143.558345,61.764439
143.529483,61.786903
143.520921,61.792496
143.311315,61.905929
143.301961,61.910032
143.076544,61.987417
143.066632,61.989928
142.831557,62.029155
142.821361,62.030000
142.583039,62.030000
142.572844,62.029155
142.337769,61.989928
142.327857,61.987417
142.102440,61.910032
142.093086,61.905929
141.883477,61.792495
141.874919,61.786903
141.846054,61.764437
141.837950,61.753250
141.844611,61.741142
142.690658,60.895095
142.702200,60.888431
142.713743,60.895095
143.559792,61.741143
143.566451,61.753248
145.326700,61.753248
145.326700,60.535117
144.206917,60.535117
144.187238,60.772618
144.185554,60.782712
144.127047,61.013747
144.123728,61.023414
144.027992,61.241673
144.023130,61.250656
143.933201,61.388304
143.925237,61.396024
143.915855,61.390100
143.067296,60.541542
143.060632,60.530000
143.067296,60.518457
143.915855,59.669898
143.925236,59.663974
143.933203,59.671699
144.023128,59.809338
144.027993,59.818328
144.123728,60.036585
144.127047,60.046252
144.185554,60.277287
144.187238,60.287381
144.206917,60.524883
144.206917,60.535117
145.326700,60.535117
145.326700,59.306749
143.566452,59.306749
143.559792,59.318855
142.713743,60.164904
142.702200,60.171568
142.690658,60.164904
141.844610,59.318855
141.837950,59.306749
141.846057,59.295559
141.874914,59.273099
141.883481,59.267503
142.093086,59.154070
142.102440,59.149967
142.327857,59.072582
142.337769,59.070071
142.572844,59.030844
142.583039,59.030000
142.821361,59.030000
142.831557,59.030844
143.066632,59.070071
143.076544,59.072582
143.301961,59.149967
143.311315,59.154070
143.520924,59.267504
143.529483,59.273096
143.558346,59.295560
143.566452,59.306749
145.326700,59.306749
145.326700,58.274500
145.310087,58.212500
145.264700,58.167113
145.202700,58.150500
141.126200,58.150500
Z" /> 
</g>
</g>
<g style="fill:#000000; fill-opacity:1.000000; 
stroke:#000000; stroke-width:0.000000; stroke-opacity:1; 
stroke-linecap:round; stroke-linejoin:round;">
<g >
<path style="fill:#000000; fill-opacity:1.000000; 
stroke:#000000; stroke-width:0.000000; stroke-opacity:1; 
stroke-linecap:round; stroke-linejoin:round;fill-rule:evenodd;"
d="M 127.174459,58.168997
127.069786,58.222660
126.986957,58.306180
126.934166,58.411295
126.916635,58.527608
126.936097,58.643614
126.990628,58.747837
127.074833,58.829969
127.180384,58.881884
127.359969,58.937278
127.385947,58.947473
127.597041,59.049132
127.621218,59.063090
127.814809,59.195077
127.836623,59.212474
128.008379,59.371840
128.027364,59.392301
128.173450,59.575488
128.189167,59.598540
128.306317,59.801449
128.318433,59.826609
128.404027,60.044699
128.412256,60.071379
128.435377,60.172677
128.437158,60.196446
128.413583,60.200000
126.731200,60.200000
126.615628,60.218305
126.511368,60.271428
126.428628,60.354168
126.375505,60.458428
126.357200,60.574000
126.357200,62.261392
126.353881,62.284386
126.339336,62.284295
126.328315,62.281780
126.104432,62.212721
126.078454,62.202526
125.867358,62.100867
125.843177,62.086906
125.717707,62.001362
125.617264,61.952990
125.507025,61.936374
125.396786,61.952990
125.296342,62.001361
125.131319,62.113872
125.094974,62.138651
125.082362,62.144724
125.082363,62.144724
124.894427,62.235230
124.851841,62.255738
124.593972,62.335280
124.327129,62.375500
124.071259,62.375500
124.057271,62.375500
123.790428,62.335280
123.532559,62.255738
123.289425,62.138651
123.132878,62.031918
123.032441,61.983550
122.922202,61.966934
122.811963,61.983550
122.711520,62.031920
122.554974,62.138651
122.542362,62.144724
122.542363,62.144724
122.354427,62.235230
122.311841,62.255738
122.218378,62.284567
122.117939,62.332936
122.036217,62.408761
121.980474,62.505305
121.955665,62.613990
121.963105,62.713304
121.962383,62.713413
121.963833,62.723030
121.963992,62.725159
121.964468,62.727241
121.964470,62.727257
121.967583,62.740897
121.968629,62.754850
121.968629,62.754853
121.980041,62.907142
121.987749,63.010000
121.967583,63.279103
121.964472,63.292736
121.964470,63.292745
121.911221,63.526042
121.907534,63.542195
121.808943,63.793398
121.801948,63.805514
121.801944,63.805522
121.682189,64.012944
121.674015,64.027102
121.505761,64.238085
121.495501,64.247604
121.495499,64.247607
121.477316,64.264478
121.412569,64.343623
121.371679,64.437345
121.357700,64.538640
121.357700,65.676000
121.376005,65.791572
121.429128,65.895832
121.511868,65.978572
121.616128,66.031695
121.731700,66.050000
128.422200,66.050000
128.422200,82.290000
128.417031,82.290000
128.392242,82.338653
128.386570,82.346536
128.350948,82.461571
128.353729,82.581963
128.394625,82.695230
128.469396,82.789630
128.570290,82.855374
128.686847,82.885647
128.711909,82.887969
128.711917,82.887970
128.729123,82.889565
128.745744,82.894293
128.755592,82.896134
128.765369,82.898433
128.782485,82.900822
128.798874,82.906314
128.798879,82.906316
128.851825,82.924061
128.868314,82.929167
128.922027,82.944450
128.922034,82.944452
128.938659,82.949183
128.954132,82.956887
128.963494,82.960514
128.972664,82.964562
128.989043,82.970053
129.004136,82.978459
129.004139,82.978461
129.018579,82.986504
129.052942,83.005644
129.068195,83.013683
129.118189,83.038577
129.118201,83.038583
129.133672,83.046288
129.147464,83.056702
129.155996,83.061985
129.164272,83.067653
129.179364,83.076061
129.192653,83.087095
129.192668,83.087106
129.235639,83.122789
129.249163,83.133501
129.307522,83.177573
129.319172,83.190351
129.319173,83.190353
129.356787,83.231613
129.368714,83.244104
132.798096,86.673486
132.810587,86.685413
132.864627,86.734678
132.875047,86.748475
132.875047,86.748476
132.908689,86.793025
132.919411,86.806561
132.955094,86.849532
132.955105,86.849547
132.966139,86.862836
132.974547,86.877928
132.980215,86.886204
132.985498,86.894736
132.995912,86.908528
133.003617,86.923999
133.003623,86.924011
133.028517,86.974005
133.036556,86.989258
133.072147,87.053157
133.077643,87.069552
133.081700,87.078742
133.085315,87.088072
133.093017,87.103541
133.097747,87.120161
133.097751,87.120174
133.113034,87.173887
133.118141,87.190381
133.141379,87.259716
133.143767,87.276829
133.146062,87.286588
133.147907,87.296457
133.152635,87.313077
133.154231,87.330288
133.154231,87.330294
133.159381,87.385871
133.161371,87.403026
133.169089,87.458353
133.169090,87.458362
133.171477,87.475479
133.170679,87.492743
133.170679,87.492749
133.168099,87.548538
133.167700,87.565812
133.167700,91.200500
133.186005,91.316072
133.239128,91.420332
133.321868,91.503072
133.426128,91.556195
133.541700,91.574500
134.709654,91.574500
134.720068,91.575673
134.720080,91.575674
134.823082,91.587280
134.823084,91.587280
134.843955,91.589632
134.863776,91.596567
134.863782,91.596569
134.994396,91.642273
134.994401,91.642275
135.014222,91.649211
135.029137,91.658582
135.104988,91.685124
135.188209,91.694500
138.741191,91.694500
138.824412,91.685124
138.900264,91.658582
138.915178,91.649211
138.935004,91.642273
138.935005,91.642273
139.065619,91.596569
139.065623,91.596568
139.085445,91.589632
139.106319,91.587280
139.209321,91.575674
139.209332,91.575673
139.219746,91.574500
141.009654,91.574500
141.020068,91.575673
141.020080,91.575674
141.123082,91.587280
141.123084,91.587280
141.143955,91.589632
141.163776,91.596567
141.163782,91.596569
141.294392,91.642271
141.294401,91.642275
141.314222,91.649211
141.332004,91.660383
141.332010,91.660387
141.449180,91.734010
141.449185,91.734013
141.466962,91.745184
141.481809,91.760030
141.481813,91.760034
141.579666,91.857887
141.579670,91.857891
141.594516,91.872738
141.605687,91.890515
141.605690,91.890520
141.679313,92.007690
141.679317,92.007696
141.690489,92.025478
141.697425,92.045299
141.697429,92.045308
141.743131,92.175918
141.743133,92.175924
141.750068,92.195745
141.752420,92.216616
141.752420,92.216618
141.764026,92.319620
141.764027,92.319632
141.765200,92.330046
141.765200,93.419954
141.764027,93.430368
141.764026,93.430379
141.752420,93.533381
141.750068,93.554255
141.743132,93.574077
141.743131,93.574081
141.697429,93.704691
141.697426,93.704697
141.690489,93.724522
141.594516,93.877262
141.466962,94.004816
141.314222,94.100789
141.294394,94.107727
141.294392,94.107728
141.269200,94.116543
141.143955,94.160368
141.009654,94.175500
139.230234,94.175500
139.219746,94.175500
139.085445,94.160368
138.915178,94.100789
138.897396,94.089615
138.882696,94.082537
138.803648,94.054877
138.720426,94.045500
135.208974,94.045500
135.125752,94.054877
135.046704,94.082537
135.032004,94.089616
135.014222,94.100789
134.843955,94.160368
134.709654,94.175500
132.930234,94.175500
132.919746,94.175500
132.785445,94.160368
132.615178,94.100789
132.589324,94.084543
132.526600,94.052921
132.468042,94.036154
132.460277,94.035435
132.443636,94.030699
132.433779,94.028857
132.424050,94.026568
132.406916,94.024179
132.337567,94.000934
132.321074,93.995828
132.250741,93.975817
132.235254,93.968104
132.225919,93.964488
132.216759,93.960443
132.200357,93.954947
132.136431,93.919339
132.121246,93.911334
132.055728,93.878712
132.041919,93.868283
132.033402,93.863010
132.025149,93.857356
132.010036,93.848939
131.953740,93.802190
131.940276,93.791525
131.881878,93.747427
131.870223,93.734642
131.868093,93.732306
131.864166,93.729120
131.857446,93.722995
131.857093,93.723383
131.781193,93.661823
131.677332,93.620199
131.565806,93.611161
131.456598,93.635518
131.359483,93.691090
131.283152,93.772902
131.234437,93.873632
131.217700,93.984264
131.217700,98.414188
131.218099,98.431462
131.220679,98.487250
131.220679,98.487256
131.221477,98.504521
131.219090,98.521637
131.219089,98.521646
131.211371,98.576975
131.209381,98.594129
131.204230,98.649712
131.202635,98.666923
131.197908,98.683539
131.196065,98.693397
131.193767,98.703168
131.191379,98.720284
131.185888,98.736669
131.185885,98.736679
131.168136,98.789635
131.163029,98.806128
131.147752,98.859821
131.147749,98.859830
131.143017,98.876459
131.135309,98.891939
131.131683,98.901297
131.127641,98.910452
131.122147,98.926843
131.113736,98.941944
131.113733,98.941950
131.086572,98.990713
131.078517,99.005995
131.053626,99.055983
131.053619,99.055994
131.045912,99.071472
131.035492,99.085271
131.030212,99.093798
131.024552,99.102060
131.016139,99.117164
130.990224,99.148372
130.969423,99.173422
130.958708,99.186950
130.914627,99.245322
130.901854,99.256966
130.860578,99.294594
130.848082,99.306526
129.448717,100.705891
129.436786,100.718387
129.387522,100.772427
129.329137,100.816517
129.315612,100.827231
129.272666,100.862893
129.272663,100.862895
129.259363,100.873939
129.244258,100.882352
129.235983,100.888021
129.227475,100.893289
129.213672,100.903712
129.198189,100.911421
129.198185,100.911424
129.148206,100.936311
129.132920,100.944368
129.092932,100.966641
129.069043,100.979947
129.052642,100.985443
129.043500,100.989480
129.034154,100.993101
129.018659,101.000817
128.948334,101.020826
128.931830,101.025936
128.862484,101.049179
128.845342,101.051569
128.835599,101.053861
128.825767,101.055699
128.809123,101.060435
128.736307,101.067182
128.719175,101.069169
128.646721,101.079277
128.573662,101.075898
128.556388,101.075500
114.935233,101.075500
114.847925,101.085834
114.765441,101.116263
114.692340,101.165108
114.616519,101.229865
114.616513,101.229869
114.605340,101.239412
114.383828,101.375154
114.143810,101.474573
113.891194,101.535221
113.632200,101.555604
113.373206,101.535221
113.120590,101.474573
112.880572,101.375154
112.659060,101.239412
112.605095,101.193321
112.516108,101.136848
112.414898,101.107443
112.309502,101.107443
112.208292,101.136848
112.119306,101.193321
112.065340,101.239412
111.843828,101.375154
111.603810,101.474573
111.351194,101.535221
111.092200,101.555604
110.833206,101.535221
110.580590,101.474573
110.340572,101.375154
110.119060,101.239412
110.065095,101.193321
109.976108,101.136848
109.874898,101.107443
109.769502,101.107443
109.668292,101.136848
109.579306,101.193321
109.525340,101.239412
109.303828,101.375154
109.063810,101.474573
108.811194,101.535221
108.552200,101.555604
108.293206,101.535221
108.040590,101.474573
107.800572,101.375154
107.732671,101.333544
107.628001,101.289607
107.514967,101.279097
107.403986,101.302983
107.331639,101.344091
107.330544,101.342317
107.199863,101.422922
107.160645,101.441209
107.034278,101.483083
106.994585,101.491581
106.921649,101.499032
106.902664,101.500000
106.416632,101.500000
106.391225,101.495975
106.387200,101.470568
106.387200,101.470567
105.637200,101.470567
105.633176,101.495974
105.607768,101.499999
105.121746,101.499999
105.102751,101.499031
105.029815,101.491580
104.990122,101.483083
104.863756,101.441209
104.824538,101.422922
104.712398,101.353753
104.678454,101.326914
104.585286,101.233746
104.558447,101.199802
104.489278,101.087662
104.470991,101.048444
104.429117,100.922077
104.420619,100.882384
104.413168,100.809448
104.412200,100.790464
104.412200,100.304432
104.416225,100.279024
104.441632,100.275000
105.607768,100.275000
105.633176,100.279024
105.637200,100.304432
105.637200,101.470567
106.387200,101.470567
106.387200,99.899000
106.368895,99.783428
106.315772,99.679168
106.233032,99.596428
106.128772,99.543305
106.013200,99.525000
104.441633,99.525000
104.416226,99.520975
104.412201,99.495568
104.412201,99.009546
104.413169,98.990550
104.420620,98.917614
104.429117,98.877921
104.470991,98.751555
104.489278,98.712337
104.558447,98.600197
104.585286,98.566253
104.621607,98.529932
104.686344,98.442974
104.723422,98.341103
104.729726,98.232877
104.704725,98.127391
104.650520,98.033506
104.571666,97.959111
104.474788,97.910457
104.341253,97.866208
104.302038,97.847922
104.189898,97.778753
104.155954,97.751914
104.062786,97.658746
104.035947,97.624802
103.966778,97.512662
103.948491,97.473444
103.906617,97.347077
103.898119,97.307384
103.890668,97.234448
103.889700,97.215464
103.889700,97.079432
103.893725,97.054024
103.919132,97.050000
107.060267,97.050000
107.085675,97.054024
107.089699,97.079432
107.089699,97.215454
107.088732,97.234449
107.081281,97.307385
107.072784,97.347078
107.030910,97.473444
107.012623,97.512662
106.943454,97.624802
106.916615,97.658746
106.880294,97.695067
106.815557,97.782024
106.778479,97.883895
106.772175,97.992120
106.797176,98.097607
106.851380,98.191492
106.930233,98.265887
107.027110,98.314541
107.160647,98.358791
107.199863,98.377077
107.330544,98.457683
107.331638,98.455910
107.404001,98.497022
107.514976,98.520903
107.628004,98.510391
107.732672,98.466455
107.788043,98.432524
107.800572,98.424846
107.826303,98.414188
108.027015,98.331050
108.040590,98.325427
108.054873,98.321997
108.054882,98.321995
108.278919,98.268209
108.278920,98.268208
108.293206,98.264779
108.307852,98.263626
108.307854,98.263626
108.537550,98.245549
108.552200,98.244396
108.566850,98.245549
108.796547,98.263626
108.796551,98.263626
108.811194,98.264779
108.825479,98.268208
108.825482,98.268209
109.049519,98.321995
109.049532,98.321998
109.063810,98.325427
109.077382,98.331048
109.077386,98.331050
109.290252,98.419222
109.290259,98.419225
109.303828,98.424846
109.316355,98.432521
109.316364,98.432527
109.425124,98.499175
109.530712,98.543340
109.644712,98.553505
109.756448,98.528718
109.855456,98.471301
109.932464,98.386630
109.980260,98.282635
109.980338,98.282360
109.991383,98.243541
109.999099,98.228046
110.002718,98.218704
110.006757,98.209557
110.012253,98.193157
110.047849,98.129251
110.055873,98.114030
110.088488,98.048528
110.098909,98.034729
110.104178,98.026218
110.109846,98.017944
110.118261,98.002836
110.164986,97.946567
110.175693,97.933048
110.217616,97.877533
110.267029,97.789487
110.291089,97.691432
110.288044,97.590514
110.258117,97.494088
110.248489,97.473440
110.206617,97.347077
110.198119,97.307384
110.190668,97.234448
110.189700,97.215464
110.189700,97.079432
110.193725,97.054024
110.219132,97.050000
111.263479,97.050000
111.330392,97.043800
111.345277,97.039565
111.349705,97.039154
111.445895,97.004146
111.527977,97.021661
111.565517,97.023397
111.580743,97.024101
111.598012,97.024500
112.038932,97.024500
112.148279,97.008158
112.248070,96.960560
112.329585,96.885866
112.385699,96.790603
112.411509,96.683096
112.404759,96.572741
112.366040,96.469181
112.298734,96.381467
112.208724,96.317264
112.168881,96.296962
112.164700,96.270568
111.414700,96.270568
111.410520,96.296962
111.375465,96.314823
111.373288,96.316428
111.274179,96.300000
110.219133,96.300000
110.193726,96.295975
110.189701,96.270568
107.089700,96.270568
107.085676,96.295975
107.060268,96.300000
105.894132,96.300000
105.868725,96.295975
105.864700,96.270568
105.114700,96.270568
105.110676,96.295975
105.085268,96.300000
103.919133,96.300000
103.893726,96.295975
103.889701,96.270568
103.889701,96.134546
103.890669,96.115550
103.898120,96.042614
103.906617,96.002921
103.948491,95.876555
103.966778,95.837337
104.035947,95.725197
104.062786,95.691253
104.155954,95.598085
104.189898,95.571246
104.302038,95.502077
104.341256,95.483790
104.467623,95.441916
104.507316,95.433418
104.580252,95.425967
104.599236,95.425000
105.085268,95.425000
105.110676,95.429024
105.114700,95.454432
105.114700,96.270568
105.864700,96.270568
105.864700,95.454433
105.868725,95.429025
105.894132,95.425001
106.380154,95.425001
106.399150,95.425968
106.472086,95.433419
106.511779,95.441916
106.638145,95.483790
106.677363,95.502077
106.789503,95.571246
106.823447,95.598085
106.916615,95.691253
106.943454,95.725197
107.012623,95.837337
107.030910,95.876555
107.072784,96.002922
107.081282,96.042615
107.088733,96.115551
107.089700,96.134536
107.089700,96.270568
110.189701,96.270568
110.189701,96.134546
110.190669,96.115550
110.198120,96.042614
110.206617,96.002921
110.248491,95.876555
110.266778,95.837337
110.335947,95.725197
110.362786,95.691253
110.455954,95.598085
110.489898,95.571246
110.602038,95.502077
110.641256,95.483790
110.767623,95.441916
110.807316,95.433418
110.880252,95.425967
110.899236,95.425000
111.385268,95.425000
111.410676,95.429024
111.414700,95.454432
111.414700,96.270568
112.164700,96.270568
112.164700,95.454433
112.168725,95.429025
112.194132,95.425001
112.680154,95.425001
112.699150,95.425968
112.772086,95.433419
112.811779,95.441916
112.938145,95.483790
112.977363,95.502077
113.089503,95.571246
113.123447,95.598085
113.216615,95.691253
113.243454,95.725197
113.312623,95.837337
113.330910,95.876555
113.372784,96.002922
113.381282,96.042615
113.388733,96.115551
113.389700,96.134536
113.389700,96.270568
113.385520,96.296962
113.345676,96.317264
113.255666,96.381467
113.188360,96.469181
113.149641,96.572741
113.142891,96.683096
113.168701,96.790603
113.224815,96.885866
113.306330,96.960560
113.406121,97.008158
113.515468,97.024500
117.926433,97.024500
118.035780,97.008158
118.135571,96.960560
118.217086,96.885866
118.273200,96.790603
118.299010,96.683096
118.292260,96.572741
118.253541,96.469181
118.186235,96.381467
118.096225,96.317264
118.056382,96.296962
118.052201,96.270568
118.052201,96.134546
118.053169,96.115550
118.060620,96.042614
118.069117,96.002921
118.110991,95.876555
118.129278,95.837337
118.198447,95.725197
118.225286,95.691253
118.318454,95.598085
118.352398,95.571246
118.464538,95.502077
118.503756,95.483790
118.630123,95.441916
118.669816,95.433418
118.742752,95.425967
118.761736,95.425000
119.247768,95.425000
119.273176,95.429024
119.277200,95.454432
119.277200,96.270568
119.273020,96.296962
119.233176,96.317264
119.143166,96.381467
119.075860,96.469181
119.037141,96.572741
119.030391,96.683096
119.056201,96.790603
119.112315,96.885866
119.193830,96.960560
119.293621,97.008158
119.402968,97.024500
119.901432,97.024500
120.010779,97.008158
120.110570,96.960560
120.192085,96.885866
120.248199,96.790603
120.274009,96.683096
120.267259,96.572741
120.228540,96.469181
120.161234,96.381467
120.071224,96.317264
120.031381,96.296962
120.027200,96.270568
120.027200,95.454433
120.031225,95.429025
120.056632,95.425001
120.542654,95.425001
120.561650,95.425968
120.634586,95.433419
120.674279,95.441916
120.800645,95.483790
120.839863,95.502077
120.952003,95.571246
120.985947,95.598085
121.079115,95.691253
121.105954,95.725197
121.175123,95.837337
121.193410,95.876555
121.235284,96.002922
121.243782,96.042615
121.251233,96.115551
121.252200,96.134536
121.252200,96.270568
121.248020,96.296962
121.208176,96.317264
121.118166,96.381467
121.050860,96.469181
121.012141,96.572741
121.005391,96.683096
121.031201,96.790603
121.087315,96.885866
121.168830,96.960560
121.268621,97.008158
121.377968,97.024500
124.226433,97.024500
124.335780,97.008158
124.435571,96.960560
124.517086,96.885866
124.573200,96.790603
124.599010,96.683096
124.592260,96.572741
124.553541,96.469181
124.486235,96.381467
124.396225,96.317264
124.356382,96.296962
124.352201,96.270568
124.352201,96.134546
124.353169,96.115550
124.360620,96.042614
124.369117,96.002921
124.410991,95.876555
124.429278,95.837337
124.498447,95.725197
124.525286,95.691253
124.618454,95.598085
124.652398,95.571246
124.764538,95.502077
124.803756,95.483790
124.930123,95.441916
124.969816,95.433418
125.042752,95.425967
125.061736,95.425000
125.547768,95.425000
125.573176,95.429024
125.577200,95.454432
125.577200,96.270568
125.573020,96.296962
125.533176,96.317264
125.443166,96.381467
125.375860,96.469181
125.337141,96.572741
125.330391,96.683096
125.356201,96.790603
125.412315,96.885866
125.493830,96.960560
125.593621,97.008158
125.702968,97.024500
125.953200,97.024500
126.068772,97.006195
126.173032,96.953072
126.255772,96.870332
126.308895,96.766072
126.327200,96.650500
126.327200,95.454433
126.331225,95.429025
126.356632,95.425001
126.732700,95.425001
126.848272,95.406696
126.952532,95.353573
127.035272,95.270833
127.088395,95.166573
127.106700,95.051001
127.106700,94.549500
127.088395,94.433928
127.035272,94.329668
126.952532,94.246928
126.848272,94.193805
126.732700,94.175500
125.067734,94.175500
125.057246,94.175500
124.922945,94.160368
124.752678,94.100789
124.734891,94.089612
124.730583,94.087538
124.651533,94.059877
124.568310,94.050500
121.036090,94.050500
120.952867,94.059877
120.873817,94.087538
120.869510,94.089612
120.851722,94.100789
120.681455,94.160368
120.547154,94.175500
118.767734,94.175500
118.757246,94.175500
118.622945,94.160368
118.452678,94.100789
118.434891,94.089612
118.430583,94.087538
118.351533,94.059877
118.268310,94.050500
116.453012,94.050500
116.435738,94.050899
116.362679,94.054277
116.290232,94.044170
116.273099,94.042182
116.223586,94.037594
116.217501,94.037031
116.217501,94.037030
116.200277,94.035435
116.183632,94.030698
116.173782,94.028857
116.164056,94.026569
116.146916,94.024179
116.077567,94.000934
116.061074,93.995828
115.990741,93.975817
115.975254,93.968104
115.965919,93.964488
115.956759,93.960443
115.940357,93.954947
115.876431,93.919339
115.861246,93.911334
115.795728,93.878712
115.781919,93.868283
115.773402,93.863010
115.765149,93.857356
115.750036,93.848939
115.693740,93.802190
115.680276,93.791525
115.621878,93.747427
115.572602,93.693372
115.560693,93.680899
114.506970,92.627176
114.078658,92.198866
113.990502,92.133485
113.887164,92.096510
113.777541,92.091125
113.671076,92.117793
113.576937,92.174218
113.503230,92.255541
113.456304,92.354758
113.440200,92.463324
113.440200,93.419954
113.439027,93.430368
113.439026,93.430379
113.427420,93.533381
113.425068,93.554255
113.418132,93.574077
113.418131,93.574081
113.372429,93.704691
113.372426,93.704697
113.365489,93.724522
113.269516,93.877262
113.141962,94.004816
112.989222,94.100789
112.969394,94.107727
112.969392,94.107728
112.944200,94.116543
112.818955,94.160368
112.684654,94.175500
110.905234,94.175500
110.894746,94.175500
110.760445,94.160368
110.590178,94.100789
110.572391,94.089612
110.568083,94.087538
110.489033,94.059877
110.405810,94.050500
106.873590,94.050500
106.790367,94.059877
106.711317,94.087538
106.707010,94.089612
106.689222,94.100789
106.518955,94.160368
106.384654,94.175500
104.605234,94.175500
104.594746,94.175500
104.460445,94.160368
104.290178,94.100789
104.137438,94.004816
104.009884,93.877262
103.913911,93.724522
103.854332,93.554255
103.839200,93.419954
103.839200,92.330046
103.854332,92.195745
103.913911,92.025478
104.009884,91.872738
104.137438,91.745184
104.155221,91.734010
104.171643,91.720914
104.169974,91.718820
104.212005,91.684315
104.267550,91.608296
104.302350,91.520814
104.314200,91.427414
104.314200,89.369324
104.301456,89.272526
104.264094,89.182324
104.204658,89.104866
103.950516,88.850724
103.136301,88.036507
103.123822,88.024593
103.121328,88.022320
103.069773,87.975322
103.025675,87.916924
103.015010,87.903460
102.968261,87.847164
102.959844,87.832051
102.954190,87.823798
102.948917,87.815281
102.938488,87.801472
102.905866,87.735954
102.897861,87.720769
102.862253,87.656843
102.856757,87.640441
102.852711,87.631280
102.849095,87.621943
102.841383,87.606459
102.821360,87.536082
102.816275,87.519659
102.793022,87.450285
102.790631,87.433144
102.788333,87.423375
102.786498,87.413556
102.781765,87.396923
102.775015,87.324068
102.773034,87.306993
102.762924,87.234522
102.766301,87.161477
102.766700,87.144205
102.766700,65.068640
102.752721,64.967345
102.711831,64.873623
102.647084,64.794478
102.618639,64.768085
102.450385,64.557102
102.315457,64.323398
102.216866,64.072195
102.156817,63.809103
102.136651,63.540000
102.156817,63.270897
102.216866,63.007805
102.315457,62.756602
102.334840,62.723030
102.374694,62.654000
102.450385,62.522898
102.618639,62.311915
102.816459,62.128365
103.039425,61.976349
103.052033,61.970277
103.052037,61.970275
103.269952,61.865333
103.269955,61.865332
103.282559,61.859262
103.295923,61.855139
103.295930,61.855137
103.527055,61.783845
103.527056,61.783844
103.540428,61.779720
103.554254,61.777636
103.554263,61.777634
103.793441,61.741584
103.793449,61.741583
103.807271,61.739500
104.077129,61.739500
104.090947,61.741582
104.090965,61.741584
104.247938,61.765244
104.370467,61.763409
104.485826,61.722068
104.581630,61.645658
104.647593,61.542384
104.670565,61.448217
104.673686,61.448688
104.675772,61.434853
104.676817,61.420897
104.736866,61.157805
104.835457,60.906602
104.871541,60.844103
104.893749,60.805637
104.970385,60.672898
105.138639,60.461915
105.336459,60.278365
105.559425,60.126349
105.572033,60.120277
105.572037,60.120275
105.789952,60.015333
105.789955,60.015332
105.802559,60.009262
105.815923,60.005139
105.815930,60.005137
106.047055,59.933845
106.047056,59.933844
106.060428,59.929720
106.074254,59.927636
106.074263,59.927634
106.313441,59.891584
106.313449,59.891583
106.327271,59.889500
106.597129,59.889500
106.610952,59.891583
106.610960,59.891584
106.850138,59.927634
106.850150,59.927636
106.863972,59.929720
106.877342,59.933844
106.877346,59.933845
107.108470,60.005137
107.108478,60.005139
107.121841,60.009262
107.134435,60.015326
107.134448,60.015332
107.352363,60.120275
107.352372,60.120280
107.364974,60.126349
107.376531,60.134228
107.376539,60.134233
107.576383,60.270484
107.576391,60.270490
107.587941,60.278365
107.598189,60.287872
107.598197,60.287880
107.727816,60.408150
107.819928,60.470950
107.926458,60.503811
108.037942,60.503811
108.144472,60.470950
108.236584,60.408150
108.366202,60.287882
108.366203,60.287881
108.376459,60.278365
108.599425,60.126349
108.612033,60.120277
108.612037,60.120275
108.829952,60.015333
108.829955,60.015332
108.842559,60.009262
108.855923,60.005139
108.855930,60.005137
109.087055,59.933845
109.087056,59.933844
109.100428,59.929720
109.114254,59.927636
109.114263,59.927634
109.353441,59.891584
109.353449,59.891583
109.367271,59.889500
109.637129,59.889500
109.650952,59.891583
109.650960,59.891584
109.890138,59.927634
109.890150,59.927636
109.903972,59.929720
109.917342,59.933844
109.917346,59.933845
110.148470,60.005137
110.148478,60.005139
110.161841,60.009262
110.174435,60.015326
110.174448,60.015332
110.392363,60.120275
110.392372,60.120280
110.404974,60.126349
110.416531,60.134228
110.416539,60.134233
110.616383,60.270484
110.616391,60.270490
110.627941,60.278365
110.638190,60.287874
110.638198,60.287881
110.815506,60.452399
110.815512,60.452404
110.825761,60.461915
110.834478,60.472845
110.834482,60.472850
110.985292,60.661959
110.985296,60.661964
110.994015,60.672898
111.001010,60.685012
111.001013,60.685018
111.121944,60.894477
111.121951,60.894490
111.128943,60.906602
111.227534,61.157805
111.230650,61.171452
111.230650,61.171456
111.284470,61.407254
111.284472,61.407265
111.287583,61.420897
111.307749,61.690000
111.306703,61.703958
111.295551,61.852782
111.287583,61.959103
111.284472,61.972736
111.284470,61.972745
111.233693,62.195211
111.227534,62.222195
111.128943,62.473398
111.121948,62.485514
111.121944,62.485522
111.002189,62.692944
110.994015,62.707102
110.825761,62.918085
110.815501,62.927604
110.815499,62.927607
110.797316,62.944478
110.732569,63.023623
110.691679,63.117345
110.677700,63.218640
110.677700,86.268176
110.690444,86.364974
110.727806,86.455176
110.787242,86.532634
111.179566,86.924958
111.257024,86.984394
111.347226,87.021756
111.444024,87.034500
111.811794,87.034500
111.930908,87.015025
112.037617,86.958627
112.120808,86.871181
112.171816,86.761793
112.185329,86.641856
112.159940,86.523861
112.132983,86.455176
112.076866,86.312195
112.016817,86.049103
111.996651,85.780000
112.016817,85.510897
112.076866,85.247805
112.175457,84.996602
112.310385,84.762898
112.478639,84.551915
112.676459,84.368365
112.688019,84.360484
112.688027,84.360477
112.714243,84.342603
112.773777,84.292162
112.807926,84.248059
112.808509,84.248500
112.809338,84.247402
112.814137,84.240036
112.821548,84.230465
112.824178,84.226218
112.829846,84.217944
112.838261,84.202836
112.884986,84.146567
112.895693,84.133048
112.929351,84.088478
112.929356,84.088473
112.939773,84.074678
112.993813,84.025414
113.006309,84.013483
118.897158,78.122634
118.956594,78.045176
118.993956,77.954974
119.006700,77.858176
119.006700,64.538640
118.992721,64.437345
118.951831,64.343623
118.887084,64.264478
118.885570,64.263073
118.858639,64.238085
118.690385,64.027102
118.555457,63.793398
118.456866,63.542195
118.396817,63.279103
118.376651,63.010000
118.396817,62.740897
118.435739,62.570370
118.444738,62.470372
118.426810,62.371578
118.383244,62.281114
118.317180,62.205500
118.233388,62.150190
118.209425,62.138651
117.986459,61.986635
117.788639,61.803085
117.620385,61.592102
117.485457,61.358398
117.386866,61.107195
117.326817,60.844103
117.306651,60.575000
117.326817,60.305897
117.386866,60.042805
117.485457,59.791602
117.620385,59.557898
117.788639,59.346915
117.986459,59.163365
118.209425,59.011349
118.222033,59.005277
118.222037,59.005275
118.439952,58.900333
118.439955,58.900332
118.452559,58.894262
118.492692,58.881882
118.598238,58.829969
118.682443,58.747838
118.736975,58.643615
118.756437,58.527609
118.738906,58.411296
118.686115,58.306180
118.603287,58.222660
118.498614,58.168998
118.382450,58.150500
100.701700,58.150500
100.586128,58.168805
100.481868,58.221928
100.399128,58.304668
100.346005,58.408928
100.327700,58.524500
100.327700,102.775500
100.346005,102.891072
100.399128,102.995332
100.481868,103.078072
100.586128,103.131195
100.701700,103.149500
144.952700,103.149500
145.068272,103.131195
145.172532,103.078072
145.255272,102.995332
145.308395,102.891072
145.326700,102.775500
145.326700,97.215454
141.714699,97.215454
141.713732,97.234449
141.706281,97.307385
141.697784,97.347078
141.655910,97.473444
141.637623,97.512662
141.568454,97.624802
141.541615,97.658746
141.448447,97.751914
141.414503,97.778753
141.302363,97.847922
141.263145,97.866209
141.136778,97.908083
141.097085,97.916581
141.024149,97.924032
141.005164,97.925000
140.519132,97.925000
140.493725,97.920975
140.489700,97.895568
140.489700,97.895567
139.739700,97.895567
139.735676,97.920974
139.710268,97.924999
139.224246,97.924999
139.205251,97.924031
139.132315,97.916580
139.092622,97.908083
138.966256,97.866209
138.927038,97.847922
138.814898,97.778753
138.780954,97.751914
138.687786,97.658746
138.660947,97.624802
138.591778,97.512662
138.573491,97.473444
138.531617,97.347077
138.523119,97.307384
138.515668,97.234448
138.514700,97.215464
138.514700,97.215454
135.414699,97.215454
135.413732,97.234449
135.406281,97.307385
135.397784,97.347078
135.355910,97.473444
135.337623,97.512662
135.268454,97.624802
135.241615,97.658746
135.148447,97.751914
135.114503,97.778753
135.002363,97.847922
134.963145,97.866209
134.836778,97.908083
134.797085,97.916581
134.724149,97.924032
134.705164,97.925000
134.219132,97.925000
134.193725,97.920975
134.189700,97.895568
134.189700,97.895567
133.439700,97.895567
133.435676,97.920974
133.410268,97.924999
132.924246,97.924999
132.905251,97.924031
132.832315,97.916580
132.792622,97.908083
132.666256,97.866209
132.627038,97.847922
132.514898,97.778753
132.480954,97.751914
132.387786,97.658746
132.360947,97.624802
132.291778,97.512662
132.273491,97.473444
132.231617,97.347077
132.223119,97.307384
132.215668,97.234448
132.214700,97.215464
132.214700,97.079432
132.218725,97.054024
132.244132,97.050000
133.410268,97.050000
133.435676,97.054024
133.439700,97.079432
133.439700,97.895567
134.189700,97.895567
134.189700,97.079432
134.193725,97.054024
134.219132,97.050000
135.385267,97.050000
135.410675,97.054024
135.414699,97.079432
135.414699,97.215454
138.514700,97.215454
138.514700,97.079432
138.518725,97.054024
138.544132,97.050000
139.710268,97.050000
139.735676,97.054024
139.739700,97.079432
139.739700,97.895567
140.489700,97.895567
140.489700,97.079432
140.493725,97.054024
140.519132,97.050000
141.685267,97.050000
141.710675,97.054024
141.714699,97.079432
141.714699,97.215454
145.326700,97.215454
145.326700,96.270568
141.714700,96.270568
141.710676,96.295975
141.685268,96.300000
140.519132,96.300000
140.493725,96.295975
140.489700,96.270568
139.739700,96.270568
139.735676,96.295975
139.710268,96.300000
138.544133,96.300000
138.518726,96.295975
138.514701,96.270568
135.414700,96.270568
135.410676,96.295975
135.385268,96.300000
134.219132,96.300000
134.193725,96.295975
134.189700,96.270568
133.439700,96.270568
133.435676,96.295975
133.410268,96.300000
132.244133,96.300000
132.218726,96.295975
132.214701,96.270568
132.214701,96.134546
132.215669,96.115550
132.223120,96.042614
132.231617,96.002921
132.273491,95.876555
132.291778,95.837337
132.360947,95.725197
132.387786,95.691253
132.480954,95.598085
132.514898,95.571246
132.627038,95.502077
132.666256,95.483790
132.792623,95.441916
132.832316,95.433418
132.905252,95.425967
132.924236,95.425000
133.410268,95.425000
133.435676,95.429024
133.439700,95.454432
133.439700,96.270568
134.189700,96.270568
134.189700,95.454433
134.193725,95.429025
134.219132,95.425001
134.705154,95.425001
134.724150,95.425968
134.797086,95.433419
134.836779,95.441916
134.963145,95.483790
135.002363,95.502077
135.114503,95.571246
135.148447,95.598085
135.241615,95.691253
135.268454,95.725197
135.337623,95.837337
135.355910,95.876555
135.397784,96.002922
135.406282,96.042615
135.413733,96.115551
135.414700,96.134536
135.414700,96.270568
138.514701,96.270568
138.514701,96.134546
138.515669,96.115550
138.523120,96.042614
138.531617,96.002921
138.573491,95.876555
138.591778,95.837337
138.660947,95.725197
138.687786,95.691253
138.780954,95.598085
138.814898,95.571246
138.927038,95.502077
138.966256,95.483790
139.092623,95.441916
139.132316,95.433418
139.205252,95.425967
139.224236,95.425000
139.710268,95.425000
139.735676,95.429024
139.739700,95.454432
139.739700,96.270568
140.489700,96.270568
140.489700,95.454433
140.493725,95.429025
140.519132,95.425001
141.005154,95.425001
141.024150,95.425968
141.097086,95.433419
141.136779,95.441916
141.263145,95.483790
141.302363,95.502077
141.414503,95.571246
141.448447,95.598085
141.541615,95.691253
141.568454,95.725197
141.637623,95.837337
141.655910,95.876555
141.697784,96.002922
141.706282,96.042615
141.713733,96.115551
141.714700,96.134536
141.714700,96.270568
145.326700,96.270568
145.326700,87.560056
143.372700,87.560056
143.367287,87.582019
143.367286,87.582024
143.346916,87.664667
143.331990,87.725225
143.321479,87.745252
143.321477,87.745257
143.300095,87.785996
143.252934,87.875852
143.140129,88.003183
143.121512,88.016033
143.121509,88.016036
143.073693,88.049041
143.000130,88.099818
142.841072,88.160140
142.714572,88.175500
142.641136,88.175500
142.629828,88.175500
142.503328,88.160140
142.344270,88.099818
142.204271,88.003183
142.091466,87.875852
142.012410,87.725225
141.971700,87.560056
141.971700,87.389944
142.012410,87.224775
142.030462,87.190381
142.054697,87.144205
142.091466,87.074148
142.204271,86.946817
142.222889,86.933966
142.222892,86.933963
142.325652,86.863033
142.325654,86.863032
142.344270,86.850182
142.365417,86.842162
142.365421,86.842160
142.482178,86.797881
142.482179,86.797880
142.503328,86.789860
142.525786,86.787133
142.618603,86.775863
142.629828,86.774500
142.714572,86.774500
142.725797,86.775862
142.725798,86.775863
142.818615,86.787133
142.818617,86.787133
142.841072,86.789860
142.862220,86.797880
142.862223,86.797881
142.978980,86.842160
142.978987,86.842163
143.000130,86.850182
143.018744,86.863030
143.018749,86.863033
143.121509,86.933963
143.121517,86.933969
143.140129,86.946817
143.155130,86.963748
143.155134,86.963753
143.237931,87.057212
143.237935,87.057216
143.252934,87.074148
143.263446,87.094175
143.263447,87.094178
143.321477,87.204742
143.321481,87.204750
143.331990,87.224775
143.337405,87.246742
143.337405,87.246744
143.367286,87.367975
143.367287,87.367981
143.372700,87.389944
143.372700,87.560056
145.326700,87.560056
145.326700,84.560056
143.372700,84.560056
143.367287,84.582019
143.367286,84.582024
143.339943,84.692962
143.331990,84.725225
143.321479,84.745252
143.321477,84.745257
143.275747,84.832387
143.252934,84.875852
143.237932,84.892786
143.237931,84.892787
143.191419,84.945289
143.140129,85.003183
143.121512,85.016033
143.121509,85.016036
143.056050,85.061219
143.000130,85.099818
142.841072,85.160140
142.714572,85.175500
142.641136,85.175500
142.629828,85.175500
142.503328,85.160140
142.344270,85.099818
142.204271,85.003183
142.091466,84.875852
142.012410,84.725225
141.971700,84.560056
141.971700,84.389944
142.012410,84.224775
142.023925,84.202836
142.053445,84.146591
142.091466,84.074148
142.204271,83.946817
142.222889,83.933966
142.222892,83.933963
142.325652,83.863033
142.325654,83.863032
142.344270,83.850182
142.365417,83.842162
142.365421,83.842160
142.482178,83.797881
142.482179,83.797880
142.503328,83.789860
142.525786,83.787133
142.618603,83.775863
142.629828,83.774500
142.714572,83.774500
142.725797,83.775862
142.725798,83.775863
142.818615,83.787133
142.818617,83.787133
142.841072,83.789860
142.862220,83.797880
142.862223,83.797881
142.978980,83.842160
142.978987,83.842163
143.000130,83.850182
143.018744,83.863030
143.018749,83.863033
143.121509,83.933963
143.121517,83.933969
143.140129,83.946817
143.155130,83.963748
143.155134,83.963753
143.237931,84.057212
143.237935,84.057216
143.252934,84.074148
143.263446,84.094175
143.263447,84.094178
143.321477,84.204742
143.321481,84.204750
143.331990,84.224775
143.337405,84.246742
143.337405,84.246744
143.367286,84.367975
143.367287,84.367981
143.372700,84.389944
143.372700,84.560056
145.326700,84.560056
145.326700,65.179500
145.308395,65.063928
145.255272,64.959668
145.172532,64.876928
145.068272,64.823805
144.952700,64.805500
141.132334,64.805500
141.126200,64.805500
141.021060,64.798609
140.917720,64.778053
140.855720,64.761440
140.723780,64.713417
140.602184,64.643214
140.494625,64.552962
140.449238,64.507575
140.358986,64.400016
140.288783,64.278420
140.240760,64.146480
140.224147,64.084480
140.203591,63.981140
140.196700,63.876000
140.196700,62.654000
140.178395,62.538428
140.125272,62.434168
140.042532,62.351428
139.938272,62.298305
139.822700,62.280000
139.506632,62.280000
139.481225,62.275975
139.477200,62.250568
138.727200,62.250568
138.723176,62.275975
138.697768,62.280000
138.371674,62.280000
138.353373,62.279100
138.224699,62.266427
138.188834,62.259293
138.023710,62.209204
137.989929,62.195211
137.837755,62.113872
137.807347,62.093554
137.673968,61.984092
137.648108,61.958232
137.538646,61.824853
137.518328,61.794445
137.436989,61.642271
137.422996,61.608490
137.372907,61.443366
137.365773,61.407501
137.353100,61.278827
137.352200,61.260526
137.352200,60.953553
128.437158,60.953553
128.435377,60.977322
128.412256,61.078620
128.404027,61.105300
128.318433,61.323390
128.306317,61.348550
128.189167,61.551459
128.173450,61.574511
128.027364,61.757698
128.008379,61.778159
127.836623,61.937525
127.814809,61.954922
127.621218,62.086909
127.597041,62.100867
127.385947,62.202526
127.359969,62.212721
127.136086,62.281780
127.125065,62.284295
127.110520,62.284386
127.107200,62.261392
127.107200,60.979432
127.111225,60.954024
127.136632,60.950000
128.413583,60.950000
128.437158,60.953553
137.352200,60.953553
137.352200,60.934432
137.356225,60.909024
137.381632,60.905000
138.697768,60.905000
138.723176,60.909024
138.727200,60.934432
138.727200,62.250568
139.477200,62.250568
139.477200,60.529000
139.458895,60.413428
139.405772,60.309168
139.323032,60.226428
139.218772,60.173305
139.103200,60.155000
137.381632,60.155000
137.356225,60.150975
137.352200,60.125568
137.352200,59.799474
137.353100,59.781172
137.365773,59.652498
137.372907,59.616633
137.422996,59.451509
137.436989,59.417728
137.518328,59.265554
137.538646,59.235146
137.648108,59.101767
137.673968,59.075907
137.807347,58.966445
137.837755,58.946127
138.006131,58.856128
138.004676,58.853404
138.074561,58.810993
138.149583,58.725441
138.195408,58.621290
138.207793,58.508179
138.185592,58.396579
138.130860,58.296820
138.048664,58.218135
137.946612,58.167809
137.834149,58.150500
127.290622,58.150500
Z" /> 
</g>
</g>
</g>
<g style="fill:#FFFFFF; fill-opacity:1.000000; 
stroke:#FFFFFF; stroke-width:0.000000; stroke-opacity:1; 
stroke-linecap:round; stroke-linejoin:round;">
<circle cx="136.822200" cy="90.410000" r="0.175000" /> 
</g>
<g style="fill:#FFFFFF; fill-opacity:1.000000; 
stroke:#FFFFFF; stroke-width:0.021200; stroke-opacity:1; 
stroke-linecap:round; stroke-linejoin:round;">
</g>
<g style="fill:#FFFFFF; fill-opacity:1.000000; 
stroke:#FFFFFF; stroke-width:0.000000; stroke-opacity:1; 
stroke-linecap:round; stroke-linejoin:round;">
<circle cx="131.532202" cy="100.625000" r="0.175000" /> 
</g>
<g style="fill:#FFFFFF; fill-opacity:1.000000; 
stroke:#FFFFFF; stroke-width:0.021200; stroke-opacity:1; 
stroke-linecap:round; stroke-linejoin:round;">
</g>
<g style="fill:#FFFFFF; fill-opacity:1.000000; 
stroke:#FFFFFF; stroke-width:0.000000; stroke-opacity:1; 
stroke-linecap:round; stroke-linejoin:round;">
<circle cx="109.502200" cy="61.690000" r="0.175000" /> 
</g>
<g style="fill:#FFFFFF; fill-opacity:1.000000; 
stroke:#FFFFFF; stroke-width:0.021200; stroke-opacity:1; 
stroke-linecap:round; stroke-linejoin:round;">
</g>
<g style="fill:#FFFFFF; fill-opacity:1.000000; 
stroke:#FFFFFF; stroke-width:0.000000; stroke-opacity:1; 
stroke-linecap:round; stroke-linejoin:round;">
<circle cx="106.462200" cy="61.690000" r="0.175000" /> 
</g>
<g style="fill:#FFFFFF; fill-opacity:1.000000; 
stroke:#FFFFFF; stroke-width:0.021200; stroke-opacity:1; 
stroke-linecap:round; stroke-linejoin:round;">
</g>
<g style="fill:#FFFFFF; fill-opacity:1.000000; 
stroke:#FFFFFF; stroke-width:0.000000; stroke-opacity:1; 
stroke-linecap:round; stroke-linejoin:round;">
<circle cx="103.942200" cy="63.540000" r="0.175000" /> 
</g>
<g style="fill:#FFFFFF; fill-opacity:1.000000; 
stroke:#FFFFFF; stroke-width:0.021200; stroke-opacity:1; 
stroke-linecap:round; stroke-linejoin:round;">
</g>
<g style="fill:#FFFFFF; fill-opacity:1.000000; 
stroke:#FFFFFF; stroke-width:0.000000; stroke-opacity:1; 
stroke-linecap:round; stroke-linejoin:round;">
<circle cx="113.802200" cy="85.780000" r="0.175000" /> 
</g>
<g style="fill:#FFFFFF; fill-opacity:1.000000; 
stroke:#FFFFFF; stroke-width:0.021200; stroke-opacity:1; 
stroke-linecap:round; stroke-linejoin:round;">
</g>
<g style="fill:#FFFFFF; fill-opacity:1.000000; 
stroke:#FFFFFF; stroke-width:0.000000; stroke-opacity:1; 
stroke-linecap:round; stroke-linejoin:round;">
<circle cx="120.182200" cy="63.010000" r="0.175000" /> 
</g>
<g style="fill:#FFFFFF; fill-opacity:1.000000; 
stroke:#FFFFFF; stroke-width:0.021200; stroke-opacity:1; 
stroke-linecap:round; stroke-linejoin:round;">
</g>
<g style="fill:#FFFFFF; fill-opacity:1.000000; 
stroke:#FFFFFF; stroke-width:0.000000; stroke-opacity:1; 
stroke-linecap:round; stroke-linejoin:round;">
<circle cx="120.312200" cy="87.750000" r="0.175000" /> 
</g>
<g style="fill:#FFFFFF; fill-opacity:1.000000; 
stroke:#FFFFFF; stroke-width:0.021200; stroke-opacity:1; 
stroke-linecap:round; stroke-linejoin:round;">
</g>
<g style="fill:#FFFFFF; fill-opacity:1.000000; 
stroke:#FFFFFF; stroke-width:0.000000; stroke-opacity:1; 
stroke-linecap:round; stroke-linejoin:round;">
<circle cx="122.832200" cy="85.990000" r="0.175000" /> 
</g>
<g style="fill:#FFFFFF; fill-opacity:1.000000; 
stroke:#FFFFFF; stroke-width:0.021200; stroke-opacity:1; 
stroke-linecap:round; stroke-linejoin:round;">
</g>
<g style="fill:#FFFFFF; fill-opacity:1.000000; 
stroke:#FFFFFF; stroke-width:0.000000; stroke-opacity:1; 
stroke-linecap:round; stroke-linejoin:round;">
<circle cx="126.732200" cy="60.575000" r="0.175000" /> 
</g>
<g style="fill:#FFFFFF; fill-opacity:1.000000; 
stroke:#FFFFFF; stroke-width:0.021200; stroke-opacity:1; 
stroke-linecap:round; stroke-linejoin:round;">
</g>
<g style="fill:#FFFFFF; fill-opacity:1.000000; 
stroke:#FFFFFF; stroke-width:0.000000; stroke-opacity:1; 
stroke-linecap:round; stroke-linejoin:round;">
<circle cx="124.192200" cy="60.575000" r="0.175000" /> 
</g>
<g style="fill:#FFFFFF; fill-opacity:1.000000; 
stroke:#FFFFFF; stroke-width:0.021200; stroke-opacity:1; 
stroke-linecap:round; stroke-linejoin:round;">
</g>
<g style="fill:#FFFFFF; fill-opacity:1.000000; 
stroke:#FFFFFF; stroke-width:0.000000; stroke-opacity:1; 
stroke-linecap:round; stroke-linejoin:round;">
<circle cx="121.652200" cy="60.575000" r="0.175000" /> 
</g>
<g style="fill:#FFFFFF; fill-opacity:1.000000; 
stroke:#FFFFFF; stroke-width:0.021200; stroke-opacity:1; 
stroke-linecap:round; stroke-linejoin:round;">
</g>
<g style="fill:#FFFFFF; fill-opacity:1.000000; 
stroke:#FFFFFF; stroke-width:0.000000; stroke-opacity:1; 
stroke-linecap:round; stroke-linejoin:round;">
<circle cx="119.112200" cy="60.575000" r="0.175000" /> 
</g>
<g style="fill:#FFFFFF; fill-opacity:1.000000; 
stroke:#FFFFFF; stroke-width:0.021200; stroke-opacity:1; 
stroke-linecap:round; stroke-linejoin:round;">
</g>
<g style="fill:#FFFFFF; fill-opacity:1.000000; 
stroke:#FFFFFF; stroke-width:0.000000; stroke-opacity:1; 
stroke-linecap:round; stroke-linejoin:round;">
<circle cx="106.012200" cy="99.900000" r="0.175000" /> 
</g>
<g style="fill:#FFFFFF; fill-opacity:1.000000; 
stroke:#FFFFFF; stroke-width:0.021200; stroke-opacity:1; 
stroke-linecap:round; stroke-linejoin:round;">
</g>
<g style="fill:#FFFFFF; fill-opacity:1.000000; 
stroke:#FFFFFF; stroke-width:0.000000; stroke-opacity:1; 
stroke-linecap:round; stroke-linejoin:round;">
<circle cx="108.552200" cy="99.900000" r="0.175000" /> 
</g>
<g style="fill:#FFFFFF; fill-opacity:1.000000; 
stroke:#FFFFFF; stroke-width:0.021200; stroke-opacity:1; 
stroke-linecap:round; stroke-linejoin:round;">
</g>
<g style="fill:#FFFFFF; fill-opacity:1.000000; 
stroke:#FFFFFF; stroke-width:0.000000; stroke-opacity:1; 
stroke-linecap:round; stroke-linejoin:round;">
<circle cx="111.092200" cy="99.900000" r="0.175000" /> 
</g>
<g style="fill:#FFFFFF; fill-opacity:1.000000; 
stroke:#FFFFFF; stroke-width:0.021200; stroke-opacity:1; 
stroke-linecap:round; stroke-linejoin:round;">
</g>
<g style="fill:#FFFFFF; fill-opacity:1.000000; 
stroke:#FFFFFF; stroke-width:0.000000; stroke-opacity:1; 
stroke-linecap:round; stroke-linejoin:round;">
<circle cx="113.632200" cy="99.900000" r="0.175000" /> 
</g>
<g style="fill:#FFFFFF; fill-opacity:1.000000; 
stroke:#FFFFFF; stroke-width:0.021200; stroke-opacity:1; 
stroke-linecap:round; stroke-linejoin:round;">
</g>
<g style="fill:#FFFFFF; fill-opacity:1.000000; 
stroke:#FFFFFF; stroke-width:0.000000; stroke-opacity:1; 
stroke-linecap:round; stroke-linejoin:round;">
<circle cx="139.102200" cy="60.530000" r="0.175000" /> 
</g>
<g style="fill:#FFFFFF; fill-opacity:1.000000; 
stroke:#FFFFFF; stroke-width:0.021200; stroke-opacity:1; 
stroke-linecap:round; stroke-linejoin:round;">
</g>
<g style="fill:#FFFFFF; fill-opacity:1.000000; 
stroke:#FFFFFF; stroke-width:0.000000; stroke-opacity:1; 
stroke-linecap:round; stroke-linejoin:round;">
<circle cx="142.702200" cy="60.530000" r="0.175000" /> 
</g>
<g style="fill:#FFFFFF; fill-opacity:1.000000; 
stroke:#FFFFFF; stroke-width:0.021200; stroke-opacity:1; 
stroke-linecap:round; stroke-linejoin:round;">
</g>
<g style="fill:#FFFFFF; fill-opacity:1.000000; 
stroke:#FFFFFF; stroke-width:0.000000; stroke-opacity:1; 
stroke-linecap:round; stroke-linejoin:round;">
<circle cx="142.672200" cy="87.475000" r="0.175000" /> 
</g>
<g style="fill:#FFFFFF; fill-opacity:1.000000; 
stroke:#FFFFFF; stroke-width:0.021200; stroke-opacity:1; 
stroke-linecap:round; stroke-linejoin:round;">
</g>
<g style="fill:#FFFFFF; fill-opacity:1.000000; 
stroke:#FFFFFF; stroke-width:0.000000; stroke-opacity:1; 
stroke-linecap:round; stroke-linejoin:round;">
<circle cx="142.672200" cy="84.475000" r="0.175000" /> 
</g>
<g style="fill:#FFFFFF; fill-opacity:1.000000; 
stroke:#FFFFFF; stroke-width:0.021200; stroke-opacity:1; 
stroke-linecap:round; stroke-linejoin:round;">
</g>
<g style="fill:#000000; fill-opacity:1.000000; 
stroke:#000000; stroke-width:0.021200; stroke-opacity:1; 
stroke-linecap:round; stroke-linejoin:round;">
</g>
<g style="fill:#000000; fill-opacity:1.000000; 
stroke:#000000; stroke-width:0.100000; stroke-opacity:1; 
stroke-linecap:round; stroke-linejoin:round;">
</g>
<g style="fill:#000000; fill-opacity:0.0; 
stroke:#000000; stroke-width:0.100000; stroke-opacity:1; 
stroke-linecap:round; stroke-linejoin:round;">
<path d="M145.327200 58.150000
L100.327200 58.150000
" />
<path d="M100.327200 58.150000
L100.327200 103.150000
" />
<path d="M100.327200 103.150000
L145.327200 103.150000
" />
<path d="M145.327200 103.150000
L145.327200 58.150000
" />
<g >
</g>
<g >
</g>
<g >
</g>
<g >
</g>
<g >
</g>
<g >
</g>
<g >
</g>
<g >
</g>
<g >
</g>
<g >
</g>
<g >
</g>
<g >
</g>
<g >
</g>
<g >
</g>
<g >
</g>
<g >
</g>
<g >
</g>
<g >
</g>
<g >
</g>
<g >
</g>
<g >
</g>
<g >
</g>
<g >
</g>
<g >
</g>
<g >
</g>
<g >
</g>
<g >
</g>
<g >
</g>
<g >
</g>
<g >
</g>
</g> 
</svg>
