<?xml version="1.0" standalone="no"?>
 <!DOCTYPE svg PUBLIC "-//W3C//DTD SVG 1.1//EN" 
 "http://www.w3.org/Graphics/SVG/1.1/DTD/svg11.dtd"> 
<svg
  xmlns:svg="http://www.w3.org/2000/svg"
  xmlns="http://www.w3.org/2000/svg"
  xmlns:xlink="http://www.w3.org/1999/xlink"
  version="1.1"
  width="297.002200mm" height="210.007200mm" viewBox="0.000000 0.000000 297.002200 210.007200">
<title>SVG Image created as SmartWatch-B_Cu.svg date 2023/05/16 16:12:54 </title>
  <desc>Image generated by PCBNEW </desc>
<g style="fill:#000000; fill-opacity:1.000000;stroke:#000000; stroke-opacity:1.000000;
stroke-linecap:round; stroke-linejoin:round;"
 transform="translate(0 0) scale(1 1)">
</g>
<g style="fill:#000000; fill-opacity:0.0; 
stroke:#000000; stroke-width:0.000000; stroke-opacity:1; 
stroke-linecap:round; stroke-linejoin:round;">
<g >
</g>
<g style="fill:#000000; fill-opacity:0.0; 
stroke:#000000; stroke-width:0.000000; stroke-opacity:1; 
stroke-linecap:round; stroke-linejoin:round;">
</g>
<g style="fill:#000000; fill-opacity:1.000000; 
stroke:#000000; stroke-width:0.000000; stroke-opacity:1; 
stroke-linecap:round; stroke-linejoin:round;">
<path style="fill:#000000; fill-opacity:1.000000; 
stroke:#000000; stroke-width:0.000000; stroke-opacity:1; 
stroke-linecap:round; stroke-linejoin:round;fill-rule:evenodd;"
d="M 164.426125,98.396000
164.426125,95.094000
166.839125,95.094000
166.839125,98.396000
Z" /> 
<path style="fill:#000000; fill-opacity:1.000000; 
stroke:#000000; stroke-width:0.000000; stroke-opacity:1; 
stroke-linecap:round; stroke-linejoin:round;fill-rule:evenodd;"
d="M 167.122625,98.392000
167.125822,98.375927
167.134927,98.362302
167.148552,98.353197
167.164625,98.350000
169.050625,98.350000
169.066698,98.353197
169.080323,98.362302
169.089428,98.375927
169.092625,98.392000
169.092625,98.908000
169.089428,98.924073
169.080323,98.937698
169.066698,98.946803
169.050625,98.950000
167.164625,98.950000
167.148552,98.946803
167.134927,98.937698
167.125822,98.924073
167.122625,98.908000
Z" /> 
<path style="fill:#000000; fill-opacity:1.000000; 
stroke:#000000; stroke-width:0.000000; stroke-opacity:1; 
stroke-linecap:round; stroke-linejoin:round;fill-rule:evenodd;"
d="M 167.122625,97.122000
167.125822,97.105927
167.134927,97.092302
167.148552,97.083197
167.164625,97.080000
169.050625,97.080000
169.066698,97.083197
169.080323,97.092302
169.089428,97.105927
169.092625,97.122000
169.092625,97.638000
169.089428,97.654073
169.080323,97.667698
169.066698,97.676803
169.050625,97.680000
167.164625,97.680000
167.148552,97.676803
167.134927,97.667698
167.125822,97.654073
167.122625,97.638000
Z" /> 
<path style="fill:#000000; fill-opacity:1.000000; 
stroke:#000000; stroke-width:0.000000; stroke-opacity:1; 
stroke-linecap:round; stroke-linejoin:round;fill-rule:evenodd;"
d="M 167.122625,95.852000
167.125822,95.835927
167.134927,95.822302
167.148552,95.813197
167.164625,95.810000
169.050625,95.810000
169.066698,95.813197
169.080323,95.822302
169.089428,95.835927
169.092625,95.852000
169.092625,96.368000
169.089428,96.384073
169.080323,96.397698
169.066698,96.406803
169.050625,96.410000
167.164625,96.410000
167.148552,96.406803
167.134927,96.397698
167.125822,96.384073
167.122625,96.368000
Z" /> 
<path style="fill:#000000; fill-opacity:1.000000; 
stroke:#000000; stroke-width:0.000000; stroke-opacity:1; 
stroke-linecap:round; stroke-linejoin:round;fill-rule:evenodd;"
d="M 167.122625,94.582000
167.125822,94.565927
167.134927,94.552302
167.148552,94.543197
167.164625,94.540000
169.050625,94.540000
169.066698,94.543197
169.080323,94.552302
169.089428,94.565927
169.092625,94.582000
169.092625,95.098000
169.089428,95.114073
169.080323,95.127698
169.066698,95.136803
169.050625,95.140000
167.164625,95.140000
167.148552,95.136803
167.134927,95.127698
167.125822,95.114073
167.122625,95.098000
Z" /> 
<path style="fill:#000000; fill-opacity:1.000000; 
stroke:#000000; stroke-width:0.000000; stroke-opacity:1; 
stroke-linecap:round; stroke-linejoin:round;fill-rule:evenodd;"
d="M 162.172625,94.582000
162.175822,94.565927
162.184927,94.552302
162.198552,94.543197
162.214625,94.540000
164.100625,94.540000
164.116698,94.543197
164.130323,94.552302
164.139428,94.565927
164.142625,94.582000
164.142625,95.098000
164.139428,95.114073
164.130323,95.127698
164.116698,95.136803
164.100625,95.140000
162.214625,95.140000
162.198552,95.136803
162.184927,95.127698
162.175822,95.114073
162.172625,95.098000
Z" /> 
<path style="fill:#000000; fill-opacity:1.000000; 
stroke:#000000; stroke-width:0.000000; stroke-opacity:1; 
stroke-linecap:round; stroke-linejoin:round;fill-rule:evenodd;"
d="M 162.172625,95.852000
162.175822,95.835927
162.184927,95.822302
162.198552,95.813197
162.214625,95.810000
164.100625,95.810000
164.116698,95.813197
164.130323,95.822302
164.139428,95.835927
164.142625,95.852000
164.142625,96.368000
164.139428,96.384073
164.130323,96.397698
164.116698,96.406803
164.100625,96.410000
162.214625,96.410000
162.198552,96.406803
162.184927,96.397698
162.175822,96.384073
162.172625,96.368000
Z" /> 
<path style="fill:#000000; fill-opacity:1.000000; 
stroke:#000000; stroke-width:0.000000; stroke-opacity:1; 
stroke-linecap:round; stroke-linejoin:round;fill-rule:evenodd;"
d="M 162.172625,97.122000
162.175822,97.105927
162.184927,97.092302
162.198552,97.083197
162.214625,97.080000
164.100625,97.080000
164.116698,97.083197
164.130323,97.092302
164.139428,97.105927
164.142625,97.122000
164.142625,97.638000
164.139428,97.654073
164.130323,97.667698
164.116698,97.676803
164.100625,97.680000
162.214625,97.680000
162.198552,97.676803
162.184927,97.667698
162.175822,97.654073
162.172625,97.638000
Z" /> 
<path style="fill:#000000; fill-opacity:1.000000; 
stroke:#000000; stroke-width:0.000000; stroke-opacity:1; 
stroke-linecap:round; stroke-linejoin:round;fill-rule:evenodd;"
d="M 162.172625,98.392000
162.175822,98.375927
162.184927,98.362302
162.198552,98.353197
162.214625,98.350000
164.100625,98.350000
164.116698,98.353197
164.130323,98.362302
164.139428,98.375927
164.142625,98.392000
164.142625,98.908000
164.139428,98.924073
164.130323,98.937698
164.116698,98.946803
164.100625,98.950000
162.214625,98.950000
162.198552,98.946803
162.184927,98.937698
162.175822,98.924073
162.172625,98.908000
Z" /> 
</g>
<g >
</g>
<g style="fill:#000000; fill-opacity:1.000000; 
stroke:#000000; stroke-width:0.000000; stroke-opacity:1; 
stroke-linecap:round; stroke-linejoin:round;">
<path style="fill:#000000; fill-opacity:1.000000; 
stroke:#000000; stroke-width:0.000000; stroke-opacity:1; 
stroke-linecap:round; stroke-linejoin:round;fill-rule:evenodd;"
d="M 184.950000,62.535000
184.930970,62.630671
184.876777,62.711777
184.795671,62.765970
184.700000,62.785000
183.900000,62.785000
183.804329,62.765970
183.723223,62.711777
183.669030,62.630671
183.650000,62.535000
183.650000,61.285000
183.669030,61.189329
183.723223,61.108223
183.804329,61.054030
183.900000,61.035000
184.700000,61.035000
184.795671,61.054030
184.876777,61.108223
184.930970,61.189329
184.950000,61.285000
Z" /> 
<path style="fill:#000000; fill-opacity:1.000000; 
stroke:#000000; stroke-width:0.000000; stroke-opacity:1; 
stroke-linecap:round; stroke-linejoin:round;fill-rule:evenodd;"
d="M 181.850000,62.535000
181.830970,62.630671
181.776777,62.711777
181.695671,62.765970
181.600000,62.785000
180.800000,62.785000
180.704329,62.765970
180.623223,62.711777
180.569030,62.630671
180.550000,62.535000
180.550000,61.285000
180.569030,61.189329
180.623223,61.108223
180.704329,61.054030
180.800000,61.035000
181.600000,61.035000
181.695671,61.054030
181.776777,61.108223
181.830970,61.189329
181.850000,61.285000
Z" /> 
</g>
<g >
</g>
<g style="fill:#000000; fill-opacity:1.000000; 
stroke:#000000; stroke-width:0.000000; stroke-opacity:1; 
stroke-linecap:round; stroke-linejoin:round;">
<circle cx="170.270000" cy="60.575000" r="1.000000" /> 
<circle cx="172.810000" cy="60.575000" r="1.000000" /> 
<circle cx="175.350000" cy="60.575000" r="1.000000" /> 
<circle cx="177.890000" cy="60.575000" r="1.000000" /> 
</g>
<g >
</g>
<g >
</g>
<g >
</g>
<g style="fill:#000000; fill-opacity:1.000000; 
stroke:#000000; stroke-width:0.000000; stroke-opacity:1; 
stroke-linecap:round; stroke-linejoin:round;">
<circle cx="183.370000" cy="99.900000" r="0.850000" /> 
<circle cx="185.910000" cy="99.900000" r="0.850000" /> 
<circle cx="188.450000" cy="99.900000" r="0.850000" /> 
<path style="fill:#000000; fill-opacity:1.000000; 
stroke:#000000; stroke-width:0.000000; stroke-opacity:1; 
stroke-linecap:round; stroke-linejoin:round;fill-rule:evenodd;"
d="M 190.140000,99.050000
191.840000,99.050000
191.840000,100.750000
190.140000,100.750000
Z" /> 
</g>
<g >
</g>
<g >
</g>
<g style="fill:#000000; fill-opacity:1.000000; 
stroke:#000000; stroke-width:0.000000; stroke-opacity:1; 
stroke-linecap:round; stroke-linejoin:round;">
<path style="fill:#000000; fill-opacity:1.000000; 
stroke:#000000; stroke-width:0.000000; stroke-opacity:1; 
stroke-linecap:round; stroke-linejoin:round;fill-rule:evenodd;"
d="M 173.460000,97.788432
173.479030,97.692761
173.533223,97.611655
173.614329,97.557462
173.710000,97.538432
174.410000,97.538432
174.505671,97.557462
174.586777,97.611655
174.640970,97.692761
174.660000,97.788432
174.660000,98.688432
174.640970,98.784103
174.586777,98.865209
174.505671,98.919402
174.410000,98.938432
173.710000,98.938432
173.614329,98.919402
173.533223,98.865209
173.479030,98.784103
173.460000,98.688432
Z" /> 
<path style="fill:#000000; fill-opacity:1.000000; 
stroke:#000000; stroke-width:0.000000; stroke-opacity:1; 
stroke-linecap:round; stroke-linejoin:round;fill-rule:evenodd;"
d="M 175.460000,97.788432
175.479030,97.692761
175.533223,97.611655
175.614329,97.557462
175.710000,97.538432
176.410000,97.538432
176.505671,97.557462
176.586777,97.611655
176.640970,97.692761
176.660000,97.788432
176.660000,98.688432
176.640970,98.784103
176.586777,98.865209
176.505671,98.919402
176.410000,98.938432
175.710000,98.938432
175.614329,98.919402
175.533223,98.865209
175.479030,98.784103
175.460000,98.688432
Z" /> 
</g>
<g >
</g>
<g style="fill:#000000; fill-opacity:1.000000; 
stroke:#000000; stroke-width:0.000000; stroke-opacity:1; 
stroke-linecap:round; stroke-linejoin:round;">
<path style="fill:#000000; fill-opacity:1.000000; 
stroke:#000000; stroke-width:0.000000; stroke-opacity:1; 
stroke-linecap:round; stroke-linejoin:round;fill-rule:evenodd;"
d="M 186.900000,97.800000
185.400000,97.800000
185.400000,95.800000
186.900000,95.800000
Z" /> 
<path style="fill:#000000; fill-opacity:1.000000; 
stroke:#000000; stroke-width:0.000000; stroke-opacity:1; 
stroke-linecap:round; stroke-linejoin:round;fill-rule:evenodd;"
d="M 190.350000,91.500000
186.550000,91.500000
186.550000,89.500000
190.350000,89.500000
Z" /> 
<path style="fill:#000000; fill-opacity:1.000000; 
stroke:#000000; stroke-width:0.000000; stroke-opacity:1; 
stroke-linecap:round; stroke-linejoin:round;fill-rule:evenodd;"
d="M 189.200000,97.800000
187.700000,97.800000
187.700000,95.800000
189.200000,95.800000
Z" /> 
<path style="fill:#000000; fill-opacity:1.000000; 
stroke:#000000; stroke-width:0.000000; stroke-opacity:1; 
stroke-linecap:round; stroke-linejoin:round;fill-rule:evenodd;"
d="M 191.500000,97.800000
190.000000,97.800000
190.000000,95.800000
191.500000,95.800000
Z" /> 
</g>
<g >
</g>
<g style="fill:#000000; fill-opacity:1.000000; 
stroke:#000000; stroke-width:0.000000; stroke-opacity:1; 
stroke-linecap:round; stroke-linejoin:round;">
<path style="fill:#000000; fill-opacity:1.000000; 
stroke:#000000; stroke-width:0.000000; stroke-opacity:1; 
stroke-linecap:round; stroke-linejoin:round;fill-rule:evenodd;"
d="M 192.932500,91.925000
192.951530,91.829329
193.005723,91.748223
193.086829,91.694030
193.182500,91.675000
193.857500,91.675000
193.953171,91.694030
194.034277,91.748223
194.088470,91.829329
194.107500,91.925000
194.107500,92.875000
194.088470,92.970671
194.034277,93.051777
193.953171,93.105970
193.857500,93.125000
193.182500,93.125000
193.086829,93.105970
193.005723,93.051777
192.951530,92.970671
192.932500,92.875000
Z" /> 
<path style="fill:#000000; fill-opacity:1.000000; 
stroke:#000000; stroke-width:0.000000; stroke-opacity:1; 
stroke-linecap:round; stroke-linejoin:round;fill-rule:evenodd;"
d="M 195.007500,91.925000
195.026530,91.829329
195.080723,91.748223
195.161829,91.694030
195.257500,91.675000
195.932500,91.675000
196.028171,91.694030
196.109277,91.748223
196.163470,91.829329
196.182500,91.925000
196.182500,92.875000
196.163470,92.970671
196.109277,93.051777
196.028171,93.105970
195.932500,93.125000
195.257500,93.125000
195.161829,93.105970
195.080723,93.051777
195.026530,92.970671
195.007500,92.875000
Z" /> 
</g>
<g >
</g>
<g style="fill:#000000; fill-opacity:1.000000; 
stroke:#000000; stroke-width:0.000000; stroke-opacity:1; 
stroke-linecap:round; stroke-linejoin:round;">
<path style="fill:#000000; fill-opacity:1.000000; 
stroke:#000000; stroke-width:0.000000; stroke-opacity:1; 
stroke-linecap:round; stroke-linejoin:round;fill-rule:evenodd;"
d="M 176.700000,65.320000
177.700000,65.320000
177.700000,67.820000
176.700000,67.820000
Z" /> 
<path style="fill:#000000; fill-opacity:1.000000; 
stroke:#000000; stroke-width:0.000000; stroke-opacity:1; 
stroke-linecap:round; stroke-linejoin:round;fill-rule:evenodd;"
d="M 178.700000,65.320000
179.700000,65.320000
179.700000,67.820000
178.700000,67.820000
Z" /> 
<path style="fill:#000000; fill-opacity:1.000000; 
stroke:#000000; stroke-width:0.000000; stroke-opacity:1; 
stroke-linecap:round; stroke-linejoin:round;fill-rule:evenodd;"
d="M 180.700000,65.320000
181.700000,65.320000
181.700000,67.820000
180.700000,67.820000
Z" /> 
<path style="fill:#000000; fill-opacity:1.000000; 
stroke:#000000; stroke-width:0.000000; stroke-opacity:1; 
stroke-linecap:round; stroke-linejoin:round;fill-rule:evenodd;"
d="M 182.700000,65.320000
183.700000,65.320000
183.700000,67.820000
182.700000,67.820000
Z" /> 
<path style="fill:#000000; fill-opacity:1.000000; 
stroke:#000000; stroke-width:0.000000; stroke-opacity:1; 
stroke-linecap:round; stroke-linejoin:round;fill-rule:evenodd;"
d="M 184.700000,65.320000
185.700000,65.320000
185.700000,67.820000
184.700000,67.820000
Z" /> 
<path style="fill:#000000; fill-opacity:1.000000; 
stroke:#000000; stroke-width:0.000000; stroke-opacity:1; 
stroke-linecap:round; stroke-linejoin:round;fill-rule:evenodd;"
d="M 186.700000,65.320000
187.700000,65.320000
187.700000,67.820000
186.700000,67.820000
Z" /> 
<path style="fill:#000000; fill-opacity:1.000000; 
stroke:#000000; stroke-width:0.000000; stroke-opacity:1; 
stroke-linecap:round; stroke-linejoin:round;fill-rule:evenodd;"
d="M 188.700000,65.320000
189.700000,65.320000
189.700000,67.820000
188.700000,67.820000
Z" /> 
<path style="fill:#000000; fill-opacity:1.000000; 
stroke:#000000; stroke-width:0.000000; stroke-opacity:1; 
stroke-linecap:round; stroke-linejoin:round;fill-rule:evenodd;"
d="M 190.700000,65.320000
191.700000,65.320000
191.700000,67.820000
190.700000,67.820000
Z" /> 
<path style="fill:#000000; fill-opacity:1.000000; 
stroke:#000000; stroke-width:0.000000; stroke-opacity:1; 
stroke-linecap:round; stroke-linejoin:round;fill-rule:evenodd;"
d="M 191.800000,68.670000
193.600000,68.670000
193.600000,69.670000
191.800000,69.670000
Z" /> 
<path style="fill:#000000; fill-opacity:1.000000; 
stroke:#000000; stroke-width:0.000000; stroke-opacity:1; 
stroke-linecap:round; stroke-linejoin:round;fill-rule:evenodd;"
d="M 191.800000,70.670000
193.600000,70.670000
193.600000,71.670000
191.800000,71.670000
Z" /> 
<path style="fill:#000000; fill-opacity:1.000000; 
stroke:#000000; stroke-width:0.000000; stroke-opacity:1; 
stroke-linecap:round; stroke-linejoin:round;fill-rule:evenodd;"
d="M 191.800000,72.670000
193.600000,72.670000
193.600000,73.670000
191.800000,73.670000
Z" /> 
<path style="fill:#000000; fill-opacity:1.000000; 
stroke:#000000; stroke-width:0.000000; stroke-opacity:1; 
stroke-linecap:round; stroke-linejoin:round;fill-rule:evenodd;"
d="M 191.800000,74.670000
193.600000,74.670000
193.600000,75.670000
191.800000,75.670000
Z" /> 
<path style="fill:#000000; fill-opacity:1.000000; 
stroke:#000000; stroke-width:0.000000; stroke-opacity:1; 
stroke-linecap:round; stroke-linejoin:round;fill-rule:evenodd;"
d="M 191.800000,76.670000
193.600000,76.670000
193.600000,77.670000
191.800000,77.670000
Z" /> 
<path style="fill:#000000; fill-opacity:1.000000; 
stroke:#000000; stroke-width:0.000000; stroke-opacity:1; 
stroke-linecap:round; stroke-linejoin:round;fill-rule:evenodd;"
d="M 191.800000,78.670000
193.600000,78.670000
193.600000,79.670000
191.800000,79.670000
Z" /> 
<path style="fill:#000000; fill-opacity:1.000000; 
stroke:#000000; stroke-width:0.000000; stroke-opacity:1; 
stroke-linecap:round; stroke-linejoin:round;fill-rule:evenodd;"
d="M 190.700000,80.520000
191.700000,80.520000
191.700000,83.020000
190.700000,83.020000
Z" /> 
<path style="fill:#000000; fill-opacity:1.000000; 
stroke:#000000; stroke-width:0.000000; stroke-opacity:1; 
stroke-linecap:round; stroke-linejoin:round;fill-rule:evenodd;"
d="M 188.700000,80.520000
189.700000,80.520000
189.700000,83.020000
188.700000,83.020000
Z" /> 
<path style="fill:#000000; fill-opacity:1.000000; 
stroke:#000000; stroke-width:0.000000; stroke-opacity:1; 
stroke-linecap:round; stroke-linejoin:round;fill-rule:evenodd;"
d="M 186.700000,80.520000
187.700000,80.520000
187.700000,83.020000
186.700000,83.020000
Z" /> 
<path style="fill:#000000; fill-opacity:1.000000; 
stroke:#000000; stroke-width:0.000000; stroke-opacity:1; 
stroke-linecap:round; stroke-linejoin:round;fill-rule:evenodd;"
d="M 184.700000,80.520000
185.700000,80.520000
185.700000,83.020000
184.700000,83.020000
Z" /> 
<path style="fill:#000000; fill-opacity:1.000000; 
stroke:#000000; stroke-width:0.000000; stroke-opacity:1; 
stroke-linecap:round; stroke-linejoin:round;fill-rule:evenodd;"
d="M 182.700000,80.520000
183.700000,80.520000
183.700000,83.020000
182.700000,83.020000
Z" /> 
<path style="fill:#000000; fill-opacity:1.000000; 
stroke:#000000; stroke-width:0.000000; stroke-opacity:1; 
stroke-linecap:round; stroke-linejoin:round;fill-rule:evenodd;"
d="M 180.700000,80.520000
181.700000,80.520000
181.700000,83.020000
180.700000,83.020000
Z" /> 
<path style="fill:#000000; fill-opacity:1.000000; 
stroke:#000000; stroke-width:0.000000; stroke-opacity:1; 
stroke-linecap:round; stroke-linejoin:round;fill-rule:evenodd;"
d="M 178.700000,80.520000
179.700000,80.520000
179.700000,83.020000
178.700000,83.020000
Z" /> 
<path style="fill:#000000; fill-opacity:1.000000; 
stroke:#000000; stroke-width:0.000000; stroke-opacity:1; 
stroke-linecap:round; stroke-linejoin:round;fill-rule:evenodd;"
d="M 176.700000,80.520000
177.700000,80.520000
177.700000,83.020000
176.700000,83.020000
Z" /> 
</g>
<g >
</g>
<g style="fill:#000000; fill-opacity:1.000000; 
stroke:#000000; stroke-width:0.000000; stroke-opacity:1; 
stroke-linecap:round; stroke-linejoin:round;">
<path style="fill:#000000; fill-opacity:1.000000; 
stroke:#000000; stroke-width:0.000000; stroke-opacity:1; 
stroke-linecap:round; stroke-linejoin:round;fill-rule:evenodd;"
d="M 155.280000,68.740000
155.280000,67.140000
157.460000,67.140000
157.460000,68.740000
Z" /> 
<path style="fill:#000000; fill-opacity:1.000000; 
stroke:#000000; stroke-width:0.000000; stroke-opacity:1; 
stroke-linecap:round; stroke-linejoin:round;fill-rule:evenodd;"
d="M 164.460000,68.740000
164.460000,67.140000
166.640000,67.140000
166.640000,68.740000
Z" /> 
</g>
<g >
</g>
<g style="fill:#000000; fill-opacity:1.000000; 
stroke:#000000; stroke-width:0.000000; stroke-opacity:1; 
stroke-linecap:round; stroke-linejoin:round;">
<path style="fill:#000000; fill-opacity:1.000000; 
stroke:#000000; stroke-width:0.000000; stroke-opacity:1; 
stroke-linecap:round; stroke-linejoin:round;fill-rule:evenodd;"
d="M 188.950000,88.025000
188.930970,88.120671
188.876777,88.201777
188.795671,88.255970
188.700000,88.275000
187.900000,88.275000
187.804329,88.255970
187.723223,88.201777
187.669030,88.120671
187.650000,88.025000
187.650000,86.775000
187.669030,86.679329
187.723223,86.598223
187.804329,86.544030
187.900000,86.525000
188.700000,86.525000
188.795671,86.544030
188.876777,86.598223
188.930970,86.679329
188.950000,86.775000
Z" /> 
<path style="fill:#000000; fill-opacity:1.000000; 
stroke:#000000; stroke-width:0.000000; stroke-opacity:1; 
stroke-linecap:round; stroke-linejoin:round;fill-rule:evenodd;"
d="M 185.850000,88.025000
185.830970,88.120671
185.776777,88.201777
185.695671,88.255970
185.600000,88.275000
184.800000,88.275000
184.704329,88.255970
184.623223,88.201777
184.569030,88.120671
184.550000,88.025000
184.550000,86.775000
184.569030,86.679329
184.623223,86.598223
184.704329,86.544030
184.800000,86.525000
185.600000,86.525000
185.695671,86.544030
185.776777,86.598223
185.830970,86.679329
185.850000,86.775000
Z" /> 
</g>
<g >
</g>
<g style="fill:#000000; fill-opacity:1.000000; 
stroke:#000000; stroke-width:0.000000; stroke-opacity:1; 
stroke-linecap:round; stroke-linejoin:round;">
<path style="fill:#000000; fill-opacity:1.000000; 
stroke:#000000; stroke-width:0.000000; stroke-opacity:1; 
stroke-linecap:round; stroke-linejoin:round;fill-rule:evenodd;"
d="M 181.850000,60.055000
181.830970,60.150671
181.776777,60.231777
181.695671,60.285970
181.600000,60.305000
180.800000,60.305000
180.704329,60.285970
180.623223,60.231777
180.569030,60.150671
180.550000,60.055000
180.550000,58.805000
180.569030,58.709329
180.623223,58.628223
180.704329,58.574030
180.800000,58.555000
181.600000,58.555000
181.695671,58.574030
181.776777,58.628223
181.830970,58.709329
181.850000,58.805000
Z" /> 
<path style="fill:#000000; fill-opacity:1.000000; 
stroke:#000000; stroke-width:0.000000; stroke-opacity:1; 
stroke-linecap:round; stroke-linejoin:round;fill-rule:evenodd;"
d="M 184.950000,60.055000
184.930970,60.150671
184.876777,60.231777
184.795671,60.285970
184.700000,60.305000
183.900000,60.305000
183.804329,60.285970
183.723223,60.231777
183.669030,60.150671
183.650000,60.055000
183.650000,58.805000
183.669030,58.709329
183.723223,58.628223
183.804329,58.574030
183.900000,58.555000
184.700000,58.555000
184.795671,58.574030
184.876777,58.628223
184.930970,58.709329
184.950000,58.805000
Z" /> 
</g>
<g >
</g>
<g style="fill:#000000; fill-opacity:1.000000; 
stroke:#000000; stroke-width:0.000000; stroke-opacity:1; 
stroke-linecap:round; stroke-linejoin:round;">
<path style="fill:#000000; fill-opacity:1.000000; 
stroke:#000000; stroke-width:0.000000; stroke-opacity:1; 
stroke-linecap:round; stroke-linejoin:round;fill-rule:evenodd;"
d="M 158.900000,61.217500
158.891699,61.289047
158.845312,61.394105
158.764105,61.475312
158.659047,61.521699
158.587500,61.530000
157.212500,61.530000
157.140953,61.521699
157.035895,61.475312
156.954688,61.394105
156.908301,61.289047
156.900000,61.217500
156.900000,59.842500
156.908301,59.770953
156.954688,59.665895
157.035895,59.584688
157.140953,59.538301
157.212500,59.530000
158.587500,59.530000
158.659047,59.538301
158.764105,59.584688
158.845312,59.665895
158.891699,59.770953
158.900000,59.842500
Z" /> 
<circle cx="154.300000" cy="60.530000" r="1.000000" /> 
</g>
<g style="fill:#000000; fill-opacity:1.000000; 
stroke:#000000; stroke-width:0.021200; stroke-opacity:1; 
stroke-linecap:round; stroke-linejoin:round;">
</g>
<g >
</g>
<g style="fill:#000000; fill-opacity:1.000000; 
stroke:#000000; stroke-width:0.021200; stroke-opacity:1; 
stroke-linecap:round; stroke-linejoin:round;">
</g>
<g style="fill:#000000; fill-opacity:1.000000; 
stroke:#000000; stroke-width:0.000000; stroke-opacity:1; 
stroke-linecap:round; stroke-linejoin:round;">
<path style="fill:#000000; fill-opacity:1.000000; 
stroke:#000000; stroke-width:0.000000; stroke-opacity:1; 
stroke-linecap:round; stroke-linejoin:round;fill-rule:evenodd;"
d="M 153.630000,90.125000
152.830000,90.125000
152.830000,89.125000
153.630000,89.125000
Z" /> 
<path style="fill:#000000; fill-opacity:1.000000; 
stroke:#000000; stroke-width:0.000000; stroke-opacity:1; 
stroke-linecap:round; stroke-linejoin:round;fill-rule:evenodd;"
d="M 155.840000,90.125000
155.040000,90.125000
155.040000,89.125000
155.840000,89.125000
Z" /> 
<path style="fill:#000000; fill-opacity:1.000000; 
stroke:#000000; stroke-width:0.000000; stroke-opacity:1; 
stroke-linecap:round; stroke-linejoin:round;fill-rule:evenodd;"
d="M 153.630000,82.825000
152.830000,82.825000
152.830000,81.825000
153.630000,81.825000
Z" /> 
<path style="fill:#000000; fill-opacity:1.000000; 
stroke:#000000; stroke-width:0.000000; stroke-opacity:1; 
stroke-linecap:round; stroke-linejoin:round;fill-rule:evenodd;"
d="M 155.840000,82.825000
155.040000,82.825000
155.040000,81.825000
155.840000,81.825000
Z" /> 
<path style="fill:#000000; fill-opacity:1.000000; 
stroke:#000000; stroke-width:0.000000; stroke-opacity:1; 
stroke-linecap:round; stroke-linejoin:round;fill-rule:evenodd;"
d="M 156.840000,88.575000
155.340000,88.575000
155.340000,87.875000
156.840000,87.875000
Z" /> 
<path style="fill:#000000; fill-opacity:1.000000; 
stroke:#000000; stroke-width:0.000000; stroke-opacity:1; 
stroke-linecap:round; stroke-linejoin:round;fill-rule:evenodd;"
d="M 156.840000,85.575000
155.340000,85.575000
155.340000,84.875000
156.840000,84.875000
Z" /> 
<path style="fill:#000000; fill-opacity:1.000000; 
stroke:#000000; stroke-width:0.000000; stroke-opacity:1; 
stroke-linecap:round; stroke-linejoin:round;fill-rule:evenodd;"
d="M 156.840000,84.075000
155.340000,84.075000
155.340000,83.375000
156.840000,83.375000
Z" /> 
</g>
<g >
</g>
<g style="fill:#000000; fill-opacity:1.000000; 
stroke:#000000; stroke-width:0.000000; stroke-opacity:1; 
stroke-linecap:round; stroke-linejoin:round;">
<path style="fill:#000000; fill-opacity:1.000000; 
stroke:#000000; stroke-width:0.000000; stroke-opacity:1; 
stroke-linecap:round; stroke-linejoin:round;fill-rule:evenodd;"
d="M 166.640000,74.630000
166.640000,76.230000
164.460000,76.230000
164.460000,74.630000
Z" /> 
<path style="fill:#000000; fill-opacity:1.000000; 
stroke:#000000; stroke-width:0.000000; stroke-opacity:1; 
stroke-linecap:round; stroke-linejoin:round;fill-rule:evenodd;"
d="M 157.460000,74.630000
157.460000,76.230000
155.280000,76.230000
155.280000,74.630000
Z" /> 
</g>
<g >
</g>
<g style="fill:#000000; fill-opacity:1.000000; 
stroke:#000000; stroke-width:0.000000; stroke-opacity:1; 
stroke-linecap:round; stroke-linejoin:round;">
<path style="fill:#000000; fill-opacity:1.000000; 
stroke:#000000; stroke-width:0.000000; stroke-opacity:1; 
stroke-linecap:round; stroke-linejoin:round;fill-rule:evenodd;"
d="M 179.629580,96.169440
179.629580,94.970560
180.828460,94.970560
180.828460,96.169440
Z" /> 
<path style="fill:#000000; fill-opacity:1.000000; 
stroke:#000000; stroke-width:0.000000; stroke-opacity:1; 
stroke-linecap:round; stroke-linejoin:round;fill-rule:evenodd;"
d="M 177.531540,96.169440
177.531540,94.970560
178.730420,94.970560
178.730420,96.169440
Z" /> 
</g>
<g >
</g>
<g style="fill:#000000; fill-opacity:1.000000; 
stroke:#000000; stroke-width:0.000000; stroke-opacity:1; 
stroke-linecap:round; stroke-linejoin:round;">
<path style="fill:#000000; fill-opacity:1.000000; 
stroke:#000000; stroke-width:0.000000; stroke-opacity:1; 
stroke-linecap:round; stroke-linejoin:round;fill-rule:evenodd;"
d="M 196.195000,95.425000
196.175970,95.520671
196.121777,95.601777
196.040671,95.655970
195.945000,95.675000
195.270000,95.675000
195.174329,95.655970
195.093223,95.601777
195.039030,95.520671
195.020000,95.425000
195.020000,94.475000
195.039030,94.379329
195.093223,94.298223
195.174329,94.244030
195.270000,94.225000
195.945000,94.225000
196.040671,94.244030
196.121777,94.298223
196.175970,94.379329
196.195000,94.475000
Z" /> 
<path style="fill:#000000; fill-opacity:1.000000; 
stroke:#000000; stroke-width:0.000000; stroke-opacity:1; 
stroke-linecap:round; stroke-linejoin:round;fill-rule:evenodd;"
d="M 194.120000,95.425000
194.100970,95.520671
194.046777,95.601777
193.965671,95.655970
193.870000,95.675000
193.195000,95.675000
193.099329,95.655970
193.018223,95.601777
192.964030,95.520671
192.945000,95.425000
192.945000,94.475000
192.964030,94.379329
193.018223,94.298223
193.099329,94.244030
193.195000,94.225000
193.870000,94.225000
193.965671,94.244030
194.046777,94.298223
194.100970,94.379329
194.120000,94.475000
Z" /> 
</g>
<g >
</g>
<g style="fill:#000000; fill-opacity:1.000000; 
stroke:#000000; stroke-width:0.000000; stroke-opacity:1; 
stroke-linecap:round; stroke-linejoin:round;">
<path style="fill:#000000; fill-opacity:1.000000; 
stroke:#000000; stroke-width:0.000000; stroke-opacity:1; 
stroke-linecap:round; stroke-linejoin:round;fill-rule:evenodd;"
d="M 177.536540,98.837872
177.536540,97.638992
178.735420,97.638992
178.735420,98.837872
Z" /> 
<path style="fill:#000000; fill-opacity:1.000000; 
stroke:#000000; stroke-width:0.000000; stroke-opacity:1; 
stroke-linecap:round; stroke-linejoin:round;fill-rule:evenodd;"
d="M 179.634580,98.837872
179.634580,97.638992
180.833460,97.638992
180.833460,98.837872
Z" /> 
</g>
<g >
</g>
<g style="fill:#000000; fill-opacity:1.000000; 
stroke:#000000; stroke-width:0.000000; stroke-opacity:1; 
stroke-linecap:round; stroke-linejoin:round;">
<path style="fill:#000000; fill-opacity:1.000000; 
stroke:#000000; stroke-width:0.000000; stroke-opacity:1; 
stroke-linecap:round; stroke-linejoin:round;fill-rule:evenodd;"
d="M 162.887500,59.425000
162.983171,59.444030
163.064277,59.498223
163.118470,59.579329
163.137500,59.675000
163.137500,60.350000
163.118470,60.445671
163.064277,60.526777
162.983171,60.580970
162.887500,60.600000
161.937500,60.600000
161.841829,60.580970
161.760723,60.526777
161.706530,60.445671
161.687500,60.350000
161.687500,59.675000
161.706530,59.579329
161.760723,59.498223
161.841829,59.444030
161.937500,59.425000
Z" /> 
<path style="fill:#000000; fill-opacity:1.000000; 
stroke:#000000; stroke-width:0.000000; stroke-opacity:1; 
stroke-linecap:round; stroke-linejoin:round;fill-rule:evenodd;"
d="M 162.887500,61.500000
162.983171,61.519030
163.064277,61.573223
163.118470,61.654329
163.137500,61.750000
163.137500,62.425000
163.118470,62.520671
163.064277,62.601777
162.983171,62.655970
162.887500,62.675000
161.937500,62.675000
161.841829,62.655970
161.760723,62.601777
161.706530,62.520671
161.687500,62.425000
161.687500,61.750000
161.706530,61.654329
161.760723,61.573223
161.841829,61.519030
161.937500,61.500000
Z" /> 
</g>
<g >
</g>
<g style="fill:#000000; fill-opacity:1.000000; 
stroke:#000000; stroke-width:0.000000; stroke-opacity:1; 
stroke-linecap:round; stroke-linejoin:round;">
<path style="fill:#000000; fill-opacity:1.000000; 
stroke:#000000; stroke-width:0.000000; stroke-opacity:1; 
stroke-linecap:round; stroke-linejoin:round;fill-rule:evenodd;"
d="M 173.455000,95.120000
173.474030,95.024329
173.528223,94.943223
173.609329,94.889030
173.705000,94.870000
174.405000,94.870000
174.500671,94.889030
174.581777,94.943223
174.635970,95.024329
174.655000,95.120000
174.655000,96.020000
174.635970,96.115671
174.581777,96.196777
174.500671,96.250970
174.405000,96.270000
173.705000,96.270000
173.609329,96.250970
173.528223,96.196777
173.474030,96.115671
173.455000,96.020000
Z" /> 
<path style="fill:#000000; fill-opacity:1.000000; 
stroke:#000000; stroke-width:0.000000; stroke-opacity:1; 
stroke-linecap:round; stroke-linejoin:round;fill-rule:evenodd;"
d="M 175.455000,95.120000
175.474030,95.024329
175.528223,94.943223
175.609329,94.889030
175.705000,94.870000
176.405000,94.870000
176.500671,94.889030
176.581777,94.943223
176.635970,95.024329
176.655000,95.120000
176.655000,96.020000
176.635970,96.115671
176.581777,96.196777
176.500671,96.250970
176.405000,96.270000
175.705000,96.270000
175.609329,96.250970
175.528223,96.196777
175.474030,96.115671
175.455000,96.020000
Z" /> 
</g>
<g >
</g>
<g style="fill:#000000; fill-opacity:1.000000; 
stroke:#000000; stroke-width:0.000000; stroke-opacity:1; 
stroke-linecap:round; stroke-linejoin:round;">
<path style="fill:#000000; fill-opacity:1.000000; 
stroke:#000000; stroke-width:0.000000; stroke-opacity:1; 
stroke-linecap:round; stroke-linejoin:round;fill-rule:evenodd;"
d="M 168.162500,100.150000
168.181530,100.054329
168.235723,99.973223
168.316829,99.919030
168.412500,99.900000
169.087500,99.900000
169.183171,99.919030
169.264277,99.973223
169.318470,100.054329
169.337500,100.150000
169.337500,101.100000
169.318470,101.195671
169.264277,101.276777
169.183171,101.330970
169.087500,101.350000
168.412500,101.350000
168.316829,101.330970
168.235723,101.276777
168.181530,101.195671
168.162500,101.100000
Z" /> 
<path style="fill:#000000; fill-opacity:1.000000; 
stroke:#000000; stroke-width:0.000000; stroke-opacity:1; 
stroke-linecap:round; stroke-linejoin:round;fill-rule:evenodd;"
d="M 170.237500,100.150000
170.256530,100.054329
170.310723,99.973223
170.391829,99.919030
170.487500,99.900000
171.162500,99.900000
171.258171,99.919030
171.339277,99.973223
171.393470,100.054329
171.412500,100.150000
171.412500,101.100000
171.393470,101.195671
171.339277,101.276777
171.258171,101.330970
171.162500,101.350000
170.487500,101.350000
170.391829,101.330970
170.310723,101.276777
170.256530,101.195671
170.237500,101.100000
Z" /> 
</g>
<g >
</g>
<g style="fill:#000000; fill-opacity:1.000000; 
stroke:#000000; stroke-width:0.000000; stroke-opacity:1; 
stroke-linecap:round; stroke-linejoin:round;">
<path style="fill:#000000; fill-opacity:1.000000; 
stroke:#000000; stroke-width:0.000000; stroke-opacity:1; 
stroke-linecap:round; stroke-linejoin:round;fill-rule:evenodd;"
d="M 154.370000,95.950000
153.070000,95.950000
153.070000,94.300000
154.370000,94.300000
Z" /> 
<path style="fill:#000000; fill-opacity:1.000000; 
stroke:#000000; stroke-width:0.000000; stroke-opacity:1; 
stroke-linecap:round; stroke-linejoin:round;fill-rule:evenodd;"
d="M 157.070000,96.725000
155.520000,96.725000
155.520000,95.300000
157.070000,95.300000
Z" /> 
<path style="fill:#000000; fill-opacity:1.000000; 
stroke:#000000; stroke-width:0.000000; stroke-opacity:1; 
stroke-linecap:round; stroke-linejoin:round;fill-rule:evenodd;"
d="M 154.670000,97.450000
152.770000,97.450000
152.770000,96.450000
154.670000,96.450000
Z" /> 
<path style="fill:#000000; fill-opacity:1.000000; 
stroke:#000000; stroke-width:0.000000; stroke-opacity:1; 
stroke-linecap:round; stroke-linejoin:round;fill-rule:evenodd;"
d="M 154.670000,100.550000
152.770000,100.550000
152.770000,98.750000
154.670000,98.750000
Z" /> 
<path style="fill:#000000; fill-opacity:1.000000; 
stroke:#000000; stroke-width:0.000000; stroke-opacity:1; 
stroke-linecap:round; stroke-linejoin:round;fill-rule:evenodd;"
d="M 157.070000,101.700000
155.520000,101.700000
155.520000,100.275000
157.070000,100.275000
Z" /> 
<path style="fill:#000000; fill-opacity:1.000000; 
stroke:#000000; stroke-width:0.000000; stroke-opacity:1; 
stroke-linecap:round; stroke-linejoin:round;fill-rule:evenodd;"
d="M 154.370000,102.700000
153.070000,102.700000
153.070000,101.050000
154.370000,101.050000
Z" /> 
<path style="fill:#000000; fill-opacity:1.000000; 
stroke:#000000; stroke-width:0.000000; stroke-opacity:1; 
stroke-linecap:round; stroke-linejoin:round;fill-rule:evenodd;"
d="M 157.070000,97.425000
155.690000,97.425000
155.690000,96.975000
157.070000,96.975000
Z" /> 
<path style="fill:#000000; fill-opacity:1.000000; 
stroke:#000000; stroke-width:0.000000; stroke-opacity:1; 
stroke-linecap:round; stroke-linejoin:round;fill-rule:evenodd;"
d="M 157.070000,98.075000
155.690000,98.075000
155.690000,97.625000
157.070000,97.625000
Z" /> 
<path style="fill:#000000; fill-opacity:1.000000; 
stroke:#000000; stroke-width:0.000000; stroke-opacity:1; 
stroke-linecap:round; stroke-linejoin:round;fill-rule:evenodd;"
d="M 157.070000,98.725000
155.690000,98.725000
155.690000,98.275000
157.070000,98.275000
Z" /> 
<path style="fill:#000000; fill-opacity:1.000000; 
stroke:#000000; stroke-width:0.000000; stroke-opacity:1; 
stroke-linecap:round; stroke-linejoin:round;fill-rule:evenodd;"
d="M 157.070000,99.375000
155.690000,99.375000
155.690000,98.925000
157.070000,98.925000
Z" /> 
<path style="fill:#000000; fill-opacity:1.000000; 
stroke:#000000; stroke-width:0.000000; stroke-opacity:1; 
stroke-linecap:round; stroke-linejoin:round;fill-rule:evenodd;"
d="M 157.070000,100.025000
155.690000,100.025000
155.690000,99.575000
157.070000,99.575000
Z" /> 
</g>
<g >
</g>
<g style="fill:#000000; fill-opacity:1.000000; 
stroke:#000000; stroke-width:0.000000; stroke-opacity:1; 
stroke-linecap:round; stroke-linejoin:round;">
<path style="fill:#000000; fill-opacity:1.000000; 
stroke:#000000; stroke-width:0.000000; stroke-opacity:1; 
stroke-linecap:round; stroke-linejoin:round;fill-rule:evenodd;"
d="M 163.315226,101.075000
163.296196,101.170671
163.242003,101.251777
163.160897,101.305970
163.065226,101.325000
162.365226,101.325000
162.269555,101.305970
162.188449,101.251777
162.134256,101.170671
162.115226,101.075000
162.115226,100.175000
162.134256,100.079329
162.188449,99.998223
162.269555,99.944030
162.365226,99.925000
163.065226,99.925000
163.160897,99.944030
163.242003,99.998223
163.296196,100.079329
163.315226,100.175000
Z" /> 
<path style="fill:#000000; fill-opacity:1.000000; 
stroke:#000000; stroke-width:0.000000; stroke-opacity:1; 
stroke-linecap:round; stroke-linejoin:round;fill-rule:evenodd;"
d="M 161.315226,101.075000
161.296196,101.170671
161.242003,101.251777
161.160897,101.305970
161.065226,101.325000
160.365226,101.325000
160.269555,101.305970
160.188449,101.251777
160.134256,101.170671
160.115226,101.075000
160.115226,100.175000
160.134256,100.079329
160.188449,99.998223
160.269555,99.944030
160.365226,99.925000
161.065226,99.925000
161.160897,99.944030
161.242003,99.998223
161.296196,100.079329
161.315226,100.175000
Z" /> 
</g>
<g >
</g>
<g style="fill:#000000; fill-opacity:1.000000; 
stroke:#000000; stroke-width:0.000000; stroke-opacity:1; 
stroke-linecap:round; stroke-linejoin:round;">
<path style="fill:#000000; fill-opacity:1.000000; 
stroke:#000000; stroke-width:0.000000; stroke-opacity:1; 
stroke-linecap:round; stroke-linejoin:round;fill-rule:evenodd;"
d="M 165.075000,92.435000
165.055970,92.530671
165.001777,92.611777
164.920671,92.665970
164.825000,92.685000
164.150000,92.685000
164.054329,92.665970
163.973223,92.611777
163.919030,92.530671
163.900000,92.435000
163.900000,91.485000
163.919030,91.389329
163.973223,91.308223
164.054329,91.254030
164.150000,91.235000
164.825000,91.235000
164.920671,91.254030
165.001777,91.308223
165.055970,91.389329
165.075000,91.485000
Z" /> 
<path style="fill:#000000; fill-opacity:1.000000; 
stroke:#000000; stroke-width:0.000000; stroke-opacity:1; 
stroke-linecap:round; stroke-linejoin:round;fill-rule:evenodd;"
d="M 163.000000,92.435000
162.980970,92.530671
162.926777,92.611777
162.845671,92.665970
162.750000,92.685000
162.075000,92.685000
161.979329,92.665970
161.898223,92.611777
161.844030,92.530671
161.825000,92.435000
161.825000,91.485000
161.844030,91.389329
161.898223,91.308223
161.979329,91.254030
162.075000,91.235000
162.750000,91.235000
162.845671,91.254030
162.926777,91.308223
162.980970,91.389329
163.000000,91.485000
Z" /> 
</g>
<g >
</g>
<g style="fill:#000000; fill-opacity:1.000000; 
stroke:#000000; stroke-width:0.000000; stroke-opacity:1; 
stroke-linecap:round; stroke-linejoin:round;">
<path style="fill:#000000; fill-opacity:1.000000; 
stroke:#000000; stroke-width:0.000000; stroke-opacity:1; 
stroke-linecap:round; stroke-linejoin:round;fill-rule:evenodd;"
d="M 189.890000,86.775000
189.909030,86.679329
189.963223,86.598223
190.044329,86.544030
190.140000,86.525000
190.940000,86.525000
191.035671,86.544030
191.116777,86.598223
191.170970,86.679329
191.190000,86.775000
191.190000,88.025000
191.170970,88.120671
191.116777,88.201777
191.035671,88.255970
190.940000,88.275000
190.140000,88.275000
190.044329,88.255970
189.963223,88.201777
189.909030,88.120671
189.890000,88.025000
Z" /> 
<path style="fill:#000000; fill-opacity:1.000000; 
stroke:#000000; stroke-width:0.000000; stroke-opacity:1; 
stroke-linecap:round; stroke-linejoin:round;fill-rule:evenodd;"
d="M 192.990000,86.775000
193.009030,86.679329
193.063223,86.598223
193.144329,86.544030
193.240000,86.525000
194.040000,86.525000
194.135671,86.544030
194.216777,86.598223
194.270970,86.679329
194.290000,86.775000
194.290000,88.025000
194.270970,88.120671
194.216777,88.201777
194.135671,88.255970
194.040000,88.275000
193.240000,88.275000
193.144329,88.255970
193.063223,88.201777
193.009030,88.120671
192.990000,88.025000
Z" /> 
</g>
<g >
</g>
<g style="fill:#000000; fill-opacity:1.000000; 
stroke:#000000; stroke-width:0.000000; stroke-opacity:1; 
stroke-linecap:round; stroke-linejoin:round;">
<circle cx="176.820000" cy="63.010000" r="1.000000" /> 
</g>
<g style="fill:#000000; fill-opacity:1.000000; 
stroke:#000000; stroke-width:0.021200; stroke-opacity:1; 
stroke-linecap:round; stroke-linejoin:round;">
</g>
<g style="fill:#000000; fill-opacity:1.000000; 
stroke:#000000; stroke-width:0.000000; stroke-opacity:1; 
stroke-linecap:round; stroke-linejoin:round;">
<circle cx="160.180000" cy="90.410000" r="1.000000" /> 
</g>
<g style="fill:#000000; fill-opacity:1.000000; 
stroke:#000000; stroke-width:0.021200; stroke-opacity:1; 
stroke-linecap:round; stroke-linejoin:round;">
</g>
<g style="fill:#000000; fill-opacity:1.000000; 
stroke:#000000; stroke-width:0.000000; stroke-opacity:1; 
stroke-linecap:round; stroke-linejoin:round;">
<circle cx="165.469998" cy="100.625000" r="1.000000" /> 
</g>
<g style="fill:#000000; fill-opacity:1.000000; 
stroke:#000000; stroke-width:0.021200; stroke-opacity:1; 
stroke-linecap:round; stroke-linejoin:round;">
</g>
<g style="fill:#000000; fill-opacity:1.000000; 
stroke:#000000; stroke-width:0.000000; stroke-opacity:1; 
stroke-linecap:round; stroke-linejoin:round;">
<circle cx="187.500000" cy="61.690000" r="1.000000" /> 
</g>
<g style="fill:#000000; fill-opacity:1.000000; 
stroke:#000000; stroke-width:0.021200; stroke-opacity:1; 
stroke-linecap:round; stroke-linejoin:round;">
</g>
<g style="fill:#000000; fill-opacity:1.000000; 
stroke:#000000; stroke-width:0.000000; stroke-opacity:1; 
stroke-linecap:round; stroke-linejoin:round;">
<circle cx="190.540000" cy="61.690000" r="1.000000" /> 
</g>
<g style="fill:#000000; fill-opacity:1.000000; 
stroke:#000000; stroke-width:0.021200; stroke-opacity:1; 
stroke-linecap:round; stroke-linejoin:round;">
</g>
<g style="fill:#000000; fill-opacity:1.000000; 
stroke:#000000; stroke-width:0.000000; stroke-opacity:1; 
stroke-linecap:round; stroke-linejoin:round;">
<circle cx="193.060000" cy="63.540000" r="1.000000" /> 
</g>
<g style="fill:#000000; fill-opacity:1.000000; 
stroke:#000000; stroke-width:0.021200; stroke-opacity:1; 
stroke-linecap:round; stroke-linejoin:round;">
</g>
<g style="fill:#000000; fill-opacity:1.000000; 
stroke:#000000; stroke-width:0.000000; stroke-opacity:1; 
stroke-linecap:round; stroke-linejoin:round;">
<circle cx="183.200000" cy="85.780000" r="1.000000" /> 
</g>
<g style="fill:#000000; fill-opacity:1.000000; 
stroke:#000000; stroke-width:0.021200; stroke-opacity:1; 
stroke-linecap:round; stroke-linejoin:round;">
</g>
<g style="fill:#000000; fill-opacity:1.000000; 
stroke:#000000; stroke-width:0.000000; stroke-opacity:1; 
stroke-linecap:round; stroke-linejoin:round;">
<circle cx="176.690000" cy="87.750000" r="1.000000" /> 
</g>
<g style="fill:#000000; fill-opacity:1.000000; 
stroke:#000000; stroke-width:0.021200; stroke-opacity:1; 
stroke-linecap:round; stroke-linejoin:round;">
</g>
<g style="fill:#000000; fill-opacity:1.000000; 
stroke:#000000; stroke-width:0.000000; stroke-opacity:1; 
stroke-linecap:round; stroke-linejoin:round;">
<circle cx="174.170000" cy="85.990000" r="1.000000" /> 
</g>
<g style="fill:#000000; fill-opacity:1.000000; 
stroke:#000000; stroke-width:0.021200; stroke-opacity:1; 
stroke-linecap:round; stroke-linejoin:round;">
</g>
<g >
</g>
<g style="fill:#000000; fill-opacity:1.000000; 
stroke:#000000; stroke-width:0.021200; stroke-opacity:1; 
stroke-linecap:round; stroke-linejoin:round;">
</g>
<g style="fill:#000000; fill-opacity:1.000000; 
stroke:#000000; stroke-width:0.750000; stroke-opacity:1; 
stroke-linecap:round; stroke-linejoin:round;">
</g>
<g style="fill:#000000; fill-opacity:0.0; 
stroke:#000000; stroke-width:0.750000; stroke-opacity:1; 
stroke-linecap:round; stroke-linejoin:round;">
<path d="M167.780000 64.590000
L177.100000 64.590000
" />
<path d="M165.550000 66.820000
L167.780000 64.590000
" />
<path d="M165.550000 67.940000
L165.550000 66.820000
" />
<path d="M175.350000 61.890000
L175.350000 60.575000
" />
<path d="M174.270000 62.970000
L175.350000 61.890000
" />
<path d="M166.800000 62.970000
L174.270000 62.970000
" />
<path d="M162.830000 66.940000
L166.800000 62.970000
" />
<path d="M162.830000 69.870000
L162.830000 66.940000
" />
<path d="M165.860000 70.970000
L163.930000 70.970000
" />
<path d="M167.670000 72.780000
L165.860000 70.970000
" />
<path d="M167.670000 83.090000
L167.670000 72.780000
" />
<path d="M163.930000 70.970000
L162.830000 69.870000
" />
<path d="M174.200000 89.620000
L167.670000 83.090000
" />
<path d="M180.140000 89.620000
L174.200000 89.620000
" />
<path d="M181.200000 88.560000
L180.140000 89.620000
" />
<path d="M181.200000 81.770000
L181.200000 88.560000
" />
<path d="M157.980000 90.730000
L157.980000 88.225000
" />
<path d="M152.130000 90.780000
L152.800000 91.450000
" />
<path d="M152.800000 91.450000
L157.260000 91.450000
" />
<path d="M157.260000 91.450000
L157.980000 90.730000
" />
<path d="M152.890000 60.530000
L152.130000 61.290000
" />
<path d="M152.130000 61.290000
L152.130000 90.780000
" />
<path d="M154.300000 60.530000
L152.890000 60.530000
" />
<path d="M161.157500 62.087500
L162.412500 62.087500
" />
<path d="M163.832500 62.087500
L162.412500 62.087500
" />
<path d="M162.412500 58.957500
L162.660000 58.710000
" />
<path d="M162.412500 60.012500
L162.412500 58.957500
" />
<path d="M160.180000 91.960000
L162.412500 91.960000
" />
<path d="M160.180000 90.410000
L160.180000 91.960000
" />
<path d="M165.550000 83.490000
L165.550000 75.430000
" />
<path d="M173.840000 91.780000
L165.550000 83.490000
" />
<path d="M185.200000 88.760000
L182.180000 91.780000
" />
<path d="M182.180000 91.780000
L173.840000 91.780000
" />
<path d="M185.200000 87.400000
L185.200000 88.760000
" />
<path d="M183.330000 96.800000
L186.150000 96.800000
" />
<path d="M182.550000 94.930000
L182.550000 96.020000
" />
<path d="M182.550000 96.020000
L183.330000 96.800000
" />
<path d="M172.840000 93.490000
L181.110000 93.490000
" />
<path d="M158.370000 85.225000
L164.575000 85.225000
" />
<path d="M164.575000 85.225000
L172.840000 93.490000
" />
<path d="M181.110000 93.490000
L182.550000 94.930000
" />
<path d="M169.290000 91.960000
L164.487500 91.960000
" />
<path d="M169.880000 92.550000
L169.290000 91.960000
" />
<path d="M169.880000 94.360000
L169.880000 92.550000
" />
<path d="M169.400000 94.840000
L169.880000 94.360000
" />
<path d="M168.107625 94.840000
L169.400000 94.840000
" />
</g>
<g style="fill:#000000; fill-opacity:0.0; 
stroke:#000000; stroke-width:0.450000; stroke-opacity:1; 
stroke-linecap:round; stroke-linejoin:round;">
<path d="M157.690000 97.200000
L156.380000 97.200000
" />
<path d="M158.690000 96.200000
L157.690000 97.200000
" />
<path d="M160.175000 92.075000
L158.690000 93.560000
" />
<path d="M158.690000 93.560000
L158.690000 96.200000
" />
<path d="M165.470002 101.679998
L165.470002 100.625000
" />
<path d="M165.100000 102.050000
L165.470002 101.679998
" />
<path d="M159.740000 102.050000
L165.100000 102.050000
" />
<path d="M159.460000 101.770000
L159.740000 102.050000
" />
<path d="M161.710000 96.110000
L159.460000 98.360000
" />
<path d="M159.460000 98.360000
L159.460000 101.770000
" />
<path d="M163.157625 96.110000
L161.710000 96.110000
" />
</g>
<g style="fill:#000000; fill-opacity:0.0; 
stroke:#000000; stroke-width:0.500000; stroke-opacity:1; 
stroke-linecap:round; stroke-linejoin:round;">
<path d="M161.760000 97.380000
L160.715226 98.424774
" />
<path d="M160.715226 98.424774
L160.715226 100.625000
" />
<path d="M163.157625 97.380000
L161.760000 97.380000
" />
</g>
<g style="fill:#000000; fill-opacity:0.0; 
stroke:#000000; stroke-width:0.450000; stroke-opacity:1; 
stroke-linecap:round; stroke-linejoin:round;">
<path d="M158.530000 97.880000
L158.530000 99.770000
" />
<path d="M159.940000 96.470000
L158.530000 97.880000
" />
<path d="M159.940000 95.460000
L159.940000 96.470000
" />
<path d="M160.560000 94.840000
L159.940000 95.460000
" />
<path d="M163.157625 94.840000
L160.560000 94.840000
" />
<path d="M156.380000 99.800000
L158.500000 99.800000
" />
<path d="M158.530000 99.770000
L158.530000 102.130000
" />
<path d="M158.500000 99.800000
L158.530000 99.770000
" />
<path d="M170.825002 102.174998
L170.825002 100.625000
" />
<path d="M158.530000 102.130000
L159.250000 102.850000
" />
<path d="M170.150000 102.850000
L170.825002 102.174998
" />
<path d="M159.250000 102.850000
L170.150000 102.850000
" />
</g>
<g style="fill:#000000; fill-opacity:0.0; 
stroke:#000000; stroke-width:0.500000; stroke-opacity:1; 
stroke-linecap:round; stroke-linejoin:round;">
<path d="M153.720000 95.125000
L154.525000 95.125000
" />
<path d="M153.720000 101.875000
L153.720000 99.650000
" />
<path d="M155.392500 100.987500
L156.295000 100.987500
" />
<path d="M155.412500 96.012500
L156.295000 96.012500
" />
<path d="M153.720000 101.875000
L154.505000 101.875000
" />
<path d="M154.525000 95.125000
L155.412500 96.012500
" />
<path d="M153.720000 99.650000
L153.720000 96.950000
" />
<path d="M154.505000 101.875000
L155.392500 100.987500
" />
<path d="M153.720000 96.950000
L153.720000 95.125000
" />
</g>
<g style="fill:#000000; fill-opacity:0.0; 
stroke:#000000; stroke-width:0.750000; stroke-opacity:1; 
stroke-linecap:round; stroke-linejoin:round;">
<path d="M162.715226 100.625000
L165.470002 100.625000
" />
<path d="M168.750000 100.625000
L165.470002 100.625000
" />
<path d="M176.820000 62.850000
L176.820000 63.010000
" />
<path d="M177.890000 61.780000
L176.820000 62.850000
" />
<path d="M177.890000 60.575000
L177.890000 61.780000
" />
<path d="M180.210000 59.430000
L181.090000 59.430000
" />
<path d="M179.710000 59.930000
L180.210000 59.430000
" />
<path d="M179.710000 63.060000
L179.710000 59.930000
" />
<path d="M178.180000 64.590000
L179.710000 63.060000
" />
<path d="M177.100000 64.590000
L178.180000 64.590000
" />
</g>
<g style="fill:#000000; fill-opacity:0.0; 
stroke:#000000; stroke-width:1.000000; stroke-opacity:1; 
stroke-linecap:round; stroke-linejoin:round;">
<path d="M190.540000 85.940000
L190.540000 87.400000
" />
</g>
<g style="fill:#000000; fill-opacity:0.0; 
stroke:#000000; stroke-width:0.750000; stroke-opacity:1; 
stroke-linecap:round; stroke-linejoin:round;">
<path d="M190.750000 98.470000
L190.750000 96.800000
" />
<path d="M190.990000 98.710000
L190.750000 98.470000
" />
<path d="M190.990000 99.900000
L190.990000 98.710000
" />
<path d="M156.090000 85.225000
L158.370000 85.225000
" />
<path d="M157.980000 88.225000
L156.090000 88.225000
" />
</g>
<g style="fill:#000000; fill-opacity:0.0; 
stroke:#000000; stroke-width:0.450000; stroke-opacity:1; 
stroke-linecap:round; stroke-linejoin:round;">
<path d="M163.157625 100.182601
L162.715226 100.625000
" />
<path d="M163.157625 98.650000
L163.157625 100.182601
" />
</g>
<g style="fill:#000000; fill-opacity:0.0; 
stroke:#000000; stroke-width:1.000000; stroke-opacity:1; 
stroke-linecap:round; stroke-linejoin:round;">
<path d="M191.200000 83.750000
L191.967500 84.517500
" />
<path d="M191.967500 84.517500
L192.692500 84.517500
" />
<path d="M191.200000 81.770000
L191.200000 83.750000
" />
<path d="M193.640000 85.465000
L192.692500 84.517500
" />
<path d="M193.640000 87.400000
L193.640000 85.465000
" />
<path d="M189.200000 84.600000
L190.540000 85.940000
" />
<path d="M189.200000 81.770000
L189.200000 84.600000
" />
<path d="M188.450000 90.500000
L188.450000 87.550000
" />
<path d="M188.450000 87.550000
L188.300000 87.400000
" />
</g>
<g style="fill:#000000; fill-opacity:0.0; 
stroke:#000000; stroke-width:0.750000; stroke-opacity:1; 
stroke-linecap:round; stroke-linejoin:round;">
<path d="M185.200000 81.770000
L185.200000 87.400000
" />
<path d="M177.200000 84.830000
L176.040000 85.990000
" />
<path d="M177.200000 81.770000
L177.200000 84.830000
" />
<path d="M176.040000 85.990000
L174.170000 85.990000
" />
<path d="M178.310000 87.750000
L176.690000 87.750000
" />
<path d="M179.200000 86.860000
L178.310000 87.750000
" />
<path d="M179.200000 81.770000
L179.200000 86.860000
" />
<path d="M183.200000 81.770000
L183.200000 85.780000
" />
<path d="M163.135000 88.225000
L157.980000 88.225000
" />
<path d="M177.200000 66.570000
L177.200000 64.690000
" />
<path d="M177.200000 64.690000
L177.100000 64.590000
" />
<path d="M195.595000 61.325000
L195.595000 92.400000
" />
<path d="M193.700000 59.430000
L195.595000 61.325000
" />
<path d="M184.300000 59.430000
L193.700000 59.430000
" />
<path d="M184.300000 61.910000
L184.300000 59.430000
" />
<path d="M181.200000 66.570000
L181.200000 61.910000
" />
<path d="M185.200000 66.570000
L185.200000 63.990000
" />
<path d="M185.200000 63.990000
L187.500000 61.690000
" />
<path d="M187.200000 65.030000
L190.540000 61.690000
" />
<path d="M187.200000 66.570000
L187.200000 65.030000
" />
<path d="M190.790000 63.540000
L193.060000 63.540000
" />
<path d="M189.200000 65.130000
L190.790000 63.540000
" />
<path d="M189.200000 66.570000
L189.200000 65.130000
" />
<path d="M195.585000 66.560000
L195.595000 66.550000
" />
<path d="M195.595000 66.550000
L195.595000 62.600000
" />
<path d="M191.210000 66.560000
L195.585000 66.560000
" />
<path d="M191.200000 66.570000
L191.210000 66.560000
" />
<path d="M164.485000 89.575000
L163.135000 88.225000
" />
<path d="M164.485000 91.957500
L164.485000 89.575000
" />
<path d="M164.487500 91.960000
L164.485000 91.957500
" />
<path d="M165.320000 60.600000
L163.832500 62.087500
" />
<path d="M161.157500 62.087500
L159.600000 60.530000
" />
<path d="M159.600000 60.530000
L157.900000 60.530000
" />
<path d="M170.380000 60.600000
L165.320000 60.600000
" />
<path d="M158.370000 82.080000
L158.370000 85.225000
" />
<path d="M153.830000 64.150000
L153.830000 77.540000
" />
<path d="M153.830000 77.540000
L158.370000 82.080000
" />
<path d="M156.020000 61.960000
L153.830000 64.150000
" />
<path d="M156.020000 59.160000
L156.020000 61.960000
" />
<path d="M156.470000 58.710000
L156.020000 59.160000
" />
<path d="M162.660000 58.710000
L156.470000 58.710000
" />
<path d="M172.810000 59.760000
L171.760000 58.710000
" />
<path d="M172.810000 60.575000
L172.810000 59.760000
" />
<path d="M171.760000 58.710000
L162.660000 58.710000
" />
<path d="M172.310000 96.110000
L168.107625 96.110000
" />
<path d="M193.532500 98.817500
L193.532500 96.167500
" />
<path d="M192.450000 99.900000
L193.532500 98.817500
" />
<path d="M190.990000 99.900000
L192.450000 99.900000
" />
<path d="M193.532500 96.167500
L193.532500 94.950000
" />
</g>
<g style="fill:#000000; fill-opacity:0.0; 
stroke:#000000; stroke-width:1.000000; stroke-opacity:1; 
stroke-linecap:round; stroke-linejoin:round;">
<path d="M193.520000 94.937500
L193.520000 92.400000
" />
</g>
<g style="fill:#000000; fill-opacity:0.0; 
stroke:#000000; stroke-width:0.750000; stroke-opacity:1; 
stroke-linecap:round; stroke-linejoin:round;">
<path d="M190.750000 96.800000
L192.900000 96.800000
" />
<path d="M192.900000 96.800000
L193.532500 96.167500
" />
</g>
<g style="fill:#000000; fill-opacity:0.0; 
stroke:#000000; stroke-width:1.000000; stroke-opacity:1; 
stroke-linecap:round; stroke-linejoin:round;">
<path d="M193.532500 94.950000
L193.520000 94.937500
" />
<path d="M188.450000 101.400000
L189.200000 102.150000
" />
<path d="M189.200000 102.150000
L193.500000 102.150000
" />
<path d="M188.450000 90.500000
L188.450000 96.800000
" />
<path d="M193.500000 102.150000
L195.607500 100.042500
" />
<path d="M195.595000 94.937500
L195.595000 92.400000
" />
<path d="M195.607500 94.950000
L195.595000 94.937500
" />
<path d="M188.450000 96.800000
L188.450000 99.900000
" />
<path d="M195.607500 100.042500
L195.607500 94.950000
" />
<path d="M188.450000 99.900000
L188.450000 101.400000
" />
</g>
<g style="fill:#000000; fill-opacity:0.0; 
stroke:#000000; stroke-width:0.750000; stroke-opacity:1; 
stroke-linecap:round; stroke-linejoin:round;">
<path d="M176.060000 98.238432
L178.135980 98.238432
" />
<path d="M176.055000 95.570000
L178.130980 95.570000
" />
<path d="M180.229020 95.570000
L180.229020 98.233432
" />
<path d="M180.234020 99.587872
L179.196892 100.625000
" />
<path d="M170.260000 98.650000
L170.825002 99.215002
" />
<path d="M180.234020 98.238432
L180.234020 99.587872
" />
<path d="M170.825002 99.215002
L170.825002 100.625000
" />
<path d="M179.196892 100.625000
L170.825002 100.625000
" />
<path d="M180.229020 98.233432
L180.234020 98.238432
" />
<path d="M168.107625 98.650000
L170.260000 98.650000
" />
<path d="M172.320000 97.380000
L168.107625 97.380000
" />
<path d="M174.060000 98.238432
L173.178432 98.238432
" />
<path d="M173.178432 98.238432
L172.320000 97.380000
" />
<path d="M172.850000 95.570000
L172.310000 96.110000
" />
<path d="M174.055000 95.570000
L172.850000 95.570000
" />
</g>
<g >
</g>
<g style="fill:#000000; fill-opacity:0.0; 
stroke:#000000; stroke-width:0.750000; stroke-opacity:1; 
stroke-linecap:round; stroke-linejoin:round;">
<g >
</g>
<g style="fill:#000000; fill-opacity:1.000000; 
stroke:#000000; stroke-width:0.000000; stroke-opacity:1; 
stroke-linecap:round; stroke-linejoin:round;">
<path style="fill:#000000; fill-opacity:1.000000; 
stroke:#000000; stroke-width:0.000000; stroke-opacity:1; 
stroke-linecap:round; stroke-linejoin:round;fill-rule:evenodd;"
d="M 166.233732,99.208174
166.320659,99.242469
166.396371,99.297242
166.448048,99.359347
166.450564,99.364419
166.565375,99.507250
166.581182,99.519956
166.692402,99.609358
166.692405,99.609360
166.708206,99.622061
166.872379,99.703484
167.050217,99.747710
167.066649,99.748824
167.082920,99.751379
167.082694,99.752816
167.173154,99.772855
167.270435,99.828377
167.346913,99.910214
167.395727,100.011027
167.412500,100.121774
167.412500,100.220568
167.416524,100.245975
167.441932,100.250000
168.751000,100.250000
168.866572,100.268305
168.970832,100.321428
169.053572,100.404168
169.106695,100.508428
169.125000,100.624000
169.125000,100.626000
169.106695,100.741572
169.053572,100.845832
168.970832,100.928572
168.866572,100.981695
168.751000,101.000000
167.441932,101.000000
167.416524,101.004024
167.412500,101.029432
167.412500,101.149707
167.413234,101.166263
167.421535,101.259626
167.427998,101.294415
167.443220,101.347613
167.457487,101.461552
167.436513,101.574450
167.382277,101.675662
167.299889,101.755650
167.197118,101.806872
167.083650,101.824500
164.386923,101.824500
164.273455,101.806872
164.170684,101.755650
164.088297,101.675663
164.034060,101.574451
164.013086,101.461554
164.027353,101.347615
164.049726,101.269422
164.056190,101.234626
164.064491,101.141263
164.065226,101.124707
164.065226,101.029432
164.061201,101.004024
164.035794,101.000000
162.714226,101.000000
162.598654,100.981695
162.494394,100.928572
162.411654,100.845832
162.358531,100.741572
162.340226,100.626000
162.340226,100.624000
162.358531,100.508428
162.411654,100.404168
162.494394,100.321428
162.598654,100.268305
162.714226,100.250000
164.035794,100.250000
164.061201,100.245975
164.065226,100.220568
164.065226,100.125293
164.064491,100.108729
164.060180,100.060246
164.064480,99.961676
164.094407,99.867660
164.147878,99.784742
164.221171,99.718692
164.309187,99.674106
164.426609,99.633018
164.464221,99.614905
164.579770,99.542301
164.612403,99.516277
164.708902,99.419778
164.734930,99.387139
164.744747,99.371518
164.804485,99.298728
164.880510,99.243166
164.968004,99.208354
165.061420,99.196500
166.141017,99.196500
Z" /> 
<path style="fill:#000000; fill-opacity:1.000000; 
stroke:#000000; stroke-width:0.000000; stroke-opacity:1; 
stroke-linecap:round; stroke-linejoin:round;fill-rule:evenodd;"
d="M 194.155739,80.401056
194.261923,80.453420
194.346420,80.536351
194.400760,80.641538
194.419500,80.758440
194.419500,85.401000
194.401195,85.516572
194.348072,85.620832
194.265332,85.703572
194.161072,85.756695
194.045500,85.775000
194.044432,85.775000
194.019024,85.779024
194.015000,85.804432
194.015000,88.995568
194.019024,89.020975
194.044432,89.025000
194.045500,89.025000
194.161072,89.043305
194.265332,89.096428
194.348072,89.179168
194.401195,89.283428
194.419500,89.399000
194.419500,90.561082
194.405286,90.663209
194.363725,90.757573
194.297976,90.837002
194.213037,90.895458
194.115363,90.928499
194.012379,90.933613
193.923763,90.925734
193.920664,90.925596
193.899024,90.929024
193.895000,90.954432
193.895000,93.405567
193.902895,93.455414
193.907500,93.513921
193.907500,96.395568
193.911524,96.420975
193.966007,96.429605
193.965792,96.430958
194.035866,96.439202
194.144693,96.490457
194.231620,96.573607
194.287655,96.680051
194.307000,96.798778
194.307000,99.348899
194.294256,99.445697
194.256894,99.535899
194.197458,99.613357
193.228458,100.582357
193.140302,100.647738
193.036964,100.684713
192.927342,100.690098
192.820876,100.663430
192.726737,100.607005
192.653030,100.525682
192.606104,100.426465
192.590000,100.317899
192.590000,100.304432
192.585975,100.279024
192.560568,100.275000
190.989000,100.275000
190.873428,100.256695
190.769168,100.203572
190.686428,100.120832
190.633305,100.016572
190.615000,99.901000
190.615000,98.605286
190.617230,98.590104
190.581214,98.577954
190.579214,98.576935
190.495133,98.518335
190.430115,98.439113
190.389042,98.345216
190.377241,98.259895
191.122769,98.259895
191.158786,98.272046
191.160786,98.273065
191.244867,98.331665
191.309885,98.410887
191.350958,98.504784
191.365000,98.606305
191.365000,99.495568
191.369024,99.520975
191.394432,99.525000
192.560567,99.525000
192.585974,99.520975
192.589999,99.495568
192.589999,99.009546
192.589031,98.990550
192.581580,98.917614
192.573083,98.877921
192.531209,98.751555
192.512922,98.712337
192.443753,98.600197
192.416914,98.566253
192.308344,98.457683
192.309183,98.456843
192.248298,98.391363
192.199458,98.288587
192.183785,98.175880
192.202729,98.063677
192.233085,97.972070
192.241581,97.932384
192.249032,97.859448
192.250000,97.840464
192.250000,97.204432
192.245975,97.179024
192.220568,97.175000
191.154432,97.175000
191.129024,97.179024
191.125000,97.204432
191.125000,98.244714
191.122769,98.259895
190.377241,98.259895
190.375000,98.243695
190.375000,96.395568
191.125000,96.395568
191.129024,96.420975
191.154432,96.425000
192.220567,96.425000
192.247800,96.420686
192.285304,96.383182
192.290742,96.375713
192.386224,96.306774
192.498409,96.270944
192.616175,96.271776
192.727843,96.309187
192.805324,96.349660
192.840372,96.363659
193.000580,96.409501
193.035373,96.415964
193.128736,96.424265
193.131835,96.424403
193.153475,96.420975
193.157500,96.395568
193.157500,93.944433
193.149605,93.894586
193.145000,93.836079
193.145000,92.804432
193.140975,92.779024
193.115568,92.775000
192.211932,92.775000
192.186524,92.779024
192.182500,92.804432
192.182500,92.924707
192.183234,92.941263
192.191535,93.034626
192.197998,93.069419
192.243840,93.229627
192.257839,93.264675
192.334441,93.411322
192.355208,93.442831
192.358050,93.446317
192.364733,93.457285
192.365647,93.458671
192.365597,93.458703
192.411123,93.533412
192.438693,93.631606
192.438711,93.733598
192.411173,93.831802
192.375848,93.889814
192.378147,93.891329
192.346941,93.938677
192.270339,94.085324
192.256340,94.120372
192.210498,94.280580
192.204035,94.315373
192.195734,94.408736
192.195000,94.425293
192.195000,94.722266
192.176583,94.838183
192.123145,94.942684
192.039950,95.025477
191.935191,95.078407
191.819186,95.096262
191.703360,95.077283
191.672071,95.066915
191.632384,95.058418
191.559448,95.050967
191.540464,95.050000
191.154432,95.050000
191.129024,95.054024
191.125000,95.079432
191.125000,96.395568
190.375000,96.395568
190.375000,95.079433
190.370975,95.054025
190.345568,95.050001
190.124500,95.050001
190.008928,95.031696
189.904668,94.978573
189.821928,94.895833
189.768805,94.791573
189.750500,94.676001
189.750500,92.674500
189.768805,92.558928
189.821928,92.454668
189.904668,92.371928
190.008928,92.318805
190.124500,92.300500
190.384466,92.300500
190.394954,92.300500
190.529255,92.285368
190.699522,92.225789
190.852262,92.129816
190.979816,92.002262
190.984022,91.995568
192.182500,91.995568
192.186524,92.020975
192.211932,92.025000
193.115568,92.025000
193.140975,92.020975
193.145000,91.995568
193.145000,90.954432
193.140975,90.929024
193.119335,90.925596
193.116236,90.925734
193.022873,90.934035
192.988080,90.940498
192.827872,90.986340
192.792824,91.000339
192.646177,91.076941
192.614673,91.097704
192.486443,91.202263
192.459763,91.228943
192.355204,91.357173
192.334441,91.388677
192.257839,91.535324
192.243840,91.570372
192.197998,91.730580
192.191535,91.765373
192.183234,91.858736
192.182500,91.875293
192.182500,91.995568
190.984022,91.995568
191.075789,91.849522
191.135368,91.679255
191.150500,91.544954
191.150500,89.455046
191.141469,89.374897
191.147364,89.254919
191.190995,89.142991
191.267861,89.050670
191.345310,89.002769
191.343954,89.000232
191.473069,88.931218
191.526450,88.902685
191.686410,88.771410
191.817685,88.611450
191.817901,88.611044
191.888850,88.534080
191.989825,88.476983
192.103437,88.453572
192.218758,88.466098
192.324694,88.513357
192.411054,88.590802
192.517263,88.721056
192.543943,88.747736
192.672173,88.852295
192.703677,88.873058
192.850324,88.949660
192.885372,88.963659
193.045580,89.009501
193.080373,89.015964
193.173736,89.024265
193.190293,89.025000
193.235568,89.025000
193.260975,89.020975
193.265000,88.995568
193.265000,85.804432
193.260975,85.779024
193.235568,85.775000
193.190293,85.775000
193.173736,85.775734
193.080373,85.784035
193.045580,85.790498
192.885372,85.836340
192.850324,85.850339
192.703677,85.926941
192.672173,85.947704
192.543943,86.052263
192.517257,86.078949
192.504355,86.094773
192.419319,86.171356
192.315106,86.218640
192.201473,86.232198
192.089061,86.210761
191.988393,86.156336
191.908895,86.074019
191.858009,85.971516
191.840501,85.858425
191.840501,85.842552
191.840501,85.826221
191.833438,85.786164
191.829178,85.753807
191.827059,85.729583
191.827058,85.729581
191.825635,85.713308
191.815110,85.674032
191.808047,85.642170
191.803821,85.618203
191.803820,85.618200
191.800985,85.602120
191.787076,85.563905
191.777263,85.532782
191.776964,85.531669
191.766739,85.493504
191.749546,85.456636
191.737066,85.426505
191.723156,85.388285
191.702821,85.353065
191.687754,85.324121
191.677469,85.302065
191.677468,85.302063
191.670568,85.287266
191.661201,85.273889
191.661199,85.273885
191.647245,85.253956
191.629712,85.226435
191.617543,85.205358
191.617542,85.205357
191.609377,85.191214
191.583231,85.160055
191.563374,85.134176
191.549412,85.114236
191.540047,85.100861
191.379139,84.939953
191.379135,84.939950
190.777618,84.338432
190.708829,84.243747
190.672674,84.132437
190.672691,84.015402
190.708880,83.904102
190.777698,83.809438
190.782633,83.805854
190.820686,83.767801
190.825000,83.740568
190.825000,83.740567
191.575000,83.740567
191.579024,83.765974
191.604432,83.769999
191.740454,83.769999
191.759449,83.769031
191.832385,83.761580
191.872078,83.753083
191.998444,83.711209
192.037662,83.692922
192.149802,83.623753
192.183746,83.596914
192.276914,83.503746
192.303753,83.469802
192.372922,83.357662
192.391209,83.318444
192.433083,83.192077
192.441581,83.152384
192.449032,83.079448
192.450000,83.060464
192.450000,82.174432
192.445975,82.149024
192.420568,82.145000
191.604432,82.145000
191.579024,82.149024
191.575000,82.174432
191.575000,83.740567
190.825000,83.740567
190.825000,81.769000
190.843305,81.653428
190.896428,81.549168
190.979168,81.466428
191.083428,81.413305
191.199000,81.395000
192.420567,81.395000
192.445974,81.390975
192.449999,81.365568
192.449999,80.844500
192.468304,80.728928
192.521427,80.624668
192.604167,80.541928
192.708427,80.488805
192.823999,80.470500
193.634466,80.470500
193.644954,80.470500
193.779255,80.455368
193.921980,80.405426
194.038507,80.384505
Z" /> 
<path style="fill:#000000; fill-opacity:1.000000; 
stroke:#000000; stroke-width:0.000000; stroke-opacity:1; 
stroke-linecap:round; stroke-linejoin:round;fill-rule:evenodd;"
d="M 162.589974,89.413244
162.680176,89.450606
162.757634,89.510042
163.095139,89.847547
163.161491,89.937531
163.198280,90.043107
163.202220,90.154840
163.172958,90.262745
163.113109,90.357179
163.028022,90.429704
162.925300,90.473838
162.814122,90.485638
162.813170,90.485595
162.791524,90.489024
162.787500,90.514432
162.787500,91.961000
162.769195,92.076572
162.716072,92.180832
162.633332,92.263572
162.529072,92.316695
162.413500,92.335000
161.104432,92.335000
161.079024,92.339024
161.075000,92.364432
161.075000,92.484707
161.075734,92.501263
161.084035,92.594626
161.090498,92.629419
161.136340,92.789627
161.150339,92.824675
161.226941,92.971322
161.247704,93.002826
161.352263,93.131056
161.392357,93.171150
161.390438,93.173068
161.446822,93.235671
161.494111,93.339884
161.507672,93.453518
161.486238,93.565933
161.431814,93.666604
161.349496,93.746104
161.246992,93.796991
161.133899,93.814500
160.628752,93.814500
160.592095,93.812699
160.560000,93.809538
160.541714,93.811339
160.377251,93.827537
160.377250,93.827537
160.358966,93.829338
160.341386,93.834670
160.341385,93.834671
160.231109,93.868123
160.183237,93.882644
160.183229,93.882646
160.165659,93.887977
160.149461,93.896634
160.149456,93.896637
160.003712,93.974539
160.003706,93.974542
159.987506,93.983202
159.973305,93.994855
159.973301,93.994859
159.845556,94.099696
159.845550,94.099701
159.831353,94.111353
159.819699,94.125552
159.819697,94.125555
159.810889,94.136288
159.786248,94.163474
159.263474,94.686248
159.236288,94.710889
159.225555,94.719697
159.225552,94.719699
159.211353,94.731353
159.199700,94.745551
159.199696,94.745556
159.102374,94.864143
159.102372,94.864145
159.083201,94.887506
159.083202,94.887506
159.066170,94.919369
159.066167,94.919374
158.996637,95.049456
158.996634,95.049461
158.987977,95.065659
158.982646,95.083229
158.982644,95.083237
158.951765,95.185034
158.929338,95.258967
158.909538,95.460000
158.911339,95.478285
158.912699,95.492093
158.914500,95.528752
158.914500,95.890308
158.901756,95.987106
158.864394,96.077308
158.804958,96.154766
158.508958,96.450766
158.420802,96.516147
158.317464,96.553122
158.207842,96.558507
158.101376,96.531839
158.007237,96.475414
157.933530,96.394091
157.886604,96.294874
157.870500,96.186308
157.870500,95.265534
157.870500,95.255046
157.855368,95.120745
157.818237,95.014632
157.802728,94.970308
157.802727,94.970306
157.795789,94.950478
157.699816,94.797738
157.572262,94.670184
157.465674,94.603210
157.437309,94.585387
157.437306,94.585385
157.419522,94.574211
157.399697,94.567274
157.399691,94.567271
157.269081,94.521569
157.269077,94.521568
157.249255,94.514632
157.228381,94.512280
157.125379,94.500674
157.125368,94.500673
157.114954,94.499500
155.544688,94.499500
155.447890,94.486756
155.357688,94.449394
155.281605,94.391013
155.271410,94.378590
155.262495,94.371274
155.214015,94.310481
155.177678,94.235022
155.159044,94.153376
155.155368,94.120745
155.107240,93.983202
155.102728,93.970308
155.102727,93.970306
155.095789,93.950478
154.999816,93.797738
154.872262,93.670184
154.854479,93.659010
154.737309,93.585387
154.737306,93.585385
154.719522,93.574211
154.699697,93.567274
154.699691,93.567271
154.569081,93.521569
154.569077,93.521568
154.549255,93.514632
154.528381,93.512280
154.425379,93.500674
154.425368,93.500673
154.414954,93.499500
153.025046,93.499500
153.014632,93.500673
153.014620,93.500674
152.911618,93.512280
152.911616,93.512280
152.890745,93.514632
152.870924,93.521567
152.870918,93.521569
152.740308,93.567271
152.740299,93.567275
152.720478,93.574211
152.702696,93.585383
152.702690,93.585387
152.585520,93.659010
152.585515,93.659013
152.567738,93.670184
152.552891,93.685030
152.552887,93.685034
152.455034,93.782887
152.455030,93.782891
152.440184,93.797738
152.429013,93.815515
152.429010,93.815520
152.366175,93.915523
152.286763,94.005649
152.182877,94.065952
152.065232,94.090212
151.945964,94.075926
151.837376,94.024568
151.750670,93.941436
151.694790,93.835104
151.675500,93.716543
151.675500,92.807264
151.691159,92.700177
151.736825,92.602057
151.808673,92.521120
151.900688,92.464145
152.005163,92.435901
152.113352,92.438755
152.216193,92.472466
152.244007,92.486316
152.259251,92.494351
152.323157,92.529947
152.339556,92.535443
152.348734,92.539496
152.358063,92.543110
152.373541,92.550817
152.443888,92.570832
152.460348,92.575929
152.529715,92.599179
152.546842,92.601567
152.556568,92.603855
152.566436,92.605699
152.583077,92.610435
152.655904,92.617183
152.672994,92.619165
152.745478,92.629277
152.818537,92.625898
152.835811,92.625500
157.224188,92.625500
157.241462,92.625899
157.314521,92.629277
157.386968,92.619170
157.404101,92.617182
157.453614,92.612594
157.459699,92.612031
157.459699,92.612030
157.476923,92.610435
157.493568,92.605698
157.503418,92.603857
157.513144,92.601569
157.530284,92.599179
157.599633,92.575934
157.616126,92.570828
157.616137,92.570825
157.686459,92.550817
157.701946,92.543104
157.711281,92.539488
157.720441,92.535443
157.736843,92.529947
157.800769,92.494339
157.815954,92.486334
157.881472,92.453712
157.895281,92.443283
157.903798,92.438010
157.912051,92.432356
157.927164,92.423939
157.983460,92.377190
157.996924,92.366525
158.055322,92.322427
158.104598,92.268372
158.116507,92.255899
158.785899,91.586507
158.798378,91.574593
158.803009,91.570372
158.819248,91.555568
161.075000,91.555568
161.079024,91.580975
161.104432,91.585000
162.008068,91.585000
162.033475,91.580975
162.037500,91.555568
162.037500,90.514432
162.033475,90.489024
162.011835,90.485596
162.008736,90.485734
161.915373,90.494035
161.880580,90.500498
161.720372,90.546340
161.685324,90.560339
161.538677,90.636941
161.507173,90.657704
161.378943,90.762263
161.352263,90.788943
161.247704,90.917173
161.226941,90.948677
161.150339,91.095324
161.136340,91.130372
161.090498,91.290580
161.084035,91.325373
161.075734,91.418736
161.075000,91.435293
161.075000,91.555568
158.819248,91.555568
158.852427,91.525322
158.896525,91.466924
158.907190,91.453460
158.953939,91.397164
158.962356,91.382051
158.968010,91.373798
158.973283,91.365281
158.983712,91.351472
159.016334,91.285954
159.024339,91.270769
159.059947,91.206843
159.065443,91.190441
159.069488,91.181281
159.073104,91.171946
159.080817,91.156459
159.100828,91.086122
159.105940,91.069617
159.112420,91.050284
159.129179,91.000284
159.131569,90.983144
159.133857,90.973418
159.135698,90.963568
159.140435,90.946923
159.142094,90.929024
159.144917,90.898550
159.147182,90.874101
159.149170,90.856968
159.159277,90.784521
159.155898,90.711461
159.155500,90.694188
159.155500,89.774500
159.173805,89.658928
159.226928,89.554668
159.309668,89.471928
159.413928,89.418805
159.529500,89.400500
162.493176,89.400500
Z" /> 
<path style="fill:#000000; fill-opacity:1.000000; 
stroke:#000000; stroke-width:0.000000; stroke-opacity:1; 
stroke-linecap:round; stroke-linejoin:round;fill-rule:evenodd;"
d="M 160.628572,59.903805
160.732832,59.956928
160.815572,60.039668
160.868695,60.143928
160.887000,60.259500
160.887000,60.401608
160.887898,60.410735
160.887899,60.410736
160.900398,60.537645
160.900399,60.537651
160.902200,60.555934
160.907532,60.573514
160.907534,60.573520
160.950464,60.715042
160.962268,60.753954
160.970928,60.770156
160.970930,60.770160
161.054875,60.927208
161.093847,61.041419
161.094420,61.162095
161.056537,61.276671
161.012838,61.360328
160.998840,61.395372
160.952998,61.555580
160.946535,61.590373
160.938234,61.683736
160.938096,61.686835
160.941524,61.708475
160.966932,61.712500
163.858068,61.712500
163.883475,61.708475
163.886903,61.686835
163.886765,61.683736
163.878464,61.590373
163.872001,61.555580
163.826159,61.395372
163.812160,61.360325
163.768464,61.276674
163.730579,61.162096
163.731152,61.041419
163.770125,60.927208
163.862732,60.753954
163.922800,60.555934
163.938000,60.401608
163.938000,60.259500
163.956305,60.143928
164.009428,60.039668
164.092168,59.956928
164.196428,59.903805
164.312000,59.885500
168.194834,59.885500
168.294332,59.898978
168.386658,59.938440
168.465159,60.001043
168.524177,60.082273
168.559457,60.176277
168.564025,60.196293
168.588617,60.200000
170.271000,60.200000
170.386572,60.218305
170.490832,60.271428
170.573572,60.354168
170.626695,60.458428
170.645000,60.574000
170.645000,60.576000
170.626695,60.691572
170.573572,60.795832
170.490832,60.878572
170.386572,60.931695
170.271000,60.950000
168.588617,60.950000
168.565042,60.953553
168.566823,60.977322
168.589944,61.078620
168.598173,61.105300
168.668254,61.283864
168.693642,61.401859
168.680128,61.521795
168.629120,61.631182
168.545929,61.718628
168.439221,61.775025
168.320107,61.794500
166.835812,61.794500
166.818538,61.794101
166.762749,61.791521
166.762743,61.791521
166.745479,61.790723
166.728362,61.793110
166.728353,61.793111
166.673026,61.800829
166.655871,61.802819
166.600294,61.807969
166.600288,61.807969
166.583077,61.809565
166.566457,61.814293
166.556588,61.816138
166.546829,61.818433
166.529716,61.820821
166.513325,61.826314
166.513323,61.826315
166.460381,61.844059
166.443887,61.849166
166.390174,61.864449
166.390161,61.864453
166.373541,61.869183
166.358072,61.876885
166.348742,61.880500
166.339552,61.884557
166.323157,61.890053
166.259258,61.925644
166.244005,61.933683
166.194011,61.958577
166.193999,61.958583
166.178528,61.966288
166.164736,61.976702
166.156204,61.981985
166.147928,61.987653
166.132836,61.996061
166.119547,62.007095
166.119532,62.007106
166.076561,62.042789
166.063037,62.053501
166.004678,62.097573
165.993028,62.110351
165.993027,62.110353
165.955413,62.151613
165.943486,62.164104
162.024104,66.083486
162.011613,66.095413
161.957573,66.144678
161.947153,66.158475
161.947153,66.158476
161.913511,66.203025
161.902789,66.216561
161.867106,66.259532
161.867095,66.259547
161.856061,66.272836
161.847653,66.287928
161.841985,66.296204
161.836702,66.304736
161.826288,66.318528
161.818583,66.333999
161.818577,66.334011
161.793683,66.384005
161.785644,66.399258
161.750053,66.463157
161.744557,66.479552
161.740500,66.488742
161.736885,66.498072
161.729183,66.513541
161.724453,66.530161
161.724449,66.530174
161.709166,66.583887
161.704059,66.600381
161.680821,66.669716
161.678433,66.686829
161.676138,66.696588
161.674293,66.706457
161.669565,66.723077
161.667969,66.740288
161.667969,66.740294
161.662819,66.795871
161.660829,66.813026
161.653111,66.868353
161.653110,66.868362
161.650723,66.885479
161.651521,66.902743
161.651521,66.902749
161.654101,66.958538
161.654500,66.975812
161.654500,69.834188
161.654101,69.851462
161.651521,69.907250
161.651521,69.907256
161.650723,69.924521
161.653110,69.941637
161.653111,69.941646
161.660829,69.996975
161.662819,70.014129
161.669565,70.086923
161.674292,70.103539
161.676135,70.113397
161.678433,70.123168
161.680821,70.140284
161.686312,70.156669
161.686315,70.156679
161.704064,70.209635
161.709171,70.226128
161.724448,70.279821
161.724451,70.279830
161.729183,70.296459
161.736891,70.311939
161.740517,70.321297
161.744559,70.330452
161.750053,70.346843
161.758464,70.361944
161.758467,70.361950
161.785628,70.410713
161.793683,70.425995
161.818574,70.475983
161.818581,70.475994
161.826288,70.491472
161.836708,70.505271
161.841988,70.513798
161.847648,70.522060
161.856061,70.537164
161.902777,70.593422
161.913492,70.606950
161.957573,70.665322
161.970346,70.676966
162.011622,70.714594
162.024118,70.726526
163.073483,71.775891
163.085414,71.788387
163.134678,71.842427
163.148473,71.852844
163.148478,71.852849
163.193048,71.886507
163.206567,71.897214
163.262836,71.943939
163.277944,71.952354
163.286218,71.958022
163.294729,71.963291
163.308528,71.973712
163.374030,72.006327
163.389251,72.014351
163.453157,72.049947
163.469555,72.055442
163.478699,72.059480
163.488049,72.063102
163.503541,72.070817
163.573866,72.090826
163.590370,72.095936
163.659716,72.119179
163.676858,72.121569
163.686601,72.123861
163.696433,72.125699
163.713077,72.130435
163.785893,72.137182
163.803025,72.139169
163.875479,72.149277
163.948537,72.145899
163.965812,72.145500
165.218176,72.145500
165.314974,72.158244
165.405176,72.195606
165.482634,72.255042
166.384958,73.157366
166.444394,73.234824
166.481756,73.325026
166.494500,73.421824
166.494500,73.455500
166.476195,73.571072
166.423072,73.675332
166.340332,73.758072
166.236072,73.811195
166.120500,73.829500
164.415046,73.829500
164.404632,73.830673
164.404620,73.830674
164.301618,73.842280
164.301616,73.842280
164.280745,73.844632
164.260924,73.851567
164.260918,73.851569
164.130308,73.897271
164.130299,73.897275
164.110478,73.904211
164.092696,73.915383
164.092690,73.915387
163.975520,73.989010
163.975515,73.989013
163.957738,74.000184
163.942891,74.015030
163.942887,74.015034
163.845034,74.112887
163.845030,74.112891
163.830184,74.127738
163.819013,74.145515
163.819010,74.145520
163.745387,74.262690
163.745383,74.262696
163.734211,74.280478
163.727275,74.300299
163.727271,74.300308
163.681569,74.430918
163.681567,74.430924
163.674632,74.450745
163.672280,74.471616
163.672280,74.471618
163.660674,74.574620
163.660673,74.574632
163.659500,74.585046
163.659500,76.274954
163.660673,76.285368
163.660674,76.285379
163.664629,76.320478
163.674632,76.409255
163.681568,76.429077
163.681569,76.429081
163.727271,76.559691
163.727274,76.559697
163.734211,76.579522
163.745385,76.597306
163.745387,76.597309
163.819010,76.714479
163.830184,76.732262
163.957738,76.859816
164.110478,76.955789
164.130309,76.962728
164.149224,76.971837
164.148396,76.973555
164.225393,77.014712
164.305520,77.097118
164.356838,77.199966
164.374500,77.313541
164.374500,83.454188
164.374101,83.471462
164.371521,83.527250
164.371521,83.527256
164.370723,83.544521
164.373110,83.561637
164.373111,83.561646
164.380829,83.616975
164.382817,83.634106
164.383453,83.640964
164.378687,83.744200
164.345850,83.842190
164.287450,83.927452
164.207944,83.993476
164.113405,84.035222
164.011051,84.049500
159.919500,84.049500
159.803928,84.031195
159.699668,83.978072
159.616928,83.895332
159.563805,83.791072
159.545500,83.675500
159.545500,82.115818
159.545899,82.098546
159.548478,82.042751
159.549277,82.025479
159.539169,81.953025
159.537181,81.935884
159.532030,81.880296
159.530435,81.863077
159.525699,81.846432
159.523860,81.836596
159.521569,81.826855
159.519179,81.809716
159.495938,81.740373
159.490828,81.723871
159.475548,81.670167
159.475546,81.670162
159.470817,81.653541
159.463110,81.638064
159.459485,81.628707
159.455442,81.619552
159.449948,81.603157
159.414358,81.539262
159.406307,81.523989
159.373712,81.458528
159.363286,81.444722
159.358020,81.436217
159.352354,81.427945
159.343939,81.412837
159.332893,81.399535
159.332890,81.399530
159.297231,81.356588
159.286517,81.343063
159.242427,81.284678
159.188387,81.235414
159.175891,81.223483
155.570866,77.618458
155.505485,77.530302
155.468510,77.426964
155.463125,77.317342
155.489793,77.210876
155.546218,77.116737
155.627541,77.043030
155.726758,76.996104
155.835324,76.980000
155.965568,76.980000
155.990975,76.975975
155.995000,76.950568
155.995000,76.950567
156.745000,76.950567
156.749024,76.975974
156.774432,76.979999
157.500454,76.979999
157.519449,76.979031
157.592385,76.971580
157.632078,76.963083
157.758444,76.921209
157.797662,76.902922
157.909802,76.833753
157.943746,76.806914
158.036914,76.713746
158.063753,76.679802
158.132922,76.567662
158.151209,76.528444
158.193083,76.402077
158.201581,76.362384
158.209032,76.289448
158.210000,76.270464
158.210000,75.834432
158.205975,75.809024
158.180568,75.805000
156.774432,75.805000
156.749024,75.809024
156.745000,75.834432
156.745000,76.950567
155.995000,76.950567
155.995000,75.025568
156.745000,75.025568
156.749024,75.050975
156.774432,75.055000
158.180567,75.055000
158.205974,75.050975
158.209999,75.025568
158.209999,74.589546
158.209031,74.570550
158.201580,74.497614
158.193083,74.457921
158.151209,74.331555
158.132922,74.292337
158.063753,74.180197
158.036914,74.146253
157.943746,74.053085
157.909802,74.026246
157.797662,73.957077
157.758444,73.938790
157.632077,73.896916
157.592384,73.888418
157.519448,73.880967
157.500464,73.880000
156.774432,73.880000
156.749024,73.884024
156.745000,73.909432
156.745000,75.025568
155.995000,75.025568
155.995000,73.909433
155.990975,73.884025
155.965568,73.880001
155.379500,73.880001
155.263928,73.861696
155.159668,73.808573
155.076928,73.725833
155.023805,73.621573
155.005500,73.506001
155.005500,69.864000
155.023805,69.748428
155.076928,69.644168
155.159668,69.561428
155.263928,69.508305
155.379500,69.490000
155.965568,69.490000
155.990975,69.485975
155.995000,69.460568
155.995000,69.460567
156.745000,69.460567
156.749024,69.485974
156.774432,69.489999
157.500454,69.489999
157.519449,69.489031
157.592385,69.481580
157.632078,69.473083
157.758444,69.431209
157.797662,69.412922
157.909802,69.343753
157.943746,69.316914
158.036914,69.223746
158.063753,69.189802
158.132922,69.077662
158.151209,69.038444
158.193083,68.912077
158.201581,68.872384
158.209032,68.799448
158.210000,68.780464
158.210000,68.344432
158.205975,68.319024
158.180568,68.315000
156.774432,68.315000
156.749024,68.319024
156.745000,68.344432
156.745000,69.460567
155.995000,69.460567
155.995000,67.535568
156.745000,67.535568
156.749024,67.560975
156.774432,67.565000
158.180567,67.565000
158.205974,67.560975
158.209999,67.535568
158.209999,67.099546
158.209031,67.080550
158.201580,67.007614
158.193083,66.967921
158.151209,66.841555
158.132922,66.802337
158.063753,66.690197
158.036914,66.656253
157.943746,66.563085
157.909802,66.536246
157.797662,66.467077
157.758444,66.448790
157.632077,66.406916
157.592384,66.398418
157.519448,66.390967
157.500464,66.390000
156.774432,66.390000
156.749024,66.394024
156.745000,66.419432
156.745000,67.535568
155.995000,67.535568
155.995000,66.419433
155.990975,66.394025
155.965568,66.390001
155.379500,66.390001
155.263928,66.371696
155.159668,66.318573
155.076928,66.235833
155.023805,66.131573
155.005500,66.016001
155.005500,64.791824
155.018244,64.695026
155.055606,64.604824
155.115042,64.527366
155.496908,64.145500
156.825899,62.816507
156.838378,62.804593
156.879643,62.766976
156.879643,62.766975
156.892427,62.755322
156.936525,62.696924
156.947190,62.683460
156.993939,62.627164
157.002356,62.612051
157.008010,62.603798
157.013283,62.595281
157.023712,62.581472
157.056334,62.515954
157.064347,62.500755
157.071360,62.488164
160.938096,62.488164
160.938234,62.491263
160.946535,62.584626
160.952998,62.619419
160.998840,62.779627
161.012839,62.814675
161.089441,62.961322
161.110204,62.992826
161.214763,63.121056
161.241443,63.147736
161.369673,63.252295
161.401177,63.273058
161.547824,63.349660
161.582872,63.363659
161.743080,63.409501
161.777873,63.415964
161.871236,63.424265
161.887793,63.425000
162.008068,63.425000
162.033475,63.420975
162.037500,63.395568
162.787500,63.395568
162.791524,63.420975
162.816932,63.425000
162.937207,63.425000
162.953763,63.424265
163.047126,63.415964
163.081919,63.409501
163.242127,63.363659
163.277175,63.349660
163.423822,63.273058
163.455326,63.252295
163.583556,63.147736
163.610236,63.121056
163.714795,62.992826
163.735558,62.961322
163.812160,62.814675
163.826159,62.779627
163.872001,62.619419
163.878464,62.584626
163.886765,62.491263
163.886903,62.488164
163.883475,62.466524
163.858068,62.462500
162.816932,62.462500
162.791524,62.466524
162.787500,62.491932
162.787500,63.395568
162.037500,63.395568
162.037500,62.491932
162.033475,62.466524
162.008068,62.462500
160.966932,62.462500
160.941524,62.466524
160.938096,62.488164
157.071360,62.488164
157.080365,62.471997
157.139606,62.392607
157.217611,62.331552
157.308908,62.293118
157.407093,62.280000
157.495568,62.280000
157.520975,62.275975
157.525000,62.250568
158.275000,62.250568
158.279024,62.275975
158.304432,62.280000
158.630526,62.280000
158.648827,62.279100
158.777501,62.266427
158.813366,62.259293
158.978490,62.209204
159.012271,62.195211
159.164445,62.113872
159.194853,62.093554
159.328232,61.984092
159.354092,61.958232
159.463554,61.824853
159.483872,61.794445
159.565211,61.642271
159.579204,61.608490
159.629293,61.443366
159.636427,61.407501
159.649100,61.278827
159.650000,61.260526
159.650000,60.934432
159.645975,60.909024
159.620568,60.905000
158.304432,60.905000
158.279024,60.909024
158.275000,60.934432
158.275000,62.250568
157.525000,62.250568
157.525000,60.529000
157.543305,60.413428
157.596428,60.309168
157.679168,60.226428
157.783428,60.173305
157.899000,60.155000
159.620568,60.155000
159.646961,60.150819
159.663438,60.118481
159.669048,60.100250
159.726912,60.012164
159.807054,59.943719
159.903109,59.900349
160.007449,59.885500
160.513000,59.885500
Z" /> 
</g>
</g>
</g>
<g style="fill:#FFFFFF; fill-opacity:1.000000; 
stroke:#FFFFFF; stroke-width:0.000000; stroke-opacity:1; 
stroke-linecap:round; stroke-linejoin:round;">
<circle cx="176.820000" cy="63.010000" r="0.175000" /> 
</g>
<g style="fill:#FFFFFF; fill-opacity:1.000000; 
stroke:#FFFFFF; stroke-width:0.021200; stroke-opacity:1; 
stroke-linecap:round; stroke-linejoin:round;">
</g>
<g style="fill:#FFFFFF; fill-opacity:1.000000; 
stroke:#FFFFFF; stroke-width:0.000000; stroke-opacity:1; 
stroke-linecap:round; stroke-linejoin:round;">
<circle cx="160.180000" cy="90.410000" r="0.175000" /> 
</g>
<g style="fill:#FFFFFF; fill-opacity:1.000000; 
stroke:#FFFFFF; stroke-width:0.021200; stroke-opacity:1; 
stroke-linecap:round; stroke-linejoin:round;">
</g>
<g style="fill:#FFFFFF; fill-opacity:1.000000; 
stroke:#FFFFFF; stroke-width:0.000000; stroke-opacity:1; 
stroke-linecap:round; stroke-linejoin:round;">
<circle cx="165.469998" cy="100.625000" r="0.175000" /> 
</g>
<g style="fill:#FFFFFF; fill-opacity:1.000000; 
stroke:#FFFFFF; stroke-width:0.021200; stroke-opacity:1; 
stroke-linecap:round; stroke-linejoin:round;">
</g>
<g style="fill:#FFFFFF; fill-opacity:1.000000; 
stroke:#FFFFFF; stroke-width:0.000000; stroke-opacity:1; 
stroke-linecap:round; stroke-linejoin:round;">
<circle cx="187.500000" cy="61.690000" r="0.175000" /> 
</g>
<g style="fill:#FFFFFF; fill-opacity:1.000000; 
stroke:#FFFFFF; stroke-width:0.021200; stroke-opacity:1; 
stroke-linecap:round; stroke-linejoin:round;">
</g>
<g style="fill:#FFFFFF; fill-opacity:1.000000; 
stroke:#FFFFFF; stroke-width:0.000000; stroke-opacity:1; 
stroke-linecap:round; stroke-linejoin:round;">
<circle cx="190.540000" cy="61.690000" r="0.175000" /> 
</g>
<g style="fill:#FFFFFF; fill-opacity:1.000000; 
stroke:#FFFFFF; stroke-width:0.021200; stroke-opacity:1; 
stroke-linecap:round; stroke-linejoin:round;">
</g>
<g style="fill:#FFFFFF; fill-opacity:1.000000; 
stroke:#FFFFFF; stroke-width:0.000000; stroke-opacity:1; 
stroke-linecap:round; stroke-linejoin:round;">
<circle cx="193.060000" cy="63.540000" r="0.175000" /> 
</g>
<g style="fill:#FFFFFF; fill-opacity:1.000000; 
stroke:#FFFFFF; stroke-width:0.021200; stroke-opacity:1; 
stroke-linecap:round; stroke-linejoin:round;">
</g>
<g style="fill:#FFFFFF; fill-opacity:1.000000; 
stroke:#FFFFFF; stroke-width:0.000000; stroke-opacity:1; 
stroke-linecap:round; stroke-linejoin:round;">
<circle cx="183.200000" cy="85.780000" r="0.175000" /> 
</g>
<g style="fill:#FFFFFF; fill-opacity:1.000000; 
stroke:#FFFFFF; stroke-width:0.021200; stroke-opacity:1; 
stroke-linecap:round; stroke-linejoin:round;">
</g>
<g style="fill:#FFFFFF; fill-opacity:1.000000; 
stroke:#FFFFFF; stroke-width:0.000000; stroke-opacity:1; 
stroke-linecap:round; stroke-linejoin:round;">
<circle cx="176.690000" cy="87.750000" r="0.175000" /> 
</g>
<g style="fill:#FFFFFF; fill-opacity:1.000000; 
stroke:#FFFFFF; stroke-width:0.021200; stroke-opacity:1; 
stroke-linecap:round; stroke-linejoin:round;">
</g>
<g style="fill:#FFFFFF; fill-opacity:1.000000; 
stroke:#FFFFFF; stroke-width:0.000000; stroke-opacity:1; 
stroke-linecap:round; stroke-linejoin:round;">
<circle cx="174.170000" cy="85.990000" r="0.175000" /> 
</g>
<g style="fill:#FFFFFF; fill-opacity:1.000000; 
stroke:#FFFFFF; stroke-width:0.021200; stroke-opacity:1; 
stroke-linecap:round; stroke-linejoin:round;">
</g>
<g style="fill:#FFFFFF; fill-opacity:1.000000; 
stroke:#FFFFFF; stroke-width:0.000000; stroke-opacity:1; 
stroke-linecap:round; stroke-linejoin:round;">
<circle cx="170.270000" cy="60.575000" r="0.175000" /> 
</g>
<g style="fill:#FFFFFF; fill-opacity:1.000000; 
stroke:#FFFFFF; stroke-width:0.021200; stroke-opacity:1; 
stroke-linecap:round; stroke-linejoin:round;">
</g>
<g style="fill:#FFFFFF; fill-opacity:1.000000; 
stroke:#FFFFFF; stroke-width:0.000000; stroke-opacity:1; 
stroke-linecap:round; stroke-linejoin:round;">
<circle cx="172.810000" cy="60.575000" r="0.175000" /> 
</g>
<g style="fill:#FFFFFF; fill-opacity:1.000000; 
stroke:#FFFFFF; stroke-width:0.021200; stroke-opacity:1; 
stroke-linecap:round; stroke-linejoin:round;">
</g>
<g style="fill:#FFFFFF; fill-opacity:1.000000; 
stroke:#FFFFFF; stroke-width:0.000000; stroke-opacity:1; 
stroke-linecap:round; stroke-linejoin:round;">
<circle cx="175.350000" cy="60.575000" r="0.175000" /> 
</g>
<g style="fill:#FFFFFF; fill-opacity:1.000000; 
stroke:#FFFFFF; stroke-width:0.021200; stroke-opacity:1; 
stroke-linecap:round; stroke-linejoin:round;">
</g>
<g style="fill:#FFFFFF; fill-opacity:1.000000; 
stroke:#FFFFFF; stroke-width:0.000000; stroke-opacity:1; 
stroke-linecap:round; stroke-linejoin:round;">
<circle cx="177.890000" cy="60.575000" r="0.175000" /> 
</g>
<g style="fill:#FFFFFF; fill-opacity:1.000000; 
stroke:#FFFFFF; stroke-width:0.021200; stroke-opacity:1; 
stroke-linecap:round; stroke-linejoin:round;">
</g>
<g style="fill:#FFFFFF; fill-opacity:1.000000; 
stroke:#FFFFFF; stroke-width:0.000000; stroke-opacity:1; 
stroke-linecap:round; stroke-linejoin:round;">
<circle cx="183.370000" cy="99.900000" r="0.175000" /> 
</g>
<g style="fill:#FFFFFF; fill-opacity:1.000000; 
stroke:#FFFFFF; stroke-width:0.021200; stroke-opacity:1; 
stroke-linecap:round; stroke-linejoin:round;">
</g>
<g style="fill:#FFFFFF; fill-opacity:1.000000; 
stroke:#FFFFFF; stroke-width:0.000000; stroke-opacity:1; 
stroke-linecap:round; stroke-linejoin:round;">
<circle cx="185.910000" cy="99.900000" r="0.175000" /> 
</g>
<g style="fill:#FFFFFF; fill-opacity:1.000000; 
stroke:#FFFFFF; stroke-width:0.021200; stroke-opacity:1; 
stroke-linecap:round; stroke-linejoin:round;">
</g>
<g style="fill:#FFFFFF; fill-opacity:1.000000; 
stroke:#FFFFFF; stroke-width:0.000000; stroke-opacity:1; 
stroke-linecap:round; stroke-linejoin:round;">
<circle cx="188.450000" cy="99.900000" r="0.175000" /> 
</g>
<g style="fill:#FFFFFF; fill-opacity:1.000000; 
stroke:#FFFFFF; stroke-width:0.021200; stroke-opacity:1; 
stroke-linecap:round; stroke-linejoin:round;">
</g>
<g style="fill:#FFFFFF; fill-opacity:1.000000; 
stroke:#FFFFFF; stroke-width:0.000000; stroke-opacity:1; 
stroke-linecap:round; stroke-linejoin:round;">
<circle cx="190.990000" cy="99.900000" r="0.175000" /> 
</g>
<g style="fill:#FFFFFF; fill-opacity:1.000000; 
stroke:#FFFFFF; stroke-width:0.021200; stroke-opacity:1; 
stroke-linecap:round; stroke-linejoin:round;">
</g>
<g style="fill:#FFFFFF; fill-opacity:1.000000; 
stroke:#FFFFFF; stroke-width:0.000000; stroke-opacity:1; 
stroke-linecap:round; stroke-linejoin:round;">
<circle cx="157.900000" cy="60.530000" r="0.175000" /> 
</g>
<g style="fill:#FFFFFF; fill-opacity:1.000000; 
stroke:#FFFFFF; stroke-width:0.021200; stroke-opacity:1; 
stroke-linecap:round; stroke-linejoin:round;">
</g>
<g style="fill:#FFFFFF; fill-opacity:1.000000; 
stroke:#FFFFFF; stroke-width:0.000000; stroke-opacity:1; 
stroke-linecap:round; stroke-linejoin:round;">
<circle cx="154.300000" cy="60.530000" r="0.175000" /> 
</g>
<g style="fill:#FFFFFF; fill-opacity:1.000000; 
stroke:#FFFFFF; stroke-width:0.021200; stroke-opacity:1; 
stroke-linecap:round; stroke-linejoin:round;">
</g>
<g style="fill:#FFFFFF; fill-opacity:1.000000; 
stroke:#FFFFFF; stroke-width:0.000000; stroke-opacity:1; 
stroke-linecap:round; stroke-linejoin:round;">
<circle cx="154.330000" cy="87.475000" r="0.175000" /> 
</g>
<g style="fill:#FFFFFF; fill-opacity:1.000000; 
stroke:#FFFFFF; stroke-width:0.021200; stroke-opacity:1; 
stroke-linecap:round; stroke-linejoin:round;">
</g>
<g style="fill:#FFFFFF; fill-opacity:1.000000; 
stroke:#FFFFFF; stroke-width:0.000000; stroke-opacity:1; 
stroke-linecap:round; stroke-linejoin:round;">
<circle cx="154.330000" cy="84.475000" r="0.175000" /> 
</g>
<g style="fill:#FFFFFF; fill-opacity:1.000000; 
stroke:#FFFFFF; stroke-width:0.021200; stroke-opacity:1; 
stroke-linecap:round; stroke-linejoin:round;">
</g>
<g style="fill:#000000; fill-opacity:1.000000; 
stroke:#000000; stroke-width:0.021200; stroke-opacity:1; 
stroke-linecap:round; stroke-linejoin:round;">
</g>
<g style="fill:#000000; fill-opacity:1.000000; 
stroke:#000000; stroke-width:0.100000; stroke-opacity:1; 
stroke-linecap:round; stroke-linejoin:round;">
</g>
<g style="fill:#000000; fill-opacity:0.0; 
stroke:#000000; stroke-width:0.100000; stroke-opacity:1; 
stroke-linecap:round; stroke-linejoin:round;">
<path d="M151.675000 58.150000
L196.675000 58.150000
" />
<path d="M196.675000 58.150000
L196.675000 103.150000
" />
<path d="M196.675000 103.150000
L151.675000 103.150000
" />
<path d="M151.675000 103.150000
L151.675000 58.150000
" />
<g >
</g>
<g >
</g>
<g >
</g>
<g >
</g>
<g >
</g>
<g >
</g>
<g >
</g>
<g >
</g>
<g >
</g>
<g >
</g>
<g >
</g>
<g >
</g>
<g >
</g>
<g >
</g>
<g >
</g>
<g >
</g>
<g >
</g>
<g >
</g>
<g >
</g>
<g >
</g>
<g >
</g>
<g >
</g>
<g >
</g>
<g >
</g>
<g >
</g>
<g >
</g>
<g >
</g>
<g >
</g>
<g >
</g>
<g >
</g>
</g> 
</svg>
