<?xml version="1.0" standalone="no"?>
 <!DOCTYPE svg PUBLIC "-//W3C//DTD SVG 1.1//EN" 
 "http://www.w3.org/Graphics/SVG/1.1/DTD/svg11.dtd"> 
<svg
  xmlns:svg="http://www.w3.org/2000/svg"
  xmlns="http://www.w3.org/2000/svg"
  xmlns:xlink="http://www.w3.org/1999/xlink"
  version="1.1"
  width="297.002200mm" height="210.007200mm" viewBox="0.000000 0.000000 297.002200 210.007200">
<title>SVG Image created as PCB_SmartWatch_SinCargador-B_Cu.svg date 2023/05/14 23:42:53 </title>
  <desc>Image generated by PCBNEW </desc>
<g style="fill:#000000; fill-opacity:1.000000;stroke:#000000; stroke-opacity:1.000000;
stroke-linecap:round; stroke-linejoin:round;"
 transform="translate(0 0) scale(1 1)">
</g>
<g style="fill:#000000; fill-opacity:0.0; 
stroke:#000000; stroke-width:0.000000; stroke-opacity:1; 
stroke-linecap:round; stroke-linejoin:round;">
<g >
</g>
<g style="fill:#000000; fill-opacity:0.0; 
stroke:#000000; stroke-width:0.000000; stroke-opacity:1; 
stroke-linecap:round; stroke-linejoin:round;">
</g>
<g style="fill:#000000; fill-opacity:1.000000; 
stroke:#000000; stroke-width:0.000000; stroke-opacity:1; 
stroke-linecap:round; stroke-linejoin:round;">
<path style="fill:#000000; fill-opacity:1.000000; 
stroke:#000000; stroke-width:0.000000; stroke-opacity:1; 
stroke-linecap:round; stroke-linejoin:round;fill-rule:evenodd;"
d="M 121.970000,96.060000
123.970000,96.060000
123.970000,98.060000
121.970000,98.060000
Z" /> 
<circle cx="120.430000" cy="97.060000" r="1.000000" /> 
<circle cx="117.890000" cy="97.060000" r="1.000000" /> 
<circle cx="115.350000" cy="97.060000" r="1.000000" /> 
</g>
<g >
</g>
<g >
</g>
<g style="fill:#000000; fill-opacity:1.000000; 
stroke:#000000; stroke-width:0.000000; stroke-opacity:1; 
stroke-linecap:round; stroke-linejoin:round;">
<circle cx="102.247500" cy="57.202500" r="1.000000" /> 
<circle cx="104.787500" cy="57.202500" r="1.000000" /> 
<circle cx="107.327500" cy="57.202500" r="1.000000" /> 
<circle cx="109.867500" cy="57.202500" r="1.000000" /> 
</g>
<g >
</g>
<g >
</g>
<g >
</g>
<g style="fill:#000000; fill-opacity:1.000000; 
stroke:#000000; stroke-width:0.000000; stroke-opacity:1; 
stroke-linecap:round; stroke-linejoin:round;">
<path style="fill:#000000; fill-opacity:1.000000; 
stroke:#000000; stroke-width:0.000000; stroke-opacity:1; 
stroke-linecap:round; stroke-linejoin:round;fill-rule:evenodd;"
d="M 86.750000,65.440000
86.750000,63.840000
88.930000,63.840000
88.930000,65.440000
Z" /> 
<path style="fill:#000000; fill-opacity:1.000000; 
stroke:#000000; stroke-width:0.000000; stroke-opacity:1; 
stroke-linecap:round; stroke-linejoin:round;fill-rule:evenodd;"
d="M 95.930000,65.440000
95.930000,63.840000
98.110000,63.840000
98.110000,65.440000
Z" /> 
</g>
<g >
</g>
<g style="fill:#000000; fill-opacity:1.000000; 
stroke:#000000; stroke-width:0.000000; stroke-opacity:1; 
stroke-linecap:round; stroke-linejoin:round;">
<path style="fill:#000000; fill-opacity:1.000000; 
stroke:#000000; stroke-width:0.000000; stroke-opacity:1; 
stroke-linecap:round; stroke-linejoin:round;fill-rule:evenodd;"
d="M 112.525000,95.055000
112.505970,95.150671
112.451777,95.231777
112.370671,95.285970
112.275000,95.305000
111.600000,95.305000
111.504329,95.285970
111.423223,95.231777
111.369030,95.150671
111.350000,95.055000
111.350000,94.105000
111.369030,94.009329
111.423223,93.928223
111.504329,93.874030
111.600000,93.855000
112.275000,93.855000
112.370671,93.874030
112.451777,93.928223
112.505970,94.009329
112.525000,94.105000
Z" /> 
<path style="fill:#000000; fill-opacity:1.000000; 
stroke:#000000; stroke-width:0.000000; stroke-opacity:1; 
stroke-linecap:round; stroke-linejoin:round;fill-rule:evenodd;"
d="M 110.450000,95.055000
110.430970,95.150671
110.376777,95.231777
110.295671,95.285970
110.200000,95.305000
109.525000,95.305000
109.429329,95.285970
109.348223,95.231777
109.294030,95.150671
109.275000,95.055000
109.275000,94.105000
109.294030,94.009329
109.348223,93.928223
109.429329,93.874030
109.525000,93.855000
110.200000,93.855000
110.295671,93.874030
110.376777,93.928223
110.430970,94.009329
110.450000,94.105000
Z" /> 
</g>
<g >
</g>
<g style="fill:#000000; fill-opacity:1.000000; 
stroke:#000000; stroke-width:0.000000; stroke-opacity:1; 
stroke-linecap:round; stroke-linejoin:round;">
<path style="fill:#000000; fill-opacity:1.000000; 
stroke:#000000; stroke-width:0.000000; stroke-opacity:1; 
stroke-linecap:round; stroke-linejoin:round;fill-rule:evenodd;"
d="M 105.460000,90.180000
105.460000,91.680000
103.460000,91.680000
103.460000,90.180000
Z" /> 
<path style="fill:#000000; fill-opacity:1.000000; 
stroke:#000000; stroke-width:0.000000; stroke-opacity:1; 
stroke-linecap:round; stroke-linejoin:round;fill-rule:evenodd;"
d="M 105.460000,92.480000
105.460000,93.980000
103.460000,93.980000
103.460000,92.480000
Z" /> 
<path style="fill:#000000; fill-opacity:1.000000; 
stroke:#000000; stroke-width:0.000000; stroke-opacity:1; 
stroke-linecap:round; stroke-linejoin:round;fill-rule:evenodd;"
d="M 99.160000,91.330000
99.160000,95.130000
97.160000,95.130000
97.160000,91.330000
Z" /> 
<path style="fill:#000000; fill-opacity:1.000000; 
stroke:#000000; stroke-width:0.000000; stroke-opacity:1; 
stroke-linecap:round; stroke-linejoin:round;fill-rule:evenodd;"
d="M 105.460000,94.780000
105.460000,96.280000
103.460000,96.280000
103.460000,94.780000
Z" /> 
</g>
<g >
</g>
<g style="fill:#000000; fill-opacity:1.000000; 
stroke:#000000; stroke-width:0.000000; stroke-opacity:1; 
stroke-linecap:round; stroke-linejoin:round;">
<path style="fill:#000000; fill-opacity:1.000000; 
stroke:#000000; stroke-width:0.000000; stroke-opacity:1; 
stroke-linecap:round; stroke-linejoin:round;fill-rule:evenodd;"
d="M 85.610000,86.750000
84.810000,86.750000
84.810000,85.750000
85.610000,85.750000
Z" /> 
<path style="fill:#000000; fill-opacity:1.000000; 
stroke:#000000; stroke-width:0.000000; stroke-opacity:1; 
stroke-linecap:round; stroke-linejoin:round;fill-rule:evenodd;"
d="M 87.820000,86.750000
87.020000,86.750000
87.020000,85.750000
87.820000,85.750000
Z" /> 
<path style="fill:#000000; fill-opacity:1.000000; 
stroke:#000000; stroke-width:0.000000; stroke-opacity:1; 
stroke-linecap:round; stroke-linejoin:round;fill-rule:evenodd;"
d="M 85.610000,79.450000
84.810000,79.450000
84.810000,78.450000
85.610000,78.450000
Z" /> 
<path style="fill:#000000; fill-opacity:1.000000; 
stroke:#000000; stroke-width:0.000000; stroke-opacity:1; 
stroke-linecap:round; stroke-linejoin:round;fill-rule:evenodd;"
d="M 87.820000,79.450000
87.020000,79.450000
87.020000,78.450000
87.820000,78.450000
Z" /> 
<path style="fill:#000000; fill-opacity:1.000000; 
stroke:#000000; stroke-width:0.000000; stroke-opacity:1; 
stroke-linecap:round; stroke-linejoin:round;fill-rule:evenodd;"
d="M 88.820000,85.200000
87.320000,85.200000
87.320000,84.500000
88.820000,84.500000
Z" /> 
<path style="fill:#000000; fill-opacity:1.000000; 
stroke:#000000; stroke-width:0.000000; stroke-opacity:1; 
stroke-linecap:round; stroke-linejoin:round;fill-rule:evenodd;"
d="M 88.820000,82.200000
87.320000,82.200000
87.320000,81.500000
88.820000,81.500000
Z" /> 
<path style="fill:#000000; fill-opacity:1.000000; 
stroke:#000000; stroke-width:0.000000; stroke-opacity:1; 
stroke-linecap:round; stroke-linejoin:round;fill-rule:evenodd;"
d="M 88.820000,80.700000
87.320000,80.700000
87.320000,80.000000
88.820000,80.000000
Z" /> 
</g>
<g >
</g>
<g style="fill:#000000; fill-opacity:1.000000; 
stroke:#000000; stroke-width:0.000000; stroke-opacity:1; 
stroke-linecap:round; stroke-linejoin:round;">
<path style="fill:#000000; fill-opacity:1.000000; 
stroke:#000000; stroke-width:0.000000; stroke-opacity:1; 
stroke-linecap:round; stroke-linejoin:round;fill-rule:evenodd;"
d="M 90.900000,58.297500
90.891699,58.369047
90.845312,58.474105
90.764105,58.555312
90.659047,58.601699
90.587500,58.610000
89.212500,58.610000
89.140953,58.601699
89.035895,58.555312
88.954688,58.474105
88.908301,58.369047
88.900000,58.297500
88.900000,56.922500
88.908301,56.850953
88.954688,56.745895
89.035895,56.664688
89.140953,56.618301
89.212500,56.610000
90.587500,56.610000
90.659047,56.618301
90.764105,56.664688
90.845312,56.745895
90.891699,56.850953
90.900000,56.922500
Z" /> 
<circle cx="86.300000" cy="57.610000" r="1.000000" /> 
</g>
<g style="fill:#000000; fill-opacity:1.000000; 
stroke:#000000; stroke-width:0.021200; stroke-opacity:1; 
stroke-linecap:round; stroke-linejoin:round;">
</g>
<g >
</g>
<g style="fill:#000000; fill-opacity:1.000000; 
stroke:#000000; stroke-width:0.021200; stroke-opacity:1; 
stroke-linecap:round; stroke-linejoin:round;">
</g>
<g style="fill:#000000; fill-opacity:1.000000; 
stroke:#000000; stroke-width:0.000000; stroke-opacity:1; 
stroke-linecap:round; stroke-linejoin:round;">
<path style="fill:#000000; fill-opacity:1.000000; 
stroke:#000000; stroke-width:0.000000; stroke-opacity:1; 
stroke-linecap:round; stroke-linejoin:round;fill-rule:evenodd;"
d="M 109.275000,91.515000
109.294030,91.419329
109.348223,91.338223
109.429329,91.284030
109.525000,91.265000
110.200000,91.265000
110.295671,91.284030
110.376777,91.338223
110.430970,91.419329
110.450000,91.515000
110.450000,92.465000
110.430970,92.560671
110.376777,92.641777
110.295671,92.695970
110.200000,92.715000
109.525000,92.715000
109.429329,92.695970
109.348223,92.641777
109.294030,92.560671
109.275000,92.465000
Z" /> 
<path style="fill:#000000; fill-opacity:1.000000; 
stroke:#000000; stroke-width:0.000000; stroke-opacity:1; 
stroke-linecap:round; stroke-linejoin:round;fill-rule:evenodd;"
d="M 111.350000,91.515000
111.369030,91.419329
111.423223,91.338223
111.504329,91.284030
111.600000,91.265000
112.275000,91.265000
112.370671,91.284030
112.451777,91.338223
112.505970,91.419329
112.525000,91.515000
112.525000,92.465000
112.505970,92.560671
112.451777,92.641777
112.370671,92.695970
112.275000,92.715000
111.600000,92.715000
111.504329,92.695970
111.423223,92.641777
111.369030,92.560671
111.350000,92.465000
Z" /> 
</g>
<g >
</g>
<g style="fill:#000000; fill-opacity:1.000000; 
stroke:#000000; stroke-width:0.000000; stroke-opacity:1; 
stroke-linecap:round; stroke-linejoin:round;">
<path style="fill:#000000; fill-opacity:1.000000; 
stroke:#000000; stroke-width:0.000000; stroke-opacity:1; 
stroke-linecap:round; stroke-linejoin:round;fill-rule:evenodd;"
d="M 98.110000,71.150000
98.110000,72.750000
95.930000,72.750000
95.930000,71.150000
Z" /> 
<path style="fill:#000000; fill-opacity:1.000000; 
stroke:#000000; stroke-width:0.000000; stroke-opacity:1; 
stroke-linecap:round; stroke-linejoin:round;fill-rule:evenodd;"
d="M 88.930000,71.150000
88.930000,72.750000
86.750000,72.750000
86.750000,71.150000
Z" /> 
</g>
<g >
</g>
<g style="fill:#000000; fill-opacity:1.000000; 
stroke:#000000; stroke-width:0.000000; stroke-opacity:1; 
stroke-linecap:round; stroke-linejoin:round;">
<path style="fill:#000000; fill-opacity:1.000000; 
stroke:#000000; stroke-width:0.000000; stroke-opacity:1; 
stroke-linecap:round; stroke-linejoin:round;fill-rule:evenodd;"
d="M 90.420000,76.910000
90.400970,77.005671
90.346777,77.086777
90.265671,77.140970
90.170000,77.160000
89.070000,77.160000
88.974329,77.140970
88.893223,77.086777
88.839030,77.005671
88.820000,76.910000
88.820000,75.810000
88.839030,75.714329
88.893223,75.633223
88.974329,75.579030
89.070000,75.560000
90.170000,75.560000
90.265671,75.579030
90.346777,75.633223
90.400970,75.714329
90.420000,75.810000
Z" /> 
<circle cx="86.020000" cy="76.360000" r="0.800000" /> 
</g>
<g style="fill:#000000; fill-opacity:1.000000; 
stroke:#000000; stroke-width:0.021200; stroke-opacity:1; 
stroke-linecap:round; stroke-linejoin:round;">
</g>
<g >
</g>
<g style="fill:#000000; fill-opacity:1.000000; 
stroke:#000000; stroke-width:0.021200; stroke-opacity:1; 
stroke-linecap:round; stroke-linejoin:round;">
</g>
<g style="fill:#000000; fill-opacity:1.000000; 
stroke:#000000; stroke-width:0.000000; stroke-opacity:1; 
stroke-linecap:round; stroke-linejoin:round;">
<path style="fill:#000000; fill-opacity:1.000000; 
stroke:#000000; stroke-width:0.000000; stroke-opacity:1; 
stroke-linecap:round; stroke-linejoin:round;fill-rule:evenodd;"
d="M 116.505000,91.730000
116.409329,91.710970
116.328223,91.656777
116.274030,91.575671
116.255000,91.480000
116.255000,90.680000
116.274030,90.584329
116.328223,90.503223
116.409329,90.449030
116.505000,90.430000
117.755000,90.430000
117.850671,90.449030
117.931777,90.503223
117.985970,90.584329
118.005000,90.680000
118.005000,91.480000
117.985970,91.575671
117.931777,91.656777
117.850671,91.710970
117.755000,91.730000
Z" /> 
<path style="fill:#000000; fill-opacity:1.000000; 
stroke:#000000; stroke-width:0.000000; stroke-opacity:1; 
stroke-linecap:round; stroke-linejoin:round;fill-rule:evenodd;"
d="M 116.505000,88.630000
116.409329,88.610970
116.328223,88.556777
116.274030,88.475671
116.255000,88.380000
116.255000,87.580000
116.274030,87.484329
116.328223,87.403223
116.409329,87.349030
116.505000,87.330000
117.755000,87.330000
117.850671,87.349030
117.931777,87.403223
117.985970,87.484329
118.005000,87.580000
118.005000,88.380000
117.985970,88.475671
117.931777,88.556777
117.850671,88.610970
117.755000,88.630000
Z" /> 
</g>
<g >
</g>
<g style="fill:#000000; fill-opacity:1.000000; 
stroke:#000000; stroke-width:0.000000; stroke-opacity:1; 
stroke-linecap:round; stroke-linejoin:round;">
<path style="fill:#000000; fill-opacity:1.000000; 
stroke:#000000; stroke-width:0.000000; stroke-opacity:1; 
stroke-linecap:round; stroke-linejoin:round;fill-rule:evenodd;"
d="M 94.275000,56.365000
94.370671,56.384030
94.451777,56.438223
94.505970,56.519329
94.525000,56.615000
94.525000,57.290000
94.505970,57.385671
94.451777,57.466777
94.370671,57.520970
94.275000,57.540000
93.325000,57.540000
93.229329,57.520970
93.148223,57.466777
93.094030,57.385671
93.075000,57.290000
93.075000,56.615000
93.094030,56.519329
93.148223,56.438223
93.229329,56.384030
93.325000,56.365000
Z" /> 
<path style="fill:#000000; fill-opacity:1.000000; 
stroke:#000000; stroke-width:0.000000; stroke-opacity:1; 
stroke-linecap:round; stroke-linejoin:round;fill-rule:evenodd;"
d="M 94.275000,58.440000
94.370671,58.459030
94.451777,58.513223
94.505970,58.594329
94.525000,58.690000
94.525000,59.365000
94.505970,59.460671
94.451777,59.541777
94.370671,59.595970
94.275000,59.615000
93.325000,59.615000
93.229329,59.595970
93.148223,59.541777
93.094030,59.460671
93.075000,59.365000
93.075000,58.690000
93.094030,58.594329
93.148223,58.513223
93.229329,58.459030
93.325000,58.440000
Z" /> 
</g>
<g >
</g>
<g style="fill:#000000; fill-opacity:1.000000; 
stroke:#000000; stroke-width:0.000000; stroke-opacity:1; 
stroke-linecap:round; stroke-linejoin:round;">
<path style="fill:#000000; fill-opacity:1.000000; 
stroke:#000000; stroke-width:0.000000; stroke-opacity:1; 
stroke-linecap:round; stroke-linejoin:round;fill-rule:evenodd;"
d="M 108.680000,63.730000
109.680000,63.730000
109.680000,66.230000
108.680000,66.230000
Z" /> 
<path style="fill:#000000; fill-opacity:1.000000; 
stroke:#000000; stroke-width:0.000000; stroke-opacity:1; 
stroke-linecap:round; stroke-linejoin:round;fill-rule:evenodd;"
d="M 110.680000,63.730000
111.680000,63.730000
111.680000,66.230000
110.680000,66.230000
Z" /> 
<path style="fill:#000000; fill-opacity:1.000000; 
stroke:#000000; stroke-width:0.000000; stroke-opacity:1; 
stroke-linecap:round; stroke-linejoin:round;fill-rule:evenodd;"
d="M 112.680000,63.730000
113.680000,63.730000
113.680000,66.230000
112.680000,66.230000
Z" /> 
<path style="fill:#000000; fill-opacity:1.000000; 
stroke:#000000; stroke-width:0.000000; stroke-opacity:1; 
stroke-linecap:round; stroke-linejoin:round;fill-rule:evenodd;"
d="M 114.680000,63.730000
115.680000,63.730000
115.680000,66.230000
114.680000,66.230000
Z" /> 
<path style="fill:#000000; fill-opacity:1.000000; 
stroke:#000000; stroke-width:0.000000; stroke-opacity:1; 
stroke-linecap:round; stroke-linejoin:round;fill-rule:evenodd;"
d="M 116.680000,63.730000
117.680000,63.730000
117.680000,66.230000
116.680000,66.230000
Z" /> 
<path style="fill:#000000; fill-opacity:1.000000; 
stroke:#000000; stroke-width:0.000000; stroke-opacity:1; 
stroke-linecap:round; stroke-linejoin:round;fill-rule:evenodd;"
d="M 118.680000,63.730000
119.680000,63.730000
119.680000,66.230000
118.680000,66.230000
Z" /> 
<path style="fill:#000000; fill-opacity:1.000000; 
stroke:#000000; stroke-width:0.000000; stroke-opacity:1; 
stroke-linecap:round; stroke-linejoin:round;fill-rule:evenodd;"
d="M 120.680000,63.730000
121.680000,63.730000
121.680000,66.230000
120.680000,66.230000
Z" /> 
<path style="fill:#000000; fill-opacity:1.000000; 
stroke:#000000; stroke-width:0.000000; stroke-opacity:1; 
stroke-linecap:round; stroke-linejoin:round;fill-rule:evenodd;"
d="M 122.680000,63.730000
123.680000,63.730000
123.680000,66.230000
122.680000,66.230000
Z" /> 
<path style="fill:#000000; fill-opacity:1.000000; 
stroke:#000000; stroke-width:0.000000; stroke-opacity:1; 
stroke-linecap:round; stroke-linejoin:round;fill-rule:evenodd;"
d="M 123.780000,67.080000
125.580000,67.080000
125.580000,68.080000
123.780000,68.080000
Z" /> 
<path style="fill:#000000; fill-opacity:1.000000; 
stroke:#000000; stroke-width:0.000000; stroke-opacity:1; 
stroke-linecap:round; stroke-linejoin:round;fill-rule:evenodd;"
d="M 123.780000,69.080000
125.580000,69.080000
125.580000,70.080000
123.780000,70.080000
Z" /> 
<path style="fill:#000000; fill-opacity:1.000000; 
stroke:#000000; stroke-width:0.000000; stroke-opacity:1; 
stroke-linecap:round; stroke-linejoin:round;fill-rule:evenodd;"
d="M 123.780000,71.080000
125.580000,71.080000
125.580000,72.080000
123.780000,72.080000
Z" /> 
<path style="fill:#000000; fill-opacity:1.000000; 
stroke:#000000; stroke-width:0.000000; stroke-opacity:1; 
stroke-linecap:round; stroke-linejoin:round;fill-rule:evenodd;"
d="M 123.780000,73.080000
125.580000,73.080000
125.580000,74.080000
123.780000,74.080000
Z" /> 
<path style="fill:#000000; fill-opacity:1.000000; 
stroke:#000000; stroke-width:0.000000; stroke-opacity:1; 
stroke-linecap:round; stroke-linejoin:round;fill-rule:evenodd;"
d="M 123.780000,75.080000
125.580000,75.080000
125.580000,76.080000
123.780000,76.080000
Z" /> 
<path style="fill:#000000; fill-opacity:1.000000; 
stroke:#000000; stroke-width:0.000000; stroke-opacity:1; 
stroke-linecap:round; stroke-linejoin:round;fill-rule:evenodd;"
d="M 123.780000,77.080000
125.580000,77.080000
125.580000,78.080000
123.780000,78.080000
Z" /> 
<path style="fill:#000000; fill-opacity:1.000000; 
stroke:#000000; stroke-width:0.000000; stroke-opacity:1; 
stroke-linecap:round; stroke-linejoin:round;fill-rule:evenodd;"
d="M 122.680000,78.930000
123.680000,78.930000
123.680000,81.430000
122.680000,81.430000
Z" /> 
<path style="fill:#000000; fill-opacity:1.000000; 
stroke:#000000; stroke-width:0.000000; stroke-opacity:1; 
stroke-linecap:round; stroke-linejoin:round;fill-rule:evenodd;"
d="M 120.680000,78.930000
121.680000,78.930000
121.680000,81.430000
120.680000,81.430000
Z" /> 
<path style="fill:#000000; fill-opacity:1.000000; 
stroke:#000000; stroke-width:0.000000; stroke-opacity:1; 
stroke-linecap:round; stroke-linejoin:round;fill-rule:evenodd;"
d="M 118.680000,78.930000
119.680000,78.930000
119.680000,81.430000
118.680000,81.430000
Z" /> 
<path style="fill:#000000; fill-opacity:1.000000; 
stroke:#000000; stroke-width:0.000000; stroke-opacity:1; 
stroke-linecap:round; stroke-linejoin:round;fill-rule:evenodd;"
d="M 116.680000,78.930000
117.680000,78.930000
117.680000,81.430000
116.680000,81.430000
Z" /> 
<path style="fill:#000000; fill-opacity:1.000000; 
stroke:#000000; stroke-width:0.000000; stroke-opacity:1; 
stroke-linecap:round; stroke-linejoin:round;fill-rule:evenodd;"
d="M 114.680000,78.930000
115.680000,78.930000
115.680000,81.430000
114.680000,81.430000
Z" /> 
<path style="fill:#000000; fill-opacity:1.000000; 
stroke:#000000; stroke-width:0.000000; stroke-opacity:1; 
stroke-linecap:round; stroke-linejoin:round;fill-rule:evenodd;"
d="M 112.680000,78.930000
113.680000,78.930000
113.680000,81.430000
112.680000,81.430000
Z" /> 
<path style="fill:#000000; fill-opacity:1.000000; 
stroke:#000000; stroke-width:0.000000; stroke-opacity:1; 
stroke-linecap:round; stroke-linejoin:round;fill-rule:evenodd;"
d="M 110.680000,78.930000
111.680000,78.930000
111.680000,81.430000
110.680000,81.430000
Z" /> 
<path style="fill:#000000; fill-opacity:1.000000; 
stroke:#000000; stroke-width:0.000000; stroke-opacity:1; 
stroke-linecap:round; stroke-linejoin:round;fill-rule:evenodd;"
d="M 108.680000,78.930000
109.680000,78.930000
109.680000,81.430000
108.680000,81.430000
Z" /> 
</g>
<g >
</g>
<g style="fill:#000000; fill-opacity:1.000000; 
stroke:#000000; stroke-width:0.000000; stroke-opacity:1; 
stroke-linecap:round; stroke-linejoin:round;">
<path style="fill:#000000; fill-opacity:1.000000; 
stroke:#000000; stroke-width:0.000000; stroke-opacity:1; 
stroke-linecap:round; stroke-linejoin:round;fill-rule:evenodd;"
d="M 120.530000,85.615000
120.549030,85.519329
120.603223,85.438223
120.684329,85.384030
120.780000,85.365000
121.580000,85.365000
121.675671,85.384030
121.756777,85.438223
121.810970,85.519329
121.830000,85.615000
121.830000,86.865000
121.810970,86.960671
121.756777,87.041777
121.675671,87.095970
121.580000,87.115000
120.780000,87.115000
120.684329,87.095970
120.603223,87.041777
120.549030,86.960671
120.530000,86.865000
Z" /> 
<path style="fill:#000000; fill-opacity:1.000000; 
stroke:#000000; stroke-width:0.000000; stroke-opacity:1; 
stroke-linecap:round; stroke-linejoin:round;fill-rule:evenodd;"
d="M 123.630000,85.615000
123.649030,85.519329
123.703223,85.438223
123.784329,85.384030
123.880000,85.365000
124.680000,85.365000
124.775671,85.384030
124.856777,85.438223
124.910970,85.519329
124.930000,85.615000
124.930000,86.865000
124.910970,86.960671
124.856777,87.041777
124.775671,87.095970
124.680000,87.115000
123.880000,87.115000
123.784329,87.095970
123.703223,87.041777
123.649030,86.960671
123.630000,86.865000
Z" /> 
</g>
<g >
</g>
<g style="fill:#000000; fill-opacity:1.000000; 
stroke:#000000; stroke-width:0.000000; stroke-opacity:1; 
stroke-linecap:round; stroke-linejoin:round;">
<path style="fill:#000000; fill-opacity:1.000000; 
stroke:#000000; stroke-width:0.000000; stroke-opacity:1; 
stroke-linecap:round; stroke-linejoin:round;fill-rule:evenodd;"
d="M 116.930000,59.025000
116.910970,59.120671
116.856777,59.201777
116.775671,59.255970
116.680000,59.275000
115.880000,59.275000
115.784329,59.255970
115.703223,59.201777
115.649030,59.120671
115.630000,59.025000
115.630000,57.775000
115.649030,57.679329
115.703223,57.598223
115.784329,57.544030
115.880000,57.525000
116.680000,57.525000
116.775671,57.544030
116.856777,57.598223
116.910970,57.679329
116.930000,57.775000
Z" /> 
<path style="fill:#000000; fill-opacity:1.000000; 
stroke:#000000; stroke-width:0.000000; stroke-opacity:1; 
stroke-linecap:round; stroke-linejoin:round;fill-rule:evenodd;"
d="M 113.830000,59.025000
113.810970,59.120671
113.756777,59.201777
113.675671,59.255970
113.580000,59.275000
112.780000,59.275000
112.684329,59.255970
112.603223,59.201777
112.549030,59.120671
112.530000,59.025000
112.530000,57.775000
112.549030,57.679329
112.603223,57.598223
112.684329,57.544030
112.780000,57.525000
113.580000,57.525000
113.675671,57.544030
113.756777,57.598223
113.810970,57.679329
113.830000,57.775000
Z" /> 
</g>
<g >
</g>
<g style="fill:#000000; fill-opacity:1.000000; 
stroke:#000000; stroke-width:0.000000; stroke-opacity:1; 
stroke-linecap:round; stroke-linejoin:round;">
<path style="fill:#000000; fill-opacity:1.000000; 
stroke:#000000; stroke-width:0.000000; stroke-opacity:1; 
stroke-linecap:round; stroke-linejoin:round;fill-rule:evenodd;"
d="M 116.930000,56.702500
116.910970,56.798171
116.856777,56.879277
116.775671,56.933470
116.680000,56.952500
115.880000,56.952500
115.784329,56.933470
115.703223,56.879277
115.649030,56.798171
115.630000,56.702500
115.630000,55.452500
115.649030,55.356829
115.703223,55.275723
115.784329,55.221530
115.880000,55.202500
116.680000,55.202500
116.775671,55.221530
116.856777,55.275723
116.910970,55.356829
116.930000,55.452500
Z" /> 
<path style="fill:#000000; fill-opacity:1.000000; 
stroke:#000000; stroke-width:0.000000; stroke-opacity:1; 
stroke-linecap:round; stroke-linejoin:round;fill-rule:evenodd;"
d="M 113.830000,56.702500
113.810970,56.798171
113.756777,56.879277
113.675671,56.933470
113.580000,56.952500
112.780000,56.952500
112.684329,56.933470
112.603223,56.879277
112.549030,56.798171
112.530000,56.702500
112.530000,55.452500
112.549030,55.356829
112.603223,55.275723
112.684329,55.221530
112.780000,55.202500
113.580000,55.202500
113.675671,55.221530
113.756777,55.275723
113.810970,55.356829
113.830000,55.452500
Z" /> 
</g>
<g >
</g>
<g style="fill:#000000; fill-opacity:1.000000; 
stroke:#000000; stroke-width:0.000000; stroke-opacity:1; 
stroke-linecap:round; stroke-linejoin:round;">
<circle cx="105.900000" cy="59.820000" r="1.000000" /> 
</g>
<g style="fill:#000000; fill-opacity:1.000000; 
stroke:#000000; stroke-width:0.021200; stroke-opacity:1; 
stroke-linecap:round; stroke-linejoin:round;">
</g>
<g style="fill:#000000; fill-opacity:1.000000; 
stroke:#000000; stroke-width:0.000000; stroke-opacity:1; 
stroke-linecap:round; stroke-linejoin:round;">
<circle cx="110.240000" cy="84.740000" r="1.000000" /> 
</g>
<g style="fill:#000000; fill-opacity:1.000000; 
stroke:#000000; stroke-width:0.021200; stroke-opacity:1; 
stroke-linecap:round; stroke-linejoin:round;">
</g>
<g style="fill:#000000; fill-opacity:1.000000; 
stroke:#000000; stroke-width:0.000000; stroke-opacity:1; 
stroke-linecap:round; stroke-linejoin:round;">
<circle cx="105.330000" cy="84.970000" r="1.000000" /> 
</g>
<g style="fill:#000000; fill-opacity:1.000000; 
stroke:#000000; stroke-width:0.021200; stroke-opacity:1; 
stroke-linecap:round; stroke-linejoin:round;">
</g>
<g style="fill:#000000; fill-opacity:1.000000; 
stroke:#000000; stroke-width:0.000000; stroke-opacity:1; 
stroke-linecap:round; stroke-linejoin:round;">
<circle cx="103.510000" cy="83.320000" r="1.000000" /> 
</g>
<g style="fill:#000000; fill-opacity:1.000000; 
stroke:#000000; stroke-width:0.021200; stroke-opacity:1; 
stroke-linecap:round; stroke-linejoin:round;">
</g>
<g style="fill:#000000; fill-opacity:1.000000; 
stroke:#000000; stroke-width:0.000000; stroke-opacity:1; 
stroke-linecap:round; stroke-linejoin:round;">
<circle cx="117.180000" cy="60.680000" r="1.000000" /> 
</g>
<g style="fill:#000000; fill-opacity:1.000000; 
stroke:#000000; stroke-width:0.021200; stroke-opacity:1; 
stroke-linecap:round; stroke-linejoin:round;">
</g>
<g style="fill:#000000; fill-opacity:1.000000; 
stroke:#000000; stroke-width:0.000000; stroke-opacity:1; 
stroke-linecap:round; stroke-linejoin:round;">
<circle cx="124.180000" cy="60.680000" r="1.000000" /> 
</g>
<g style="fill:#000000; fill-opacity:1.000000; 
stroke:#000000; stroke-width:0.021200; stroke-opacity:1; 
stroke-linecap:round; stroke-linejoin:round;">
</g>
<g style="fill:#000000; fill-opacity:1.000000; 
stroke:#000000; stroke-width:0.000000; stroke-opacity:1; 
stroke-linecap:round; stroke-linejoin:round;">
<circle cx="120.680000" cy="60.680000" r="1.000000" /> 
</g>
<g style="fill:#000000; fill-opacity:1.000000; 
stroke:#000000; stroke-width:0.021200; stroke-opacity:1; 
stroke-linecap:round; stroke-linejoin:round;">
</g>
<g >
</g>
<g style="fill:#000000; fill-opacity:1.000000; 
stroke:#000000; stroke-width:0.021200; stroke-opacity:1; 
stroke-linecap:round; stroke-linejoin:round;">
</g>
<g style="fill:#000000; fill-opacity:1.000000; 
stroke:#000000; stroke-width:0.750000; stroke-opacity:1; 
stroke-linecap:round; stroke-linejoin:round;">
</g>
<g style="fill:#000000; fill-opacity:0.0; 
stroke:#000000; stroke-width:0.750000; stroke-opacity:1; 
stroke-linecap:round; stroke-linejoin:round;">
<path d="M96.842500 59.027500
L93.800000 59.027500
" />
<path d="M98.667500 57.202500
L96.842500 59.027500
" />
<path d="M102.332500 57.202500
L98.667500 57.202500
" />
<path d="M102.357500 57.227500
L102.332500 57.202500
" />
<path d="M109.867500 60.032500
L109.867500 57.202500
" />
<path d="M108.420000 61.480000
L109.867500 60.032500
" />
<path d="M95.550000 61.480000
L108.420000 61.480000
" />
<path d="M94.420000 62.610000
L95.550000 61.480000
" />
<path d="M94.420000 66.540000
L94.420000 62.610000
" />
<path d="M99.430000 83.870000
L99.430000 68.730000
" />
<path d="M99.430000 68.730000
L98.130000 67.430000
" />
<path d="M102.140000 86.580000
L99.430000 83.870000
" />
<path d="M113.780000 86.580000
L102.140000 86.580000
" />
<path d="M115.180000 85.180000
L113.780000 86.580000
" />
<path d="M98.130000 67.430000
L95.310000 67.430000
" />
<path d="M95.310000 67.430000
L94.420000 66.540000
" />
<path d="M115.180000 80.180000
L115.180000 85.180000
" />
<path d="M107.327500 58.392500
L105.900000 59.820000
" />
<path d="M107.327500 57.202500
L107.327500 58.392500
" />
<path d="M104.787500 55.737500
L104.787500 57.202500
" />
<path d="M104.377500 55.327500
L104.787500 55.737500
" />
<path d="M95.542500 55.327500
L104.377500 55.327500
" />
</g>
<g style="fill:#000000; fill-opacity:0.0; 
stroke:#000000; stroke-width:1.000000; stroke-opacity:1; 
stroke-linecap:round; stroke-linejoin:round;">
<path d="M125.510000 99.000000
L127.330000 97.180000
" />
<path d="M127.330000 97.180000
L127.330000 66.060000
" />
<path d="M121.110000 99.000000
L125.510000 99.000000
" />
<path d="M120.430000 98.320000
L121.110000 99.000000
" />
<path d="M120.430000 97.060000
L120.430000 98.320000
" />
</g>
<g style="fill:#000000; fill-opacity:0.0; 
stroke:#000000; stroke-width:0.750000; stroke-opacity:1; 
stroke-linecap:round; stroke-linejoin:round;">
<path d="M90.752498 80.252498
L90.752498 81.852499
" />
<path d="M87.830000 77.330000
L90.752498 80.252498
" />
<path d="M85.620000 72.960000
L87.830000 75.170000
" />
<path d="M87.830000 75.170000
L87.830000 77.330000
" />
<path d="M85.620000 61.640000
L85.620000 72.960000
" />
<path d="M88.070000 59.190000
L85.620000 61.640000
" />
<path d="M88.070000 56.220000
L88.070000 59.190000
" />
<path d="M88.962500 55.327500
L88.070000 56.220000
" />
<path d="M95.542500 55.327500
L88.962500 55.327500
" />
</g>
<g style="fill:#000000; fill-opacity:0.0; 
stroke:#000000; stroke-width:1.000000; stroke-opacity:1; 
stroke-linecap:round; stroke-linejoin:round;">
<path d="M99.670000 89.370000
L101.230000 90.930000
" />
</g>
<g style="fill:#000000; fill-opacity:0.0; 
stroke:#000000; stroke-width:0.750000; stroke-opacity:1; 
stroke-linecap:round; stroke-linejoin:round;">
<path d="M106.530000 90.930000
L104.460000 90.930000
" />
</g>
<g style="fill:#000000; fill-opacity:0.0; 
stroke:#000000; stroke-width:1.000000; stroke-opacity:1; 
stroke-linecap:round; stroke-linejoin:round;">
<path d="M91.300000 75.630000
L90.570000 76.360000
" />
</g>
<g style="fill:#000000; fill-opacity:0.0; 
stroke:#000000; stroke-width:0.750000; stroke-opacity:1; 
stroke-linecap:round; stroke-linejoin:round;">
<path d="M124.280000 86.240000
L124.280000 83.840000
" />
</g>
<g style="fill:#000000; fill-opacity:0.0; 
stroke:#000000; stroke-width:1.000000; stroke-opacity:1; 
stroke-linecap:round; stroke-linejoin:round;">
<path d="M97.710000 89.370000
L99.670000 89.370000
" />
<path d="M91.300000 71.950000
L92.440000 71.950000
" />
</g>
<g style="fill:#000000; fill-opacity:0.0; 
stroke:#000000; stroke-width:0.750000; stroke-opacity:1; 
stroke-linecap:round; stroke-linejoin:round;">
<path d="M124.280000 89.167500
L122.967500 90.480000
" />
<path d="M123.917501 89.529999
L109.880001 89.529999
" />
</g>
<g style="fill:#000000; fill-opacity:0.0; 
stroke:#000000; stroke-width:1.000000; stroke-opacity:1; 
stroke-linecap:round; stroke-linejoin:round;">
<path d="M101.230000 90.930000
L104.460000 90.930000
" />
<path d="M109.862500 94.580000
L109.862500 91.990000
" />
</g>
<g style="fill:#000000; fill-opacity:0.0; 
stroke:#000000; stroke-width:0.750000; stroke-opacity:1; 
stroke-linecap:round; stroke-linejoin:round;">
<path d="M89.952500 59.027500
L89.900000 59.080000
" />
</g>
<g style="fill:#000000; fill-opacity:0.0; 
stroke:#000000; stroke-width:1.000000; stroke-opacity:1; 
stroke-linecap:round; stroke-linejoin:round;">
<path d="M93.770000 73.280000
L93.770000 85.430000
" />
<path d="M91.300000 71.950000
L91.300000 75.630000
" />
</g>
<g style="fill:#000000; fill-opacity:0.0; 
stroke:#000000; stroke-width:0.750000; stroke-opacity:1; 
stroke-linecap:round; stroke-linejoin:round;">
<path d="M124.280000 89.167500
L123.917501 89.529999
" />
</g>
<g style="fill:#000000; fill-opacity:0.0; 
stroke:#000000; stroke-width:1.000000; stroke-opacity:1; 
stroke-linecap:round; stroke-linejoin:round;">
<path d="M87.840000 71.950000
L91.300000 71.950000
" />
<path d="M89.900000 60.540000
L89.400000 61.040000
" />
</g>
<g style="fill:#000000; fill-opacity:0.0; 
stroke:#000000; stroke-width:0.750000; stroke-opacity:1; 
stroke-linecap:round; stroke-linejoin:round;">
<path d="M124.280000 83.840000
L123.180000 82.740000
" />
<path d="M93.800000 59.027500
L89.952500 59.027500
" />
</g>
<g style="fill:#000000; fill-opacity:0.0; 
stroke:#000000; stroke-width:1.000000; stroke-opacity:1; 
stroke-linecap:round; stroke-linejoin:round;">
<path d="M109.862500 92.010000
L109.882500 91.990000
" />
</g>
<g style="fill:#000000; fill-opacity:0.0; 
stroke:#000000; stroke-width:0.750000; stroke-opacity:1; 
stroke-linecap:round; stroke-linejoin:round;">
<path d="M122.967500 97.057500
L122.970000 97.060000
" />
<path d="M122.967500 90.480000
L122.967500 97.057500
" />
</g>
<g style="fill:#000000; fill-opacity:0.0; 
stroke:#000000; stroke-width:1.000000; stroke-opacity:1; 
stroke-linecap:round; stroke-linejoin:round;">
<path d="M87.840000 64.640000
L87.840000 71.950000
" />
<path d="M87.840000 62.600000
L89.400000 61.040000
" />
</g>
<g style="fill:#000000; fill-opacity:0.0; 
stroke:#000000; stroke-width:0.750000; stroke-opacity:1; 
stroke-linecap:round; stroke-linejoin:round;">
<path d="M124.280000 86.240000
L124.280000 89.167500
" />
<path d="M109.880001 89.529999
L107.930001 89.529999
" />
</g>
<g style="fill:#000000; fill-opacity:0.0; 
stroke:#000000; stroke-width:1.000000; stroke-opacity:1; 
stroke-linecap:round; stroke-linejoin:round;">
<path d="M90.570000 76.360000
L89.620000 76.360000
" />
<path d="M87.840000 64.640000
L87.840000 62.600000
" />
<path d="M92.440000 71.950000
L93.770000 73.280000
" />
</g>
<g style="fill:#000000; fill-opacity:0.0; 
stroke:#000000; stroke-width:0.750000; stroke-opacity:1; 
stroke-linecap:round; stroke-linejoin:round;">
<path d="M109.880001 91.972499
L109.862500 91.990000
" />
</g>
<g style="fill:#000000; fill-opacity:0.0; 
stroke:#000000; stroke-width:1.000000; stroke-opacity:1; 
stroke-linecap:round; stroke-linejoin:round;">
<path d="M89.900000 57.610000
L89.900000 60.540000
" />
<path d="M93.770000 85.430000
L97.710000 89.370000
" />
</g>
<g style="fill:#000000; fill-opacity:0.0; 
stroke:#000000; stroke-width:0.750000; stroke-opacity:1; 
stroke-linecap:round; stroke-linejoin:round;">
<path d="M123.180000 82.740000
L123.180000 80.180000
" />
<path d="M107.930001 89.529999
L106.530000 90.930000
" />
<path d="M109.880001 89.529999
L109.880001 91.972499
" />
<path d="M93.800000 59.027500
L93.760000 59.067500
" />
</g>
<g style="fill:#000000; fill-opacity:0.0; 
stroke:#000000; stroke-width:1.000000; stroke-opacity:1; 
stroke-linecap:round; stroke-linejoin:round;">
<path d="M108.190000 97.260000
L110.730000 97.260000
" />
<path d="M107.100000 96.170000
L108.190000 97.260000
" />
<path d="M104.460000 93.230000
L106.460000 93.230000
" />
<path d="M98.160000 93.230000
L104.460000 93.230000
" />
<path d="M118.830000 91.080000
L120.427500 92.677500
" />
<path d="M125.847500 56.077500
L116.280000 56.077500
" />
<path d="M110.730000 97.260000
L111.937500 96.052500
" />
<path d="M106.460000 93.230000
L107.100000 93.870000
" />
<path d="M117.130000 91.080000
L118.830000 91.080000
" />
<path d="M120.427500 92.677500
L120.427500 97.057500
" />
<path d="M127.330000 66.060000
L127.330000 57.560000
" />
<path d="M111.937500 94.580000
L111.937500 91.990000
" />
</g>
<g style="fill:#000000; fill-opacity:0.0; 
stroke:#000000; stroke-width:0.750000; stroke-opacity:1; 
stroke-linecap:round; stroke-linejoin:round;">
<path d="M116.280000 58.400000
L116.280000 56.077500
" />
</g>
<g style="fill:#000000; fill-opacity:0.0; 
stroke:#000000; stroke-width:1.000000; stroke-opacity:1; 
stroke-linecap:round; stroke-linejoin:round;">
<path d="M111.937500 96.052500
L111.937500 94.580000
" />
<path d="M127.300000 64.980000
L123.180000 64.980000
" />
<path d="M127.330000 66.060000
L127.330000 65.010000
" />
<path d="M127.330000 57.560000
L125.847500 56.077500
" />
<path d="M120.427500 97.057500
L120.430000 97.060000
" />
<path d="M111.937500 91.990000
L113.910000 91.990000
" />
<path d="M127.330000 65.010000
L127.300000 64.980000
" />
<path d="M113.910000 91.990000
L114.820000 91.080000
" />
<path d="M114.820000 91.080000
L117.130000 91.080000
" />
<path d="M107.100000 93.870000
L107.100000 96.170000
" />
<path d="M104.460000 95.530000
L104.460000 96.890000
" />
</g>
<g style="fill:#000000; fill-opacity:0.0; 
stroke:#000000; stroke-width:0.750000; stroke-opacity:1; 
stroke-linecap:round; stroke-linejoin:round;">
<path d="M93.750000 55.327500
L95.542500 55.327500
" />
</g>
<g style="fill:#000000; fill-opacity:0.0; 
stroke:#000000; stroke-width:1.000000; stroke-opacity:1; 
stroke-linecap:round; stroke-linejoin:round;">
<path d="M104.460000 96.890000
L103.410000 97.940000
" />
</g>
<g style="fill:#000000; fill-opacity:0.0; 
stroke:#000000; stroke-width:0.750000; stroke-opacity:1; 
stroke-linecap:round; stroke-linejoin:round;">
<path d="M93.800000 55.377500
L93.750000 55.327500
" />
</g>
<g style="fill:#000000; fill-opacity:0.0; 
stroke:#000000; stroke-width:1.000000; stroke-opacity:1; 
stroke-linecap:round; stroke-linejoin:round;">
<path d="M90.752498 95.402498
L90.752498 81.852499
" />
<path d="M88.070000 81.850000
L90.749999 81.850000
" />
<path d="M93.290000 97.940000
L90.752498 95.402498
" />
</g>
<g style="fill:#000000; fill-opacity:0.0; 
stroke:#000000; stroke-width:0.750000; stroke-opacity:1; 
stroke-linecap:round; stroke-linejoin:round;">
<path d="M93.800000 56.952500
L93.800000 55.377500
" />
</g>
<g style="fill:#000000; fill-opacity:0.0; 
stroke:#000000; stroke-width:1.000000; stroke-opacity:1; 
stroke-linecap:round; stroke-linejoin:round;">
<path d="M103.410000 97.940000
L93.290000 97.940000
" />
<path d="M90.749999 81.850000
L90.752498 81.852499
" />
</g>
<g style="fill:#000000; fill-opacity:0.0; 
stroke:#000000; stroke-width:0.750000; stroke-opacity:1; 
stroke-linecap:round; stroke-linejoin:round;">
<path d="M113.180000 81.800000
L110.240000 84.740000
" />
<path d="M113.180000 80.180000
L113.180000 81.800000
" />
<path d="M111.180000 81.430000
L107.640000 84.970000
" />
<path d="M111.180000 80.180000
L111.180000 81.430000
" />
<path d="M107.640000 84.970000
L105.330000 84.970000
" />
<path d="M107.490000 83.320000
L103.510000 83.320000
" />
<path d="M109.180000 81.630000
L107.490000 83.320000
" />
<path d="M109.180000 80.180000
L109.180000 81.630000
" />
<path d="M89.310000 86.890000
L89.310000 85.070000
" />
<path d="M87.890000 88.310000
L89.310000 86.890000
" />
<path d="M86.300000 57.610000
L84.990000 57.610000
" />
<path d="M89.090000 84.850000
L88.070000 84.850000
" />
<path d="M84.300000 76.360000
L86.020000 76.360000
" />
<path d="M84.120000 76.540000
L84.120000 87.590000
" />
<path d="M84.840000 88.310000
L87.890000 88.310000
" />
<path d="M84.120000 87.590000
L84.840000 88.310000
" />
<path d="M84.990000 57.610000
L84.120000 58.480000
" />
<path d="M84.120000 76.540000
L84.300000 76.360000
" />
<path d="M89.310000 85.070000
L89.090000 84.850000
" />
<path d="M84.120000 58.480000
L84.120000 76.540000
" />
<path d="M113.180000 58.400000
L113.180000 64.980000
" />
<path d="M112.252500 56.077500
L111.630000 56.700000
" />
<path d="M111.630000 56.700000
L111.630000 60.410000
" />
<path d="M108.820000 62.790000
L97.650000 62.790000
" />
<path d="M113.180000 56.077500
L112.252500 56.077500
" />
<path d="M111.630000 60.410000
L109.180000 62.860000
" />
<path d="M109.180000 64.980000
L109.180000 63.150000
" />
<path d="M109.180000 62.860000
L109.180000 63.150000
" />
<path d="M97.650000 62.790000
L97.020000 63.420000
" />
<path d="M97.020000 63.420000
L97.020000 64.640000
" />
<path d="M109.180000 63.150000
L108.820000 62.790000
" />
<path d="M117.180000 87.930000
L117.180000 80.180000
" />
<path d="M97.020000 71.950000
L97.020000 84.090000
" />
<path d="M117.130000 87.980000
L117.230000 87.880000
" />
<path d="M117.110000 88.000000
L117.130000 87.980000
" />
<path d="M100.930000 88.000000
L117.110000 88.000000
" />
<path d="M97.020000 84.090000
L100.930000 88.000000
" />
<path d="M117.130000 87.980000
L117.180000 87.930000
" />
</g>
<g style="fill:#000000; fill-opacity:0.0; 
stroke:#000000; stroke-width:1.000000; stroke-opacity:1; 
stroke-linecap:round; stroke-linejoin:round;">
<path d="M121.180000 86.240000
L121.180000 80.180000
" />
</g>
<g style="fill:#000000; fill-opacity:0.0; 
stroke:#000000; stroke-width:0.750000; stroke-opacity:1; 
stroke-linecap:round; stroke-linejoin:round;">
<path d="M117.180000 64.980000
L117.180000 60.680000
" />
<path d="M121.180000 63.670000
L124.170000 60.680000
" />
<path d="M121.180000 64.980000
L121.180000 63.670000
" />
<path d="M124.170000 60.680000
L124.180000 60.680000
" />
<path d="M119.180000 64.980000
L119.180000 62.180000
" />
<path d="M119.180000 62.180000
L120.680000 60.680000
" />
</g>
<g >
</g>
<g style="fill:#000000; fill-opacity:0.0; 
stroke:#000000; stroke-width:0.750000; stroke-opacity:1; 
stroke-linecap:round; stroke-linejoin:round;">
<g >
</g>
<g style="fill:#000000; fill-opacity:1.000000; 
stroke:#000000; stroke-width:0.000000; stroke-opacity:1; 
stroke-linecap:round; stroke-linejoin:round;">
<path style="fill:#000000; fill-opacity:1.000000; 
stroke:#000000; stroke-width:0.000000; stroke-opacity:1; 
stroke-linecap:round; stroke-linejoin:round;fill-rule:evenodd;"
d="M 125.533768,79.094094
125.630000,79.133955
125.712635,79.197363
125.776044,79.279999
125.815904,79.376230
125.829500,79.479499
125.829500,84.373146
125.812319,84.488970
125.762256,84.594819
125.683623,84.681577
125.583190,84.741774
125.469608,84.770225
125.352659,84.764479
125.242412,84.725032
125.101051,84.649472
125.065002,84.634541
124.904597,84.585883
124.866327,84.578270
124.741340,84.565960
124.721785,84.565000
124.706150,84.565000
124.683042,84.568042
124.680000,84.591150
124.680000,87.888850
124.683042,87.911957
124.706150,87.915000
124.721785,87.915000
124.741340,87.914039
124.866327,87.901729
124.904597,87.894116
125.065002,87.845458
125.101051,87.830527
125.242412,87.754968
125.352659,87.715521
125.469608,87.709775
125.583190,87.738226
125.683623,87.798423
125.762256,87.885181
125.812319,87.991030
125.829500,88.106854
125.829500,96.393200
125.815904,96.496469
125.776044,96.592700
125.712636,96.675336
125.451136,96.936836
125.357087,97.006587
125.246841,97.046033
125.129891,97.051779
125.016309,97.023328
124.915877,96.963131
124.837244,96.876373
124.787181,96.770524
124.770000,96.654700
124.770000,96.026265
124.768746,96.003953
124.757385,95.903119
124.747478,95.859711
124.702735,95.731844
124.683414,95.691724
124.611347,95.577029
124.583578,95.542207
124.487792,95.446421
124.452970,95.418652
124.338275,95.346585
124.298155,95.327264
124.170288,95.282521
124.126880,95.272614
124.026046,95.261253
124.003735,95.260000
123.396150,95.260000
123.373042,95.263042
123.370000,95.286150
123.370000,97.061000
123.356404,97.164269
123.316544,97.260500
123.253136,97.343136
123.170500,97.406544
123.074269,97.446404
122.971000,97.460000
122.969000,97.460000
122.865731,97.446404
122.769500,97.406544
122.686864,97.343136
122.623456,97.260500
122.583596,97.164269
122.570000,97.061000
122.570000,95.286150
122.566957,95.263042
122.543850,95.260000
122.327000,95.260000
122.223731,95.246404
122.127500,95.206544
122.044864,95.143136
121.981456,95.060500
121.941596,94.964269
121.928000,94.861000
121.928000,92.795437
121.929417,92.772599
121.929134,92.772588
121.929816,92.756094
121.931857,92.739721
121.928341,92.654718
121.928000,92.638228
121.928000,92.623678
121.928000,92.615433
121.926114,92.592682
121.925095,92.576269
121.921580,92.491263
121.918190,92.475098
121.916379,92.460571
121.913971,92.446143
121.912608,92.429679
121.891719,92.347190
121.888001,92.331118
121.873936,92.264038
121.873935,92.264034
121.870549,92.247886
121.864551,92.232514
121.860367,92.218461
121.855613,92.204614
121.851563,92.188619
121.817389,92.110710
121.811078,92.095473
121.810555,92.094132
121.780156,92.016226
121.771701,92.002037
121.765276,91.988895
121.758305,91.976014
121.751673,91.960893
121.705134,91.889659
121.696420,91.875698
121.661317,91.816788
121.661315,91.816785
121.652866,91.802606
121.642197,91.790009
121.633691,91.778096
121.624692,91.766533
121.615664,91.752715
121.600202,91.735919
121.558051,91.690131
121.547130,91.677764
121.545673,91.676044
121.532402,91.660374
121.516268,91.644240
121.504851,91.632340
121.458420,91.581902
121.458417,91.581899
121.447244,91.569762
121.434222,91.559627
121.422080,91.548449
121.422272,91.548239
121.405127,91.533099
119.974398,90.102370
119.959258,90.085226
119.959049,90.085419
119.947876,90.073282
119.937738,90.060256
119.925597,90.049080
119.925594,90.049076
119.875158,90.002647
119.863257,89.991229
119.852948,89.980920
119.847126,89.975098
119.829726,89.960361
119.817372,89.949451
119.770477,89.906282
119.754785,89.891836
119.740963,89.882806
119.729393,89.873800
119.717485,89.865298
119.704894,89.854634
119.631809,89.811084
119.617826,89.802356
119.560418,89.764850
119.560417,89.764849
119.546607,89.755827
119.531500,89.749200
119.518609,89.742224
119.505447,89.735789
119.491274,89.727344
119.475905,89.721347
119.475895,89.721342
119.412028,89.696421
119.396799,89.690114
119.333984,89.662561
119.333976,89.662558
119.318881,89.655937
119.302893,89.651888
119.289053,89.647137
119.274989,89.642950
119.259614,89.636951
119.176355,89.619492
119.160295,89.615777
119.154162,89.614224
119.112039,89.603557
119.086438,89.597074
118.974304,89.549498
118.881750,89.470307
118.817401,89.366882
118.787256,89.248863
118.794122,89.127247
118.837211,89.013765
118.847007,88.999626
118.940096,88.794683
118.995096,88.576412
119.005500,88.444217
119.005499,87.776060
119.021231,87.665126
119.067186,87.562939
119.139741,87.477558
119.233174,87.415716
119.340117,87.382290
119.452137,87.379915
119.560400,87.408779
119.656370,87.466607
119.732478,87.548837
119.805978,87.654928
119.805982,87.654933
119.816181,87.669654
119.975346,87.828819
120.160374,87.957007
120.365317,88.050096
120.583588,88.105096
120.715783,88.115500
121.644216,88.115499
121.776412,88.105096
121.994683,88.050096
122.199626,87.957007
122.384654,87.828819
122.543819,87.669654
122.554028,87.654918
122.559322,87.648577
122.640848,87.574615
122.739480,87.525744
122.847713,87.505683
122.957308,87.515959
123.059925,87.555791
123.133611,87.611461
123.133945,87.611055
123.144040,87.619340
123.147753,87.622145
123.149102,87.623494
123.278671,87.729829
123.311118,87.751509
123.458952,87.830528
123.494997,87.845458
123.655402,87.894116
123.693672,87.901729
123.818659,87.914039
123.838215,87.915000
123.853850,87.915000
123.876957,87.911957
123.880000,87.888850
123.880000,84.591150
123.876957,84.568042
123.853850,84.565000
123.838215,84.565000
123.818659,84.565960
123.693672,84.578270
123.655402,84.585883
123.494997,84.634541
123.458952,84.649471
123.311109,84.728494
123.301175,84.735133
123.189960,84.786784
123.068312,84.802222
122.947720,84.779989
122.839576,84.722185
122.754092,84.634270
122.699343,84.524546
122.680500,84.403379
122.680500,82.489506
122.689958,82.403147
122.717883,82.320882
122.762951,82.246611
122.776735,82.228646
122.780000,82.203850
123.580000,82.203850
123.583042,82.226957
123.606150,82.230000
123.713735,82.230000
123.736046,82.228746
123.836880,82.217385
123.880288,82.207478
124.008155,82.162735
124.048275,82.143414
124.162970,82.071347
124.197792,82.043578
124.293578,81.947792
124.321347,81.912970
124.393414,81.798275
124.412735,81.758155
124.457478,81.630288
124.467385,81.586880
124.478746,81.486046
124.480000,81.463735
124.480000,80.606150
124.476957,80.583042
124.453850,80.580000
123.606150,80.580000
123.583042,80.583042
123.580000,80.606150
123.580000,82.203850
122.780000,82.203850
122.780000,80.179000
122.793596,80.075731
122.833456,79.979500
122.896864,79.896864
122.979500,79.833456
123.075731,79.793596
123.179000,79.780000
124.453850,79.780000
124.476957,79.776957
124.480000,79.753850
124.480000,79.479500
124.499528,79.356202
124.556202,79.244974
124.644473,79.156702
124.755702,79.100029
124.878999,79.080500
125.346621,79.080499
125.430499,79.080499
Z" /> 
<path style="fill:#000000; fill-opacity:1.000000; 
stroke:#000000; stroke-width:0.000000; stroke-opacity:1; 
stroke-linecap:round; stroke-linejoin:round;fill-rule:evenodd;"
d="M 100.333683,56.715338
100.426049,56.751589
100.484864,56.793873
100.493834,56.798193
100.522410,56.802500
102.248500,56.802500
102.351769,56.816096
102.448000,56.855956
102.530636,56.919364
102.594044,57.002000
102.633904,57.098231
102.647500,57.201500
102.647500,58.933891
102.651041,58.958426
102.661339,58.958364
102.663452,58.957882
102.892687,58.887172
102.920410,58.876292
103.136569,58.772196
103.139883,58.770283
103.143636,58.768792
103.150024,58.765717
103.150242,58.766170
103.247627,58.727513
103.363118,58.717520
103.476607,58.741147
103.578515,58.796399
103.685240,58.876293
103.703185,58.889726
103.755567,58.918329
103.838310,58.978445
103.903053,59.057621
103.945540,59.150655
103.962981,59.251434
103.954229,59.353336
103.917834,59.520642
103.914804,59.534572
103.913787,59.548782
103.913786,59.548794
103.900543,59.733965
103.874374,59.850261
103.815017,59.953636
103.727773,60.034863
103.620426,60.086694
103.502560,60.104500
95.685912,60.104500
95.563858,60.085373
95.453505,60.029827
95.365434,59.943187
95.308088,59.833759
95.286966,59.712034
95.301382,59.609032
95.300294,59.608816
95.304069,59.589833
95.304091,59.589683
95.304116,59.589597
95.311729,59.551328
95.321201,59.455156
95.320206,59.430869
95.296134,59.427500
94.226150,59.427500
94.203042,59.430542
94.200000,59.453650
94.200000,60.388850
94.203325,60.414108
94.210356,60.431083
94.249323,60.500664
94.274594,60.612348
94.267105,60.726609
94.227472,60.834038
94.158960,60.925787
93.487322,61.597425
93.468801,61.614802
93.423359,61.654797
93.412716,61.667977
93.412712,61.667982
93.361654,61.731216
93.356270,61.737740
93.303853,61.799911
93.303846,61.799919
93.292930,61.812868
93.285492,61.825541
93.276265,61.836970
93.268006,61.851753
93.268002,61.851760
93.228360,61.922723
93.224155,61.930065
93.174426,62.014809
93.169237,62.028557
93.162074,62.041381
93.156433,62.057345
93.156433,62.057346
93.129356,62.133980
93.126453,62.141926
93.097734,62.218028
93.097731,62.218036
93.091755,62.233874
93.088965,62.248299
93.084071,62.262151
93.081209,62.278842
93.067466,62.358986
93.065948,62.367303
93.050511,62.447124
93.050509,62.447136
93.047295,62.463759
93.046983,62.478446
93.044500,62.492928
93.044500,62.509872
93.044500,62.591176
93.044410,62.599645
93.042684,62.680910
93.042684,62.680917
93.042325,62.697850
93.044107,62.709755
93.044500,62.722083
93.044500,66.483488
93.043691,66.508880
93.040916,66.552386
93.040916,66.552393
93.039838,66.569301
93.041632,66.586149
93.041633,66.586154
93.050248,66.667021
93.051055,66.675447
93.057946,66.756414
93.057947,66.756421
93.059384,66.773301
93.063085,66.787516
93.064642,66.802128
93.069259,66.818434
93.069260,66.818437
93.091404,66.896637
93.093624,66.904805
93.118383,66.999890
93.124435,67.013279
93.128438,67.027414
93.135743,67.042701
93.135744,67.042704
93.170796,67.116058
93.174366,67.123738
93.207845,67.197803
93.207847,67.197807
93.214828,67.213250
93.223054,67.225421
93.229389,67.238678
93.239173,67.252513
93.239175,67.252515
93.286119,67.318890
93.290904,67.325810
93.345943,67.407241
93.356107,67.417845
93.364592,67.429843
93.376577,67.441828
93.434081,67.499332
93.440006,67.505385
93.496228,67.564047
93.496233,67.564051
93.507956,67.576283
93.517636,67.583442
93.526619,67.591870
94.297413,68.362664
94.314795,68.381191
94.343594,68.413914
94.343605,68.413925
94.354797,68.426641
94.367981,68.437286
94.431253,68.488374
94.437729,68.493717
94.512868,68.557069
94.525536,68.564503
94.536970,68.573735
94.551764,68.581999
94.551768,68.582002
94.622764,68.621663
94.630108,68.625868
94.714809,68.675573
94.728552,68.680759
94.741381,68.687926
94.834054,68.720669
94.841990,68.723569
94.933874,68.758245
94.948299,68.761034
94.962151,68.765929
95.058979,68.782531
95.067276,68.784044
95.117988,68.793852
95.147114,68.799486
95.147116,68.799486
95.163759,68.802705
95.178446,68.803016
95.192928,68.805500
95.291176,68.805500
95.299645,68.805590
95.397850,68.807675
95.409755,68.805892
95.422083,68.805500
97.394978,68.805500
97.498247,68.819096
97.594478,68.858956
97.677113,68.922364
97.937635,69.182885
98.001044,69.265521
98.040904,69.361752
98.054500,69.465021
98.054500,69.750500
98.034972,69.873798
97.978298,69.985026
97.890026,70.073298
97.778798,70.129971
97.655500,70.149500
95.880804,70.149500
95.880781,70.149500
95.871964,70.149501
95.863173,70.150282
95.863162,70.150283
95.771468,70.158435
95.752582,70.160114
95.734351,70.165330
95.734348,70.165331
95.576405,70.210524
95.576400,70.210525
95.556951,70.216091
95.539024,70.225454
95.539017,70.225458
95.394531,70.300931
95.394523,70.300935
95.376593,70.310302
95.360908,70.323090
95.360907,70.323092
95.234578,70.426099
95.234572,70.426104
95.218891,70.438891
95.206104,70.454572
95.206099,70.454578
95.103832,70.580000
95.090302,70.596593
95.080935,70.614523
95.080931,70.614531
95.005458,70.759017
95.005454,70.759024
94.996091,70.776951
94.990525,70.796400
94.990524,70.796405
94.960143,70.902582
94.940114,70.972582
94.938434,70.991471
94.938433,70.991480
94.934936,71.030817
94.929500,71.091963
94.929500,71.100816
94.929500,71.100817
94.929500,72.799195
94.929500,72.799217
94.929501,72.808036
94.940114,72.927418
94.996091,73.123049
95.005456,73.140978
95.005458,73.140982
95.053508,73.232970
95.090302,73.303407
95.218891,73.461109
95.376593,73.589698
95.394535,73.599070
95.430234,73.617718
95.518560,73.680447
95.586755,73.764625
95.629793,73.864044
95.644500,73.971376
95.644500,84.033488
95.643691,84.058880
95.640916,84.102386
95.640916,84.102393
95.639838,84.119301
95.641632,84.136149
95.641633,84.136154
95.650248,84.217021
95.651055,84.225447
95.657946,84.306414
95.657947,84.306421
95.659384,84.323301
95.663085,84.337516
95.664642,84.352128
95.669259,84.368434
95.669260,84.368437
95.691404,84.446637
95.693624,84.454805
95.711783,84.524546
95.718383,84.549890
95.724435,84.563279
95.728438,84.577414
95.735743,84.592701
95.735744,84.592704
95.770796,84.666058
95.774366,84.673738
95.807845,84.747803
95.807847,84.747807
95.814828,84.763250
95.823054,84.775421
95.829389,84.788678
95.839173,84.802513
95.839175,84.802515
95.886119,84.868890
95.890904,84.875810
95.945943,84.957241
95.956107,84.967845
95.964592,84.979843
95.976577,84.991828
96.034081,85.049332
96.040006,85.055385
96.096228,85.114047
96.096233,85.114051
96.107956,85.126283
96.117636,85.133442
96.126619,85.141870
99.917413,88.932664
99.934795,88.951191
99.963594,88.983914
99.963605,88.983925
99.974797,88.996641
99.987981,89.007286
100.051253,89.058374
100.057729,89.063717
100.132868,89.127069
100.145537,89.134503
100.156970,89.143735
100.171769,89.152002
100.242722,89.191639
100.250074,89.195849
100.334809,89.245574
100.348557,89.250762
100.361381,89.257926
100.454072,89.290675
100.461863,89.293522
100.553874,89.328245
100.568299,89.331034
100.582151,89.335929
100.678979,89.352531
100.687276,89.354044
100.737988,89.363852
100.767114,89.369486
100.767116,89.369486
100.783759,89.372705
100.798446,89.373016
100.812928,89.375500
100.911176,89.375500
100.919645,89.375590
101.017850,89.377675
101.029755,89.375892
101.042083,89.375500
102.331607,89.375500
102.438988,89.390221
102.538446,89.433298
102.622641,89.501552
102.685360,89.589947
102.721976,89.691961
102.729787,89.800064
102.708216,89.906282
102.682522,89.979709
102.672614,90.023119
102.661253,90.123953
102.660000,90.146265
102.660000,90.503850
102.663042,90.526957
102.686150,90.530000
106.233850,90.530000
106.256957,90.526957
106.260000,90.503850
106.260000,90.146265
106.258746,90.123953
106.247385,90.023119
106.237477,89.979709
106.211784,89.906282
106.190213,89.800064
106.198024,89.691961
106.234640,89.589947
106.297359,89.501552
106.381554,89.433298
106.481012,89.390221
106.588393,89.375500
113.434848,89.375500
113.548697,89.392087
113.653081,89.440471
113.739319,89.516627
113.800242,89.614224
113.830784,89.725148
113.828406,89.840175
113.793305,89.949741
113.728401,90.044737
113.724407,90.049075
113.712262,90.060256
113.702121,90.073283
113.690953,90.085416
113.690743,90.085223
113.675599,90.102371
113.405336,90.372635
113.322700,90.436044
113.226469,90.475904
113.123200,90.489500
113.113896,90.489500
113.012071,90.476288
112.916990,90.437529
112.909351,90.433194
112.894626,90.422993
112.878314,90.415584
112.878311,90.415582
112.705994,90.337312
112.705986,90.337309
112.689683,90.329904
112.672317,90.325528
112.672311,90.325526
112.487694,90.279006
112.487685,90.279004
112.471412,90.274904
112.454676,90.273586
112.454671,90.273586
112.347019,90.265114
112.347018,90.265113
112.339217,90.264500
112.331391,90.264500
111.543612,90.264500
111.543586,90.264500
111.535784,90.264501
111.527987,90.265114
111.527976,90.265115
111.420339,90.273585
111.420329,90.273586
111.403588,90.274904
111.387299,90.279008
111.387296,90.279009
111.202688,90.325526
111.202679,90.325529
111.185317,90.329904
111.169016,90.337307
111.169005,90.337312
110.996684,90.415584
110.996677,90.415587
110.980374,90.422993
110.965654,90.433191
110.965640,90.433199
110.906506,90.474167
110.799383,90.526683
110.681523,90.545181
110.563463,90.528007
110.424593,90.485882
110.386328,90.478270
110.290156,90.468798
110.265869,90.469793
110.262500,90.493866
110.262500,94.581000
110.248904,94.684269
110.209044,94.780500
110.145636,94.863136
110.063000,94.926544
109.966769,94.966404
109.863500,94.980000
109.861500,94.980000
109.758231,94.966404
109.662000,94.926544
109.579364,94.863136
109.515956,94.780500
109.476096,94.684269
109.462500,94.581000
109.462500,92.416150
109.459457,92.393042
109.436350,92.390000
108.501150,92.390000
108.476847,92.393199
108.453280,92.423913
108.434767,92.455297
108.353706,92.531931
108.254598,92.583131
108.145189,92.604892
108.034032,92.595516
107.929815,92.555734
107.840684,92.488656
107.604398,92.252370
107.589258,92.235226
107.589049,92.235419
107.577876,92.223282
107.567738,92.210256
107.555597,92.199080
107.555594,92.199076
107.505158,92.152647
107.493257,92.141229
107.482948,92.130920
107.477126,92.125098
107.459726,92.110361
107.447372,92.099451
107.424190,92.078111
107.384785,92.041836
107.370963,92.032806
107.359393,92.023800
107.347485,92.015298
107.334894,92.004634
107.261809,91.961084
107.247826,91.952356
107.190418,91.914850
107.190417,91.914849
107.176607,91.905827
107.161500,91.899200
107.148609,91.892224
107.135447,91.885789
107.121274,91.877344
107.105905,91.871347
107.105895,91.871342
107.042028,91.846421
107.026799,91.840114
106.963984,91.812561
106.963976,91.812558
106.948881,91.805937
106.932893,91.801888
106.919053,91.797137
106.904989,91.792950
106.889614,91.786951
106.806355,91.769492
106.790297,91.765777
106.723817,91.748942
106.723809,91.748940
106.707821,91.744892
106.691386,91.743529
106.676922,91.741116
106.662378,91.739303
106.646237,91.735919
106.629754,91.735237
106.613377,91.733196
106.613762,91.730107
106.523235,91.712298
106.416548,91.653994
106.332372,91.566268
106.331177,91.563850
108.475000,91.563850
108.478042,91.586957
108.501150,91.590000
109.436350,91.590000
109.459457,91.586957
109.462500,91.563850
109.462500,90.493866
109.459130,90.469793
109.434843,90.468798
109.338671,90.478270
109.300403,90.485882
109.139997,90.534541
109.103952,90.549471
108.956118,90.628490
108.923671,90.650170
108.794102,90.756505
108.766505,90.784102
108.660170,90.913671
108.638490,90.946118
108.559471,91.093952
108.544541,91.129997
108.495883,91.290402
108.488270,91.328672
108.475960,91.453659
108.475000,91.473215
108.475000,91.563850
106.331177,91.563850
106.278523,91.457265
106.266863,91.381626
106.263414,91.382081
106.256957,91.333042
106.233850,91.330000
102.686150,91.330000
102.663042,91.333042
102.656586,91.382081
102.653266,91.381643
102.646404,91.433769
102.606544,91.530000
102.543136,91.612636
102.460500,91.676044
102.364269,91.715904
102.261000,91.729500
100.559499,91.729500
100.456230,91.715904
100.359999,91.676044
100.277363,91.612636
100.213955,91.530000
100.174095,91.433769
100.160499,91.330500
100.160499,91.280804
100.160499,91.271964
100.149886,91.152582
100.093909,90.956951
99.999698,90.776593
99.871109,90.618891
99.713407,90.490302
99.695471,90.480933
99.695468,90.480931
99.550982,90.405458
99.550978,90.405456
99.533049,90.396091
99.513596,90.390524
99.513594,90.390524
99.355658,90.345333
99.355656,90.345332
99.337418,90.340114
99.318526,90.338434
99.318519,90.338433
99.226859,90.330284
99.226851,90.330283
99.218037,90.329500
99.209182,90.329500
97.110804,90.329500
97.110781,90.329500
97.101964,90.329501
97.093173,90.330282
97.093162,90.330283
97.001468,90.338435
96.982582,90.340114
96.964351,90.345330
96.964348,90.345331
96.806405,90.390524
96.806400,90.390525
96.786951,90.396091
96.769024,90.405454
96.769017,90.405458
96.624531,90.480931
96.624523,90.480935
96.606593,90.490302
96.590908,90.503090
96.590907,90.503092
96.464578,90.606099
96.464572,90.606104
96.448891,90.618891
96.436104,90.634572
96.436099,90.634578
96.333092,90.760907
96.320302,90.776593
96.310935,90.794523
96.310931,90.794531
96.235458,90.939017
96.235454,90.939024
96.226091,90.956951
96.220525,90.976400
96.220524,90.976405
96.176576,91.129997
96.170114,91.152582
96.168435,91.171468
96.168433,91.171480
96.160284,91.263140
96.159500,91.271963
96.159500,91.280816
96.159500,91.280817
96.159500,95.179195
96.159500,95.179217
96.159501,95.188036
96.160282,95.196827
96.160283,95.196837
96.166010,95.261253
96.170114,95.307418
96.175330,95.325649
96.175331,95.325651
96.212723,95.456332
96.226091,95.503049
96.235456,95.520978
96.235458,95.520982
96.270849,95.588735
96.320302,95.683407
96.333089,95.699089
96.333091,95.699092
96.405876,95.788355
96.463805,95.884314
96.492759,95.992599
96.490452,96.104664
96.457066,96.211665
96.395236,96.305159
96.309842,96.377765
96.207623,96.423756
96.096645,96.439500
94.076800,96.439500
93.973531,96.425904
93.877300,96.386044
93.794664,96.322636
92.369862,94.897834
92.306454,94.815198
92.266594,94.718967
92.252998,94.615698
92.252998,81.970436
92.254415,81.947598
92.254132,81.947587
92.254814,81.931093
92.256855,81.914720
92.253339,81.829717
92.252998,81.813227
92.252998,81.798679
92.252998,81.790432
92.251861,81.776722
92.250499,81.743773
92.250499,81.742176
92.250499,81.725665
92.249957,81.722423
92.250411,81.713923
92.248552,81.714000
92.246578,81.666262
92.243188,81.650099
92.241377,81.635568
92.238969,81.621140
92.237606,81.604678
92.220266,81.536204
92.213497,81.503922
92.213253,81.502460
92.209570,81.480386
92.204930,81.466871
92.203213,81.459447
92.195547,81.422885
92.189544,81.407503
92.185359,81.393443
92.180612,81.379616
92.176561,81.363618
92.169930,81.348501
92.161605,81.329520
92.136490,81.251124
92.127998,81.169243
92.127998,80.309010
92.128807,80.283618
92.131581,80.240111
92.132660,80.223197
92.122254,80.125525
92.121445,80.117086
92.113114,80.019197
92.109411,80.004975
92.107855,79.990370
92.081077,79.895807
92.078882,79.887728
92.058388,79.809017
92.058386,79.809011
92.054115,79.792608
92.048062,79.779218
92.044060,79.765084
92.001696,79.676429
91.998161,79.668825
91.957670,79.579248
91.949443,79.567076
91.943109,79.553820
91.933326,79.539988
91.933321,79.539979
91.886369,79.473593
91.881555,79.466630
91.836056,79.399313
91.836051,79.399307
91.826555,79.385257
91.816390,79.374652
91.807906,79.362655
91.738415,79.293164
91.732490,79.287111
91.676271,79.228453
91.664542,79.216215
91.654859,79.209053
91.645876,79.200625
90.779846,78.334595
90.713220,78.246278
90.673405,78.143062
90.663463,78.032880
90.684157,77.924204
90.733897,77.825387
90.808860,77.744027
90.900899,77.668492
90.928494,77.640897
91.034829,77.511328
91.056509,77.478881
91.135528,77.331047
91.150458,77.295002
91.199116,77.134597
91.206729,77.096327
91.219039,76.971340
91.220000,76.951785
91.220000,76.786150
91.216957,76.763042
91.193850,76.760000
89.619000,76.760000
89.515731,76.746404
89.419500,76.706544
89.336864,76.643136
89.273456,76.560500
89.233596,76.464269
89.220000,76.361000
89.220000,75.933850
90.020000,75.933850
90.023042,75.956957
90.046150,75.960000
91.193850,75.960000
91.216957,75.956957
91.220000,75.933850
91.220000,75.768215
91.219039,75.748659
91.206729,75.623672
91.199116,75.585402
91.150458,75.424997
91.135528,75.388952
91.056509,75.241118
91.034829,75.208671
90.928494,75.079102
90.900897,75.051505
90.771328,74.945170
90.738881,74.923490
90.591047,74.844471
90.555002,74.829541
90.394597,74.780883
90.356327,74.773270
90.231340,74.760960
90.211785,74.760000
90.046150,74.760000
90.023042,74.763042
90.020000,74.786150
90.020000,75.933850
89.220000,75.933850
89.220000,74.786150
89.216800,74.761847
89.202106,74.750572
89.135010,74.685235
89.084993,74.606058
89.079217,74.593971
89.075663,74.586327
89.035172,74.496750
89.026945,74.484578
89.020611,74.471322
89.010828,74.457490
89.010823,74.457481
88.963871,74.391095
88.959057,74.384132
88.913558,74.316815
88.913553,74.316809
88.904057,74.302759
88.893892,74.292154
88.885408,74.280157
88.824114,74.218863
88.757036,74.129730
88.717253,74.025512
88.707878,73.914353
88.729641,73.804943
88.780843,73.705835
88.857481,73.624774
88.953564,73.568097
89.061581,73.540235
89.086886,73.537384
89.130288,73.527478
89.258155,73.482735
89.298275,73.463414
89.412970,73.391347
89.447792,73.363578
89.543578,73.267792
89.571347,73.232970
89.643414,73.118275
89.662735,73.078155
89.707478,72.950288
89.717385,72.906880
89.728746,72.806046
89.730000,72.783735
89.730000,72.376150
89.726957,72.353042
89.703850,72.350000
87.839000,72.350000
87.735731,72.336404
87.639500,72.296544
87.556864,72.233136
87.493456,72.150500
87.453596,72.054269
87.440000,71.951000
87.440000,71.523850
88.240000,71.523850
88.243042,71.546957
88.266150,71.550000
89.703850,71.550000
89.726957,71.546957
89.730000,71.523850
89.730000,71.116265
89.728746,71.093953
89.717385,70.993119
89.707478,70.949711
89.662735,70.821844
89.643414,70.781724
89.571347,70.667029
89.543578,70.632207
89.447792,70.536421
89.412970,70.508652
89.298275,70.436585
89.258155,70.417264
89.130288,70.372521
89.086880,70.362614
88.986046,70.351253
88.963735,70.350000
88.266150,70.350000
88.243042,70.353042
88.240000,70.376150
88.240000,71.523850
87.440000,71.523850
87.440000,70.376150
87.436957,70.353042
87.413850,70.350000
87.394500,70.350000
87.291231,70.336404
87.195000,70.296544
87.112364,70.233136
87.048956,70.150500
87.009096,70.054269
86.995500,69.951000
86.995500,66.639000
87.009096,66.535731
87.048956,66.439500
87.112364,66.356864
87.195000,66.293456
87.291231,66.253596
87.394500,66.240000
87.413850,66.240000
87.436957,66.236957
87.440000,66.213850
88.240000,66.213850
88.243042,66.236957
88.266150,66.240000
88.963735,66.240000
88.986046,66.238746
89.086880,66.227385
89.130288,66.217478
89.258155,66.172735
89.298275,66.153414
89.412970,66.081347
89.447792,66.053578
89.543578,65.957792
89.571347,65.922970
89.643414,65.808275
89.662735,65.768155
89.707478,65.640288
89.717385,65.596880
89.728746,65.496046
89.730000,65.473735
89.730000,65.066150
89.726957,65.043042
89.703850,65.040000
88.266150,65.040000
88.243042,65.043042
88.240000,65.066150
88.240000,66.213850
87.440000,66.213850
87.440000,64.213850
88.240000,64.213850
88.243042,64.236957
88.266150,64.240000
89.703850,64.240000
89.726957,64.236957
89.730000,64.213850
89.730000,63.806265
89.728746,63.783953
89.717385,63.683119
89.707478,63.639711
89.662735,63.511844
89.643414,63.471724
89.571347,63.357029
89.543578,63.322207
89.447792,63.226421
89.412970,63.198652
89.298275,63.126585
89.258155,63.107264
89.130288,63.062521
89.086880,63.052614
88.986046,63.041253
88.963735,63.040000
88.266150,63.040000
88.243042,63.043042
88.240000,63.066150
88.240000,64.213850
87.440000,64.213850
87.440000,63.066150
87.436957,63.043042
87.413850,63.040000
87.394500,63.040000
87.291231,63.026404
87.195000,62.986544
87.112364,62.923136
87.048956,62.840500
87.009096,62.744269
86.995500,62.641000
86.995500,62.375023
87.009096,62.271754
87.048956,62.175523
87.112364,62.092888
89.002668,60.202582
89.021202,60.185193
89.066641,60.145203
89.128420,60.068689
89.133713,60.062274
89.197069,59.987132
89.204503,59.974463
89.213735,59.963030
89.261671,59.877217
89.265868,59.869891
89.315573,59.785191
89.320759,59.771447
89.327926,59.758619
89.360650,59.665999
89.363559,59.658035
89.398246,59.566124
89.399390,59.566555
89.421811,59.510841
89.459590,59.455156
92.278798,59.455156
92.288270,59.551328
92.295882,59.589596
92.344541,59.750002
92.359471,59.786047
92.438490,59.933881
92.460170,59.966328
92.566505,60.095897
92.594102,60.123494
92.723671,60.229829
92.756118,60.251509
92.903952,60.330528
92.939997,60.345458
93.100402,60.394116
93.138672,60.401729
93.263659,60.414039
93.283215,60.415000
93.373850,60.415000
93.396957,60.411957
93.400000,60.388850
93.400000,59.453650
93.396957,59.430542
93.373850,59.427500
92.303866,59.427500
92.279793,59.430869
92.278798,59.455156
89.459590,59.455156
89.469549,59.440476
89.479823,59.430687
89.496735,59.408647
89.500000,59.383850
89.500000,57.609000
89.513596,57.505731
89.553456,57.409500
89.616864,57.326864
89.699500,57.263456
89.795731,57.223596
89.899000,57.210000
89.901000,57.210000
90.004269,57.223596
90.100500,57.263456
90.183136,57.326864
90.246544,57.409500
90.286404,57.505731
90.300000,57.609000
90.300000,59.383849
90.303042,59.406956
90.326150,59.409999
90.666512,59.409999
90.678356,59.409646
90.704755,59.408074
90.735268,59.403872
90.909210,59.366034
90.945256,59.354511
91.105614,59.285841
91.138828,59.267706
91.283298,59.169926
91.312477,59.145834
91.435834,59.022477
91.459926,58.993298
91.557706,58.848828
91.575837,58.815622
91.610742,58.734112
91.675013,58.631011
91.767332,58.552032
91.879139,58.504497
92.000069,58.492813
92.118909,58.518064
92.224640,58.577908
92.235600,58.589671
92.236075,58.589103
92.277698,58.623837
92.303866,58.627500
95.296134,58.627500
95.320206,58.624130
95.321201,58.599843
95.311729,58.503671
95.304117,58.465403
95.261993,58.326538
95.244818,58.208475
95.263317,58.090612
95.315835,57.983488
95.323940,57.971790
95.367007,57.909626
95.460096,57.704683
95.484889,57.606290
100.497259,57.606290
100.499160,57.631650
100.519322,57.719985
100.528101,57.748446
100.615757,57.971790
100.628671,57.998606
100.748633,58.206386
100.765410,58.230994
100.915001,58.418575
100.935245,58.440393
101.111129,58.603589
101.134407,58.622153
101.332640,58.757306
101.358425,58.772193
101.574590,58.876293
101.602313,58.887173
101.831547,58.957882
101.833660,58.958364
101.843958,58.958426
101.847500,58.933891
101.847500,57.628650
101.844457,57.605542
101.821350,57.602500
100.522410,57.602500
100.497259,57.606290
95.484889,57.606290
95.515096,57.486412
95.525500,57.354217
95.525500,57.102000
95.539096,56.998731
95.578956,56.902500
95.642364,56.819864
95.725000,56.756456
95.821231,56.716596
95.924500,56.703000
100.235228,56.703000
Z" /> 
</g>
</g>
</g>
<g style="fill:#FFFFFF; fill-opacity:1.000000; 
stroke:#FFFFFF; stroke-width:0.000000; stroke-opacity:1; 
stroke-linecap:round; stroke-linejoin:round;">
<circle cx="105.900000" cy="59.820000" r="0.175000" /> 
</g>
<g style="fill:#FFFFFF; fill-opacity:1.000000; 
stroke:#FFFFFF; stroke-width:0.021200; stroke-opacity:1; 
stroke-linecap:round; stroke-linejoin:round;">
</g>
<g style="fill:#FFFFFF; fill-opacity:1.000000; 
stroke:#FFFFFF; stroke-width:0.000000; stroke-opacity:1; 
stroke-linecap:round; stroke-linejoin:round;">
<circle cx="110.240000" cy="84.740000" r="0.175000" /> 
</g>
<g style="fill:#FFFFFF; fill-opacity:1.000000; 
stroke:#FFFFFF; stroke-width:0.021200; stroke-opacity:1; 
stroke-linecap:round; stroke-linejoin:round;">
</g>
<g style="fill:#FFFFFF; fill-opacity:1.000000; 
stroke:#FFFFFF; stroke-width:0.000000; stroke-opacity:1; 
stroke-linecap:round; stroke-linejoin:round;">
<circle cx="105.330000" cy="84.970000" r="0.175000" /> 
</g>
<g style="fill:#FFFFFF; fill-opacity:1.000000; 
stroke:#FFFFFF; stroke-width:0.021200; stroke-opacity:1; 
stroke-linecap:round; stroke-linejoin:round;">
</g>
<g style="fill:#FFFFFF; fill-opacity:1.000000; 
stroke:#FFFFFF; stroke-width:0.000000; stroke-opacity:1; 
stroke-linecap:round; stroke-linejoin:round;">
<circle cx="103.510000" cy="83.320000" r="0.175000" /> 
</g>
<g style="fill:#FFFFFF; fill-opacity:1.000000; 
stroke:#FFFFFF; stroke-width:0.021200; stroke-opacity:1; 
stroke-linecap:round; stroke-linejoin:round;">
</g>
<g style="fill:#FFFFFF; fill-opacity:1.000000; 
stroke:#FFFFFF; stroke-width:0.000000; stroke-opacity:1; 
stroke-linecap:round; stroke-linejoin:round;">
<circle cx="117.180000" cy="60.680000" r="0.175000" /> 
</g>
<g style="fill:#FFFFFF; fill-opacity:1.000000; 
stroke:#FFFFFF; stroke-width:0.021200; stroke-opacity:1; 
stroke-linecap:round; stroke-linejoin:round;">
</g>
<g style="fill:#FFFFFF; fill-opacity:1.000000; 
stroke:#FFFFFF; stroke-width:0.000000; stroke-opacity:1; 
stroke-linecap:round; stroke-linejoin:round;">
<circle cx="124.180000" cy="60.680000" r="0.175000" /> 
</g>
<g style="fill:#FFFFFF; fill-opacity:1.000000; 
stroke:#FFFFFF; stroke-width:0.021200; stroke-opacity:1; 
stroke-linecap:round; stroke-linejoin:round;">
</g>
<g style="fill:#FFFFFF; fill-opacity:1.000000; 
stroke:#FFFFFF; stroke-width:0.000000; stroke-opacity:1; 
stroke-linecap:round; stroke-linejoin:round;">
<circle cx="120.680000" cy="60.680000" r="0.175000" /> 
</g>
<g style="fill:#FFFFFF; fill-opacity:1.000000; 
stroke:#FFFFFF; stroke-width:0.021200; stroke-opacity:1; 
stroke-linecap:round; stroke-linejoin:round;">
</g>
<g style="fill:#FFFFFF; fill-opacity:1.000000; 
stroke:#FFFFFF; stroke-width:0.000000; stroke-opacity:1; 
stroke-linecap:round; stroke-linejoin:round;">
<circle cx="122.970000" cy="97.060000" r="0.175000" /> 
</g>
<g style="fill:#FFFFFF; fill-opacity:1.000000; 
stroke:#FFFFFF; stroke-width:0.021200; stroke-opacity:1; 
stroke-linecap:round; stroke-linejoin:round;">
</g>
<g style="fill:#FFFFFF; fill-opacity:1.000000; 
stroke:#FFFFFF; stroke-width:0.000000; stroke-opacity:1; 
stroke-linecap:round; stroke-linejoin:round;">
<circle cx="120.430000" cy="97.060000" r="0.175000" /> 
</g>
<g style="fill:#FFFFFF; fill-opacity:1.000000; 
stroke:#FFFFFF; stroke-width:0.021200; stroke-opacity:1; 
stroke-linecap:round; stroke-linejoin:round;">
</g>
<g style="fill:#FFFFFF; fill-opacity:1.000000; 
stroke:#FFFFFF; stroke-width:0.000000; stroke-opacity:1; 
stroke-linecap:round; stroke-linejoin:round;">
<circle cx="117.890000" cy="97.060000" r="0.175000" /> 
</g>
<g style="fill:#FFFFFF; fill-opacity:1.000000; 
stroke:#FFFFFF; stroke-width:0.021200; stroke-opacity:1; 
stroke-linecap:round; stroke-linejoin:round;">
</g>
<g style="fill:#FFFFFF; fill-opacity:1.000000; 
stroke:#FFFFFF; stroke-width:0.000000; stroke-opacity:1; 
stroke-linecap:round; stroke-linejoin:round;">
<circle cx="115.350000" cy="97.060000" r="0.175000" /> 
</g>
<g style="fill:#FFFFFF; fill-opacity:1.000000; 
stroke:#FFFFFF; stroke-width:0.021200; stroke-opacity:1; 
stroke-linecap:round; stroke-linejoin:round;">
</g>
<g style="fill:#FFFFFF; fill-opacity:1.000000; 
stroke:#FFFFFF; stroke-width:0.000000; stroke-opacity:1; 
stroke-linecap:round; stroke-linejoin:round;">
<circle cx="102.247500" cy="57.202500" r="0.175000" /> 
</g>
<g style="fill:#FFFFFF; fill-opacity:1.000000; 
stroke:#FFFFFF; stroke-width:0.021200; stroke-opacity:1; 
stroke-linecap:round; stroke-linejoin:round;">
</g>
<g style="fill:#FFFFFF; fill-opacity:1.000000; 
stroke:#FFFFFF; stroke-width:0.000000; stroke-opacity:1; 
stroke-linecap:round; stroke-linejoin:round;">
<circle cx="104.787500" cy="57.202500" r="0.175000" /> 
</g>
<g style="fill:#FFFFFF; fill-opacity:1.000000; 
stroke:#FFFFFF; stroke-width:0.021200; stroke-opacity:1; 
stroke-linecap:round; stroke-linejoin:round;">
</g>
<g style="fill:#FFFFFF; fill-opacity:1.000000; 
stroke:#FFFFFF; stroke-width:0.000000; stroke-opacity:1; 
stroke-linecap:round; stroke-linejoin:round;">
<circle cx="107.327500" cy="57.202500" r="0.175000" /> 
</g>
<g style="fill:#FFFFFF; fill-opacity:1.000000; 
stroke:#FFFFFF; stroke-width:0.021200; stroke-opacity:1; 
stroke-linecap:round; stroke-linejoin:round;">
</g>
<g style="fill:#FFFFFF; fill-opacity:1.000000; 
stroke:#FFFFFF; stroke-width:0.000000; stroke-opacity:1; 
stroke-linecap:round; stroke-linejoin:round;">
<circle cx="109.867500" cy="57.202500" r="0.175000" /> 
</g>
<g style="fill:#FFFFFF; fill-opacity:1.000000; 
stroke:#FFFFFF; stroke-width:0.021200; stroke-opacity:1; 
stroke-linecap:round; stroke-linejoin:round;">
</g>
<g style="fill:#FFFFFF; fill-opacity:1.000000; 
stroke:#FFFFFF; stroke-width:0.000000; stroke-opacity:1; 
stroke-linecap:round; stroke-linejoin:round;">
<circle cx="86.310000" cy="84.100000" r="0.175000" /> 
</g>
<g style="fill:#FFFFFF; fill-opacity:1.000000; 
stroke:#FFFFFF; stroke-width:0.021200; stroke-opacity:1; 
stroke-linecap:round; stroke-linejoin:round;">
</g>
<g style="fill:#FFFFFF; fill-opacity:1.000000; 
stroke:#FFFFFF; stroke-width:0.000000; stroke-opacity:1; 
stroke-linecap:round; stroke-linejoin:round;">
<circle cx="86.310000" cy="81.100000" r="0.175000" /> 
</g>
<g style="fill:#FFFFFF; fill-opacity:1.000000; 
stroke:#FFFFFF; stroke-width:0.021200; stroke-opacity:1; 
stroke-linecap:round; stroke-linejoin:round;">
</g>
<g style="fill:#FFFFFF; fill-opacity:1.000000; 
stroke:#FFFFFF; stroke-width:0.000000; stroke-opacity:1; 
stroke-linecap:round; stroke-linejoin:round;">
<circle cx="89.900000" cy="57.610000" r="0.175000" /> 
</g>
<g style="fill:#FFFFFF; fill-opacity:1.000000; 
stroke:#FFFFFF; stroke-width:0.021200; stroke-opacity:1; 
stroke-linecap:round; stroke-linejoin:round;">
</g>
<g style="fill:#FFFFFF; fill-opacity:1.000000; 
stroke:#FFFFFF; stroke-width:0.000000; stroke-opacity:1; 
stroke-linecap:round; stroke-linejoin:round;">
<circle cx="86.300000" cy="57.610000" r="0.175000" /> 
</g>
<g style="fill:#FFFFFF; fill-opacity:1.000000; 
stroke:#FFFFFF; stroke-width:0.021200; stroke-opacity:1; 
stroke-linecap:round; stroke-linejoin:round;">
</g>
<g style="fill:#FFFFFF; fill-opacity:1.000000; 
stroke:#FFFFFF; stroke-width:0.000000; stroke-opacity:1; 
stroke-linecap:round; stroke-linejoin:round;">
<circle cx="89.620000" cy="76.360000" r="0.175000" /> 
</g>
<g style="fill:#FFFFFF; fill-opacity:1.000000; 
stroke:#FFFFFF; stroke-width:0.021200; stroke-opacity:1; 
stroke-linecap:round; stroke-linejoin:round;">
</g>
<g style="fill:#FFFFFF; fill-opacity:1.000000; 
stroke:#FFFFFF; stroke-width:0.000000; stroke-opacity:1; 
stroke-linecap:round; stroke-linejoin:round;">
<circle cx="86.020000" cy="76.360000" r="0.175000" /> 
</g>
<g style="fill:#FFFFFF; fill-opacity:1.000000; 
stroke:#FFFFFF; stroke-width:0.021200; stroke-opacity:1; 
stroke-linecap:round; stroke-linejoin:round;">
</g>
<g style="fill:#000000; fill-opacity:1.000000; 
stroke:#000000; stroke-width:0.021200; stroke-opacity:1; 
stroke-linecap:round; stroke-linejoin:round;">
</g>
<g style="fill:#000000; fill-opacity:1.000000; 
stroke:#000000; stroke-width:0.100000; stroke-opacity:1; 
stroke-linecap:round; stroke-linejoin:round;">
</g>
<g style="fill:#000000; fill-opacity:0.0; 
stroke:#000000; stroke-width:0.100000; stroke-opacity:1; 
stroke-linecap:round; stroke-linejoin:round;">
<path d="M83.652500 54.777500
L128.652500 54.777500
" />
<path d="M128.652500 54.777500
L128.652500 99.777500
" />
<path d="M128.652500 99.777500
L83.652500 99.777500
" />
<path d="M83.652500 99.777500
L83.652500 54.777500
" />
<g >
</g>
<g >
</g>
<g >
</g>
<g >
</g>
<g >
</g>
<g >
</g>
<g >
</g>
<g >
</g>
<g >
</g>
<g >
</g>
<g >
</g>
<g >
</g>
<g >
</g>
<g >
</g>
<g >
</g>
<g >
</g>
<g >
</g>
<g >
</g>
<g >
</g>
<g >
</g>
<g >
</g>
<g >
</g>
</g> 
</svg>
