<?xml version="1.0" standalone="no"?>
 <!DOCTYPE svg PUBLIC "-//W3C//DTD SVG 1.1//EN" 
 "http://www.w3.org/Graphics/SVG/1.1/DTD/svg11.dtd"> 
<svg
  xmlns:svg="http://www.w3.org/2000/svg"
  xmlns="http://www.w3.org/2000/svg"
  xmlns:xlink="http://www.w3.org/1999/xlink"
  version="1.1"
  width="297.002200mm" height="210.007200mm" viewBox="0.000000 0.000000 297.002200 210.007200">
<title>SVG Image created as PCB_SmartWatch_SinCargador-F_Cu.svg date 2023/05/14 23:42:48 </title>
  <desc>Image generated by PCBNEW </desc>
<g style="fill:#000000; fill-opacity:1.000000;stroke:#000000; stroke-opacity:1.000000;
stroke-linecap:round; stroke-linejoin:round;"
 transform="translate(0 0) scale(1 1)">
</g>
<g style="fill:#000000; fill-opacity:0.0; 
stroke:#000000; stroke-width:0.000000; stroke-opacity:1; 
stroke-linecap:round; stroke-linejoin:round;">
<g >
</g>
<g style="fill:#000000; fill-opacity:0.0; 
stroke:#000000; stroke-width:0.000000; stroke-opacity:1; 
stroke-linecap:round; stroke-linejoin:round;">
</g>
<g style="fill:#000000; fill-opacity:1.000000; 
stroke:#000000; stroke-width:0.000000; stroke-opacity:1; 
stroke-linecap:round; stroke-linejoin:round;">
<path style="fill:#000000; fill-opacity:1.000000; 
stroke:#000000; stroke-width:0.000000; stroke-opacity:1; 
stroke-linecap:round; stroke-linejoin:round;fill-rule:evenodd;"
d="M 175.032200,96.060000
173.032200,96.060000
173.032200,98.060000
175.032200,98.060000
Z" /> 
<circle cx="176.572200" cy="97.060000" r="1.000000" /> 
<circle cx="179.112200" cy="97.060000" r="1.000000" /> 
<circle cx="181.652200" cy="97.060000" r="1.000000" /> 
</g>
<g >
</g>
<g style="fill:#000000; fill-opacity:1.000000; 
stroke:#000000; stroke-width:0.000000; stroke-opacity:1; 
stroke-linecap:round; stroke-linejoin:round;">
<path style="fill:#000000; fill-opacity:1.000000; 
stroke:#000000; stroke-width:0.000000; stroke-opacity:1; 
stroke-linecap:round; stroke-linejoin:round;fill-rule:evenodd;"
d="M 194.824700,90.002500
194.824700,89.002500
193.124700,89.002500
193.124700,90.002500
Z" /> 
<path style="fill:#000000; fill-opacity:1.000000; 
stroke:#000000; stroke-width:0.000000; stroke-opacity:1; 
stroke-linecap:round; stroke-linejoin:round;fill-rule:evenodd;"
d="M 188.524700,90.002500
188.524700,89.002500
186.824700,89.002500
186.824700,90.002500
Z" /> 
<path style="fill:#000000; fill-opacity:1.000000; 
stroke:#000000; stroke-width:0.000000; stroke-opacity:1; 
stroke-linecap:round; stroke-linejoin:round;fill-rule:evenodd;"
d="M 194.824700,93.802500
194.824700,92.802500
193.124700,92.802500
193.124700,93.802500
Z" /> 
<path style="fill:#000000; fill-opacity:1.000000; 
stroke:#000000; stroke-width:0.000000; stroke-opacity:1; 
stroke-linecap:round; stroke-linejoin:round;fill-rule:evenodd;"
d="M 188.524700,93.802500
188.524700,92.802500
186.824700,92.802500
186.824700,93.802500
Z" /> 
</g>
<g >
</g>
<g style="fill:#000000; fill-opacity:1.000000; 
stroke:#000000; stroke-width:0.000000; stroke-opacity:1; 
stroke-linecap:round; stroke-linejoin:round;">
<circle cx="194.754700" cy="57.202500" r="1.000000" /> 
<circle cx="192.214700" cy="57.202500" r="1.000000" /> 
<circle cx="189.674700" cy="57.202500" r="1.000000" /> 
<circle cx="187.134700" cy="57.202500" r="1.000000" /> 
</g>
<g >
</g>
<g style="fill:#000000; fill-opacity:1.000000; 
stroke:#000000; stroke-width:0.000000; stroke-opacity:1; 
stroke-linecap:round; stroke-linejoin:round;">
<path style="fill:#000000; fill-opacity:1.000000; 
stroke:#000000; stroke-width:0.000000; stroke-opacity:1; 
stroke-linecap:round; stroke-linejoin:round;fill-rule:evenodd;"
d="M 208.987200,90.002500
208.987200,89.002500
207.287200,89.002500
207.287200,90.002500
Z" /> 
<path style="fill:#000000; fill-opacity:1.000000; 
stroke:#000000; stroke-width:0.000000; stroke-opacity:1; 
stroke-linecap:round; stroke-linejoin:round;fill-rule:evenodd;"
d="M 202.687200,90.002500
202.687200,89.002500
200.987200,89.002500
200.987200,90.002500
Z" /> 
<path style="fill:#000000; fill-opacity:1.000000; 
stroke:#000000; stroke-width:0.000000; stroke-opacity:1; 
stroke-linecap:round; stroke-linejoin:round;fill-rule:evenodd;"
d="M 208.987200,93.802500
208.987200,92.802500
207.287200,92.802500
207.287200,93.802500
Z" /> 
<path style="fill:#000000; fill-opacity:1.000000; 
stroke:#000000; stroke-width:0.000000; stroke-opacity:1; 
stroke-linecap:round; stroke-linejoin:round;fill-rule:evenodd;"
d="M 202.687200,93.802500
202.687200,92.802500
200.987200,92.802500
200.987200,93.802500
Z" /> 
</g>
<g >
</g>
<g style="fill:#000000; fill-opacity:1.000000; 
stroke:#000000; stroke-width:0.000000; stroke-opacity:1; 
stroke-linecap:round; stroke-linejoin:round;">
<path style="fill:#000000; fill-opacity:1.000000; 
stroke:#000000; stroke-width:0.000000; stroke-opacity:1; 
stroke-linecap:round; stroke-linejoin:round;fill-rule:evenodd;"
d="M 180.662200,90.002500
180.662200,89.002500
178.962200,89.002500
178.962200,90.002500
Z" /> 
<path style="fill:#000000; fill-opacity:1.000000; 
stroke:#000000; stroke-width:0.000000; stroke-opacity:1; 
stroke-linecap:round; stroke-linejoin:round;fill-rule:evenodd;"
d="M 174.362200,90.002500
174.362200,89.002500
172.662200,89.002500
172.662200,90.002500
Z" /> 
<path style="fill:#000000; fill-opacity:1.000000; 
stroke:#000000; stroke-width:0.000000; stroke-opacity:1; 
stroke-linecap:round; stroke-linejoin:round;fill-rule:evenodd;"
d="M 180.662200,93.802500
180.662200,92.802500
178.962200,92.802500
178.962200,93.802500
Z" /> 
<path style="fill:#000000; fill-opacity:1.000000; 
stroke:#000000; stroke-width:0.000000; stroke-opacity:1; 
stroke-linecap:round; stroke-linejoin:round;fill-rule:evenodd;"
d="M 174.362200,93.802500
174.362200,92.802500
172.662200,92.802500
172.662200,93.802500
Z" /> 
</g>
<g >
</g>
<g >
</g>
<g >
</g>
<g >
</g>
<g >
</g>
<g style="fill:#000000; fill-opacity:1.000000; 
stroke:#000000; stroke-width:0.000000; stroke-opacity:1; 
stroke-linecap:round; stroke-linejoin:round;">
<path style="fill:#000000; fill-opacity:1.000000; 
stroke:#000000; stroke-width:0.000000; stroke-opacity:1; 
stroke-linecap:round; stroke-linejoin:round;fill-rule:evenodd;"
d="M 206.102200,58.297500
206.110501,58.369047
206.156888,58.474105
206.238095,58.555312
206.343153,58.601699
206.414700,58.610000
207.789700,58.610000
207.861247,58.601699
207.966305,58.555312
208.047512,58.474105
208.093899,58.369047
208.102200,58.297500
208.102200,56.922500
208.093899,56.850953
208.047512,56.745895
207.966305,56.664688
207.861247,56.618301
207.789700,56.610000
206.414700,56.610000
206.343153,56.618301
206.238095,56.664688
206.156888,56.745895
206.110501,56.850953
206.102200,56.922500
Z" /> 
<circle cx="210.702200" cy="57.610000" r="1.000000" /> 
</g>
<g style="fill:#000000; fill-opacity:1.000000; 
stroke:#000000; stroke-width:0.021200; stroke-opacity:1; 
stroke-linecap:round; stroke-linejoin:round;">
</g>
<g >
</g>
<g >
</g>
<g >
</g>
<g style="fill:#000000; fill-opacity:1.000000; 
stroke:#000000; stroke-width:0.021200; stroke-opacity:1; 
stroke-linecap:round; stroke-linejoin:round;">
</g>
<g style="fill:#000000; fill-opacity:1.000000; 
stroke:#000000; stroke-width:0.000000; stroke-opacity:1; 
stroke-linecap:round; stroke-linejoin:round;">
<path style="fill:#000000; fill-opacity:1.000000; 
stroke:#000000; stroke-width:0.000000; stroke-opacity:1; 
stroke-linecap:round; stroke-linejoin:round;fill-rule:evenodd;"
d="M 206.582200,76.910000
206.601230,77.005671
206.655423,77.086777
206.736529,77.140970
206.832200,77.160000
207.932200,77.160000
208.027871,77.140970
208.108977,77.086777
208.163170,77.005671
208.182200,76.910000
208.182200,75.810000
208.163170,75.714329
208.108977,75.633223
208.027871,75.579030
207.932200,75.560000
206.832200,75.560000
206.736529,75.579030
206.655423,75.633223
206.601230,75.714329
206.582200,75.810000
Z" /> 
<circle cx="210.982200" cy="76.360000" r="0.800000" /> 
</g>
<g style="fill:#000000; fill-opacity:1.000000; 
stroke:#000000; stroke-width:0.021200; stroke-opacity:1; 
stroke-linecap:round; stroke-linejoin:round;">
</g>
<g >
</g>
<g >
</g>
<g >
</g>
<g >
</g>
<g >
</g>
<g >
</g>
<g >
</g>
<g style="fill:#000000; fill-opacity:1.000000; 
stroke:#000000; stroke-width:0.021200; stroke-opacity:1; 
stroke-linecap:round; stroke-linejoin:round;">
</g>
<g style="fill:#000000; fill-opacity:1.000000; 
stroke:#000000; stroke-width:0.000000; stroke-opacity:1; 
stroke-linecap:round; stroke-linejoin:round;">
<circle cx="191.102200" cy="59.820000" r="1.000000" /> 
</g>
<g style="fill:#000000; fill-opacity:1.000000; 
stroke:#000000; stroke-width:0.021200; stroke-opacity:1; 
stroke-linecap:round; stroke-linejoin:round;">
</g>
<g style="fill:#000000; fill-opacity:1.000000; 
stroke:#000000; stroke-width:0.000000; stroke-opacity:1; 
stroke-linecap:round; stroke-linejoin:round;">
<circle cx="186.762200" cy="84.740000" r="1.000000" /> 
</g>
<g style="fill:#000000; fill-opacity:1.000000; 
stroke:#000000; stroke-width:0.021200; stroke-opacity:1; 
stroke-linecap:round; stroke-linejoin:round;">
</g>
<g style="fill:#000000; fill-opacity:1.000000; 
stroke:#000000; stroke-width:0.000000; stroke-opacity:1; 
stroke-linecap:round; stroke-linejoin:round;">
<circle cx="191.672200" cy="84.970000" r="1.000000" /> 
</g>
<g style="fill:#000000; fill-opacity:1.000000; 
stroke:#000000; stroke-width:0.021200; stroke-opacity:1; 
stroke-linecap:round; stroke-linejoin:round;">
</g>
<g style="fill:#000000; fill-opacity:1.000000; 
stroke:#000000; stroke-width:0.000000; stroke-opacity:1; 
stroke-linecap:round; stroke-linejoin:round;">
<circle cx="193.492200" cy="83.320000" r="1.000000" /> 
</g>
<g style="fill:#000000; fill-opacity:1.000000; 
stroke:#000000; stroke-width:0.021200; stroke-opacity:1; 
stroke-linecap:round; stroke-linejoin:round;">
</g>
<g style="fill:#000000; fill-opacity:1.000000; 
stroke:#000000; stroke-width:0.000000; stroke-opacity:1; 
stroke-linecap:round; stroke-linejoin:round;">
<circle cx="179.822200" cy="60.680000" r="1.000000" /> 
</g>
<g style="fill:#000000; fill-opacity:1.000000; 
stroke:#000000; stroke-width:0.021200; stroke-opacity:1; 
stroke-linecap:round; stroke-linejoin:round;">
</g>
<g style="fill:#000000; fill-opacity:1.000000; 
stroke:#000000; stroke-width:0.000000; stroke-opacity:1; 
stroke-linecap:round; stroke-linejoin:round;">
<circle cx="172.822200" cy="60.680000" r="1.000000" /> 
</g>
<g style="fill:#000000; fill-opacity:1.000000; 
stroke:#000000; stroke-width:0.021200; stroke-opacity:1; 
stroke-linecap:round; stroke-linejoin:round;">
</g>
<g style="fill:#000000; fill-opacity:1.000000; 
stroke:#000000; stroke-width:0.000000; stroke-opacity:1; 
stroke-linecap:round; stroke-linejoin:round;">
<circle cx="176.322200" cy="60.680000" r="1.000000" /> 
</g>
<g style="fill:#000000; fill-opacity:1.000000; 
stroke:#000000; stroke-width:0.021200; stroke-opacity:1; 
stroke-linecap:round; stroke-linejoin:round;">
</g>
<g >
</g>
<g style="fill:#000000; fill-opacity:1.000000; 
stroke:#000000; stroke-width:0.021200; stroke-opacity:1; 
stroke-linecap:round; stroke-linejoin:round;">
</g>
<g style="fill:#000000; fill-opacity:1.000000; 
stroke:#000000; stroke-width:0.750000; stroke-opacity:1; 
stroke-linecap:round; stroke-linejoin:round;">
</g>
<g style="fill:#000000; fill-opacity:0.0; 
stroke:#000000; stroke-width:0.750000; stroke-opacity:1; 
stroke-linecap:round; stroke-linejoin:round;">
<path d="M212.502200 97.230000
L212.502200 88.300000
" />
<path d="M212.502200 88.300000
L207.522200 83.320000
" />
<path d="M207.522200 83.320000
L193.492200 83.320000
" />
<path d="M179.112200 98.080000
L180.002200 98.970000
" />
<path d="M180.002200 98.970000
L210.762200 98.970000
" />
<path d="M179.112200 97.060000
L179.112200 98.080000
" />
<path d="M210.762200 98.970000
L212.502200 97.230000
" />
<path d="M174.032200 97.060000
L172.562200 97.060000
" />
<path d="M208.137200 89.502500
L208.137200 90.185000
" />
<path d="M171.552200 90.500000
L172.549700 89.502500
" />
<path d="M208.137200 89.502500
L208.132200 89.497500
" />
<path d="M169.942200 59.870000
L169.942200 79.240000
" />
<path d="M193.974700 89.502500
L187.674700 89.502500
" />
<path d="M174.512200 95.220000
L174.032200 95.700000
" />
<path d="M187.674700 89.502500
L187.674700 88.072500
" />
<path d="M171.552200 80.850000
L171.552200 90.500000
" />
<path d="M183.192200 83.590000
L183.192200 60.170000
" />
<path d="M172.562200 97.060000
L171.552200 96.050000
" />
<path d="M208.782200 95.220000
L174.512200 95.220000
" />
<path d="M209.782200 91.830000
L209.782200 94.220000
" />
<path d="M169.942200 79.240000
L171.552200 80.850000
" />
<path d="M171.532200 58.280000
L169.942200 59.870000
" />
<path d="M181.302200 58.280000
L171.532200 58.280000
" />
<path d="M208.137200 90.185000
L209.782200 91.830000
" />
<path d="M183.192200 60.170000
L181.302200 58.280000
" />
<path d="M171.552200 96.050000
L171.552200 90.500000
" />
<path d="M174.032200 95.700000
L174.032200 97.060000
" />
<path d="M187.674700 88.072500
L183.192200 83.590000
" />
<path d="M193.974700 89.502500
L201.837200 89.502500
" />
<path d="M173.512200 89.502500
L179.812200 89.502500
" />
<path d="M172.549700 89.502500
L173.512200 89.502500
" />
<path d="M201.842200 89.497500
L201.837200 89.502500
" />
<path d="M208.137200 89.502500
L201.837200 89.502500
" />
<path d="M209.782200 94.220000
L208.782200 95.220000
" />
<path d="M191.102200 59.820000
L188.102200 59.820000
" />
<path d="M188.102200 59.820000
L186.762200 61.160000
" />
<path d="M186.762200 61.160000
L186.762200 84.740000
" />
<path d="M209.542200 97.060000
L211.092200 95.510000
" />
<path d="M181.652200 97.060000
L209.542200 97.060000
" />
<path d="M206.872200 84.970000
L191.672200 84.970000
" />
<path d="M211.092200 89.190000
L206.872200 84.970000
" />
<path d="M211.092200 95.510000
L211.092200 89.190000
" />
<path d="M186.292200 91.520000
L185.112200 90.340000
" />
<path d="M196.852200 91.520000
L186.292200 91.520000
" />
<path d="M198.634700 93.302500
L196.852200 91.520000
" />
<path d="M185.112200 87.440000
L179.822200 82.150000
" />
<path d="M201.837200 93.302500
L198.634700 93.302500
" />
<path d="M179.822200 82.150000
L179.822200 60.680000
" />
<path d="M201.837200 93.302500
L208.137200 93.302500
" />
<path d="M185.112200 90.340000
L185.112200 87.440000
" />
<path d="M172.822200 79.620000
L172.822200 60.680000
" />
<path d="M182.122200 88.920000
L172.822200 79.620000
" />
<path d="M179.812200 93.302500
L173.512200 93.302500
" />
<path d="M179.812200 93.302500
L180.989700 93.302500
" />
<path d="M180.989700 93.302500
L182.122200 92.170000
" />
<path d="M182.122200 92.170000
L182.122200 88.920000
" />
<path d="M187.674700 93.302500
L193.974700 93.302500
" />
<path d="M187.674700 93.302500
L184.304700 93.302500
" />
<path d="M176.322200 80.950000
L176.322200 60.680000
" />
<path d="M183.512200 88.140000
L176.322200 80.950000
" />
<path d="M183.512200 92.510000
L183.512200 88.140000
" />
<path d="M184.304700 93.302500
L183.512200 92.510000
" />
</g>
<g >
</g>
<g style="fill:#000000; fill-opacity:0.0; 
stroke:#000000; stroke-width:0.750000; stroke-opacity:1; 
stroke-linecap:round; stroke-linejoin:round;">
<g >
</g>
<g style="fill:#000000; fill-opacity:1.000000; 
stroke:#000000; stroke-width:0.000000; stroke-opacity:1; 
stroke-linecap:round; stroke-linejoin:round;">
<path style="fill:#000000; fill-opacity:1.000000; 
stroke:#000000; stroke-width:0.000000; stroke-opacity:1; 
stroke-linecap:round; stroke-linejoin:round;fill-rule:evenodd;"
d="M 168.645931,54.791596
168.549700,54.831456
168.467064,54.894864
168.403656,54.977500
168.363796,55.073731
168.350200,55.177000
168.350200,99.378000
168.363796,99.481269
168.403656,99.577500
168.467064,99.660136
168.549700,99.723544
168.645931,99.763404
168.749200,99.777000
175.939575,99.777000
176.054717,99.760025
176.160062,99.710546
176.246646,99.632771
176.307103,99.533319
176.336289,99.420651
176.331719,99.304354
176.293784,99.194324
176.225710,99.099922
176.133290,99.029180
176.034591,98.991964
176.034752,98.991413
176.027407,98.989256
176.024388,98.988118
176.007154,98.984369
175.739039,98.884367
175.660710,98.841596
175.644506,98.832748
175.540747,98.793645
175.430234,98.784606
175.321501,98.806331
175.232490,98.837477
175.189081,98.847385
175.088247,98.858746
175.065935,98.860000
174.458350,98.860000
174.435243,98.856957
174.432200,98.833850
173.632200,98.833850
173.629158,98.856957
173.606050,98.860000
172.998465,98.860000
172.976154,98.858746
172.875320,98.847385
172.831912,98.837478
172.704045,98.792735
172.663925,98.773414
172.549230,98.701347
172.514408,98.673578
172.418622,98.577792
172.390853,98.542970
172.318786,98.428275
172.299465,98.388155
172.254722,98.260288
172.244815,98.216880
172.233454,98.116046
172.232200,98.093735
172.232200,97.486150
172.235243,97.463042
172.258350,97.460000
173.606050,97.460000
173.629158,97.463042
173.632200,97.486150
173.632200,98.833850
174.432200,98.833850
174.432200,97.059000
174.418604,96.955731
174.378744,96.859500
174.315336,96.776864
174.232700,96.713456
174.136469,96.673596
174.033200,96.660000
172.258350,96.660000
172.235243,96.656957
172.232200,96.633850
172.232200,96.026265
172.233454,96.003953
172.244815,95.903119
172.254722,95.859711
172.299465,95.731844
172.318786,95.691724
172.390853,95.577029
172.418622,95.542207
172.530252,95.430577
172.528221,95.428545
172.588896,95.362256
172.640534,95.249183
172.654869,95.125705
172.630510,95.003809
172.569819,94.895325
172.478689,94.810782
172.365970,94.758389
172.289151,94.736409
172.108793,94.642198
171.951091,94.513609
171.822502,94.355907
171.728291,94.175549
171.672314,93.979918
171.661700,93.860537
171.661701,92.744464
171.672314,92.625082
171.728291,92.429451
171.822502,92.249093
171.951091,92.091391
172.108793,91.962802
172.126729,91.953433
172.126732,91.953431
172.271218,91.877958
172.271222,91.877956
172.289151,91.868591
172.308604,91.863024
172.308606,91.863024
172.466542,91.817833
172.466544,91.817832
172.484782,91.812614
172.503674,91.810934
172.503681,91.810933
172.595341,91.802784
172.595349,91.802783
172.604163,91.802000
172.613018,91.802000
174.411396,91.802000
174.411419,91.802000
174.420236,91.802001
174.429027,91.802782
174.429038,91.802783
174.520732,91.810935
174.539618,91.812614
174.557849,91.817830
174.557852,91.817831
174.715795,91.863024
174.715800,91.863025
174.735249,91.868591
174.753176,91.877954
174.753188,91.877960
174.760262,91.881656
174.849889,91.915498
174.945000,91.927000
178.379400,91.927000
178.474511,91.915498
178.564138,91.881656
178.571213,91.877960
178.571222,91.877956
178.589151,91.868591
178.608604,91.863024
178.608606,91.863024
178.766542,91.817833
178.766544,91.817832
178.784782,91.812614
178.803674,91.810934
178.803681,91.810933
178.895341,91.802784
178.895349,91.802783
178.904163,91.802000
178.913017,91.802000
180.347700,91.802000
180.450969,91.788404
180.547200,91.748544
180.629836,91.685136
180.693244,91.602500
180.733104,91.506269
180.746700,91.403000
180.746700,91.201500
180.733104,91.098231
180.693244,91.002000
180.629836,90.919364
180.547200,90.855956
180.450969,90.816096
180.347700,90.802500
180.238350,90.802500
180.215243,90.799457
180.212200,90.776350
179.412200,90.776350
179.409158,90.799457
179.386050,90.802500
178.928465,90.802500
178.906154,90.801246
178.805320,90.789885
178.761912,90.779978
178.634045,90.735235
178.593925,90.715914
178.479230,90.643847
178.444408,90.616078
178.348622,90.520292
178.320853,90.485470
178.248786,90.370775
178.229465,90.330655
178.184722,90.202788
178.174815,90.159380
178.163454,90.058546
178.162200,90.036235
175.162200,90.036235
175.160947,90.058546
175.149586,90.159380
175.139679,90.202788
175.094936,90.330655
175.075615,90.370775
175.003548,90.485470
174.975779,90.520292
174.879993,90.616078
174.845171,90.643847
174.730476,90.715914
174.690356,90.735235
174.562489,90.779978
174.519081,90.789885
174.418247,90.801246
174.395935,90.802500
173.938350,90.802500
173.915243,90.799457
173.912200,90.776350
173.112200,90.776350
173.109158,90.799457
173.086050,90.802500
172.628465,90.802500
172.606154,90.801246
172.505320,90.789885
172.461912,90.779978
172.334045,90.735235
172.293925,90.715914
172.179230,90.643847
172.144408,90.616078
172.048622,90.520292
172.020853,90.485470
171.948786,90.370775
171.929465,90.330655
171.884722,90.202788
171.874815,90.159380
171.863454,90.058546
171.862200,90.036235
171.862200,89.928650
171.865243,89.905542
171.888350,89.902500
173.086050,89.902500
173.109158,89.905542
173.112200,89.928650
173.112200,90.776350
173.912200,90.776350
173.912200,89.928650
173.915243,89.905542
173.938350,89.902500
175.136050,89.902500
175.159158,89.905542
175.162200,89.928650
175.162200,90.036235
178.162200,90.036235
178.162200,89.928650
178.165243,89.905542
178.188350,89.902500
179.386050,89.902500
179.409158,89.905542
179.412200,89.928650
179.412200,90.776350
180.212200,90.776350
180.212200,89.501500
180.198604,89.398231
180.158744,89.302000
180.095336,89.219364
180.012700,89.155956
179.916469,89.116096
179.813200,89.102500
178.188350,89.102500
178.165243,89.099457
178.162200,89.076350
175.162200,89.076350
175.159158,89.099457
175.136050,89.102500
173.938350,89.102500
173.915243,89.099457
173.912200,89.076350
173.112200,89.076350
173.109158,89.099457
173.086050,89.102500
171.888350,89.102500
171.865243,89.099457
171.862200,89.076350
171.862200,88.968765
171.863454,88.946453
171.874815,88.845619
171.884722,88.802211
171.929465,88.674344
171.948786,88.634224
172.020853,88.519529
172.048622,88.484707
172.144408,88.388921
172.179230,88.361152
172.293925,88.289085
172.334045,88.269764
172.461912,88.225021
172.505320,88.215114
172.606154,88.203753
172.628465,88.202500
173.086050,88.202500
173.109158,88.205542
173.112200,88.228650
173.112200,89.076350
173.912200,89.076350
173.912200,88.228650
173.915243,88.205542
173.938350,88.202500
174.395935,88.202500
174.418247,88.203753
174.519081,88.215114
174.562489,88.225021
174.690356,88.269764
174.730476,88.289085
174.845171,88.361152
174.879993,88.388921
174.975779,88.484707
175.003548,88.519529
175.075615,88.634224
175.094936,88.674344
175.139679,88.802211
175.149586,88.845619
175.160947,88.946453
175.162200,88.968765
175.162200,89.076350
178.162200,89.076350
178.162200,88.968765
178.163454,88.946453
178.174815,88.845619
178.184722,88.802211
178.229465,88.674344
178.248786,88.634224
178.320853,88.519529
178.348622,88.484707
178.444408,88.388921
178.479230,88.361152
178.593925,88.289085
178.634046,88.269763
178.695953,88.248101
178.797662,88.195039
178.880069,88.115231
178.936363,88.015275
178.961889,87.903434
178.954539,87.788952
178.914920,87.681293
178.846309,87.589359
171.889516,80.632565
171.870998,80.615193
171.825559,80.575203
171.763780,80.498689
171.758487,80.492274
171.695131,80.417132
171.687697,80.404463
171.678465,80.393030
171.630529,80.307217
171.626332,80.299891
171.576627,80.215191
171.571441,80.201447
171.564274,80.188619
171.531550,80.095999
171.528641,80.088035
171.499944,80.011995
171.493955,79.996126
171.491166,79.981700
171.486271,79.967849
171.469655,79.870937
171.468152,79.862704
171.452714,79.782885
171.452714,79.782884
171.449495,79.766241
171.449184,79.751553
171.446700,79.737072
171.446700,79.638824
171.446610,79.630355
171.444885,79.549089
171.444525,79.532150
171.446308,79.520244
171.446700,79.507917
171.446700,62.298906
171.433104,62.195637
171.393244,62.099406
171.329836,62.016770
171.329837,62.016770
171.306461,61.993395
171.134974,61.764315
170.997833,61.513161
170.897831,61.245046
170.837004,60.965428
170.816590,60.680000
170.837004,60.394572
170.897831,60.114954
170.997833,59.846839
171.134974,59.595685
171.180723,59.534572
171.255735,59.434367
171.306461,59.366605
171.508805,59.164261
171.520209,59.155724
171.726483,59.001309
171.726487,59.001306
171.737885,58.992774
171.750381,58.985951
171.750385,58.985948
171.876140,58.917281
171.989039,58.855633
172.002382,58.850656
172.002387,58.850654
172.243804,58.760610
172.243808,58.760608
172.257154,58.755631
172.536772,58.694804
172.550987,58.693787
172.550996,58.693786
172.807980,58.675407
172.822200,58.674390
172.836420,58.675407
173.093405,58.693786
173.093416,58.693787
173.107628,58.694804
173.121557,58.697833
173.121557,58.697834
173.212052,58.717520
173.387246,58.755631
173.400589,58.760607
173.400597,58.760610
173.642014,58.850654
173.642024,58.850658
173.655361,58.855633
173.667862,58.862459
173.667864,58.862460
173.894016,58.985948
173.894027,58.985954
173.906515,58.992774
173.917907,59.001301
173.917918,59.001309
174.124192,59.155724
174.124200,59.155730
174.135595,59.164261
174.145659,59.174324
174.145666,59.174331
174.290064,59.318730
174.372700,59.382138
174.468931,59.421998
174.572200,59.435594
174.675469,59.421998
174.771700,59.382138
174.854336,59.318730
174.998735,59.174331
174.998736,59.174330
175.008805,59.164261
175.020209,59.155724
175.226483,59.001309
175.226487,59.001306
175.237885,58.992774
175.250381,58.985951
175.250385,58.985948
175.376140,58.917281
175.489039,58.855633
175.502382,58.850656
175.502387,58.850654
175.743804,58.760610
175.743808,58.760608
175.757154,58.755631
176.036772,58.694804
176.050987,58.693787
176.050996,58.693786
176.307980,58.675407
176.322200,58.674390
176.336420,58.675407
176.593405,58.693786
176.593416,58.693787
176.607628,58.694804
176.621557,58.697833
176.621557,58.697834
176.712052,58.717520
176.887246,58.755631
176.900589,58.760607
176.900597,58.760610
177.142014,58.850654
177.142024,58.850658
177.155361,58.855633
177.167862,58.862459
177.167864,58.862460
177.394016,58.985948
177.394027,58.985954
177.406515,58.992774
177.417907,59.001301
177.417918,59.001309
177.624192,59.155724
177.624200,59.155730
177.635595,59.164261
177.645659,59.174324
177.645666,59.174331
177.790064,59.318730
177.872700,59.382138
177.968931,59.421998
178.072200,59.435594
178.175469,59.421998
178.271700,59.382138
178.354336,59.318730
178.498735,59.174331
178.498736,59.174330
178.508805,59.164261
178.520209,59.155724
178.726483,59.001309
178.726487,59.001306
178.737885,58.992774
178.750381,58.985951
178.750385,58.985948
178.876140,58.917281
178.989039,58.855633
179.002382,58.850656
179.002387,58.850654
179.243804,58.760610
179.243808,58.760608
179.257154,58.755631
179.536772,58.694804
179.550987,58.693787
179.550996,58.693786
179.807980,58.675407
179.822200,58.674390
179.836420,58.675407
180.093405,58.693786
180.093416,58.693787
180.107628,58.694804
180.121557,58.697833
180.121557,58.697834
180.212052,58.717520
180.387246,58.755631
180.400589,58.760607
180.400597,58.760610
180.642014,58.850654
180.642024,58.850658
180.655361,58.855633
180.667862,58.862459
180.667864,58.862460
180.894016,58.985948
180.894027,58.985954
180.906515,58.992774
180.917907,59.001301
180.917918,59.001309
181.124192,59.155724
181.124200,59.155730
181.135595,59.164261
181.145659,59.174324
181.145666,59.174331
181.327869,59.356534
181.327876,59.356541
181.337939,59.366605
181.346470,59.378000
181.346476,59.378008
181.500891,59.584282
181.500899,59.584293
181.509426,59.595685
181.516246,59.608173
181.516252,59.608184
181.639740,59.834336
181.646567,59.846839
181.651542,59.860176
181.651546,59.860186
181.741590,60.101603
181.741593,60.101611
181.746569,60.114954
181.749598,60.128877
181.749598,60.128878
181.764567,60.197692
181.807396,60.394572
181.808413,60.408784
181.808414,60.408795
181.826785,60.665663
181.827810,60.680000
181.826793,60.694220
181.808414,60.951204
181.808413,60.951213
181.807396,60.965428
181.746569,61.245046
181.741592,61.258392
181.741590,61.258396
181.651965,61.498690
181.646567,61.513161
181.639740,61.525663
181.520318,61.744369
181.509426,61.764315
181.500894,61.775713
181.500891,61.775717
181.346476,61.981991
181.337939,61.993395
181.327869,62.003465
181.314564,62.016770
181.251156,62.099406
181.211296,62.195637
181.197700,62.298906
181.197700,81.414977
181.211296,81.518246
181.251156,81.614477
181.314564,81.697113
184.134353,84.516900
184.232452,84.588786
184.347649,84.627781
184.469242,84.630261
184.585934,84.595997
184.686883,84.528172
184.762710,84.433086
184.806371,84.319575
184.834801,84.188882
184.834802,84.188878
184.837831,84.174954
184.937833,83.906839
185.074974,83.655685
185.246461,83.426605
185.269836,83.403230
185.333244,83.320594
185.373104,83.224363
185.386700,83.121094
185.386700,61.216512
185.385891,61.191120
185.383117,61.147613
185.382038,61.130699
185.392444,61.033027
185.393253,61.024588
185.401584,60.926699
185.405287,60.912477
185.406843,60.897872
185.433621,60.803309
185.435816,60.795230
185.456310,60.716519
185.456312,60.716513
185.460583,60.700110
185.466636,60.686720
185.470638,60.672586
185.513002,60.583931
185.516537,60.576327
185.557028,60.486750
185.565255,60.474578
185.571589,60.461322
185.581372,60.447490
185.581377,60.447481
185.628329,60.381095
185.633143,60.374132
185.678642,60.306815
185.678647,60.306809
185.688143,60.292759
185.698308,60.282154
185.706792,60.270157
185.776283,60.200666
185.782208,60.194613
185.838427,60.135955
185.850156,60.123717
185.859839,60.116555
185.868822,60.108127
186.344136,59.632813
186.416645,59.533509
186.455476,59.416843
186.456939,59.293894
186.420896,59.176336
186.350770,59.075336
186.253221,59.000483
186.050385,58.889726
185.821305,58.718239
185.618961,58.515895
185.447474,58.286815
185.310333,58.035661
185.210331,57.767546
185.149504,57.487928
185.129090,57.202500
185.149504,56.917072
185.210331,56.637454
185.310333,56.369339
185.447474,56.118185
185.618961,55.889105
185.821305,55.686761
185.893381,55.632806
186.038981,55.523811
186.050385,55.515274
186.058311,55.510946
186.142162,55.438287
186.203560,55.342748
186.235555,55.233781
186.235554,55.120214
186.203558,55.011248
186.142159,54.915710
186.056331,54.841339
185.953027,54.794162
185.840616,54.778000
168.749200,54.778000
Z" /> 
<path style="fill:#000000; fill-opacity:1.000000; 
stroke:#000000; stroke-width:0.000000; stroke-opacity:1; 
stroke-linecap:round; stroke-linejoin:round;fill-rule:evenodd;"
d="M 196.071510,93.032893
195.971077,93.093089
195.892444,93.179848
195.842381,93.285697
195.825200,93.401520
195.825200,93.851695
195.825200,93.851717
195.825199,93.860536
195.814586,93.979918
195.758609,94.175549
195.749244,94.193478
195.749242,94.193482
195.699649,94.288424
195.664398,94.355907
195.535809,94.513609
195.378107,94.642198
195.197749,94.736409
195.002118,94.792386
194.882737,94.803000
193.066664,94.802999
192.947282,94.792386
192.751651,94.736409
192.733713,94.727039
192.726638,94.723344
192.637011,94.689502
192.541900,94.678000
189.107500,94.678000
189.012389,94.689502
188.922762,94.723344
188.915688,94.727039
188.915684,94.727040
188.897749,94.736409
188.702118,94.792386
188.582737,94.803000
186.766664,94.802999
186.647282,94.792386
186.451651,94.736409
186.433713,94.727039
186.426638,94.723344
186.337011,94.689502
186.241900,94.678000
184.361212,94.678000
184.335820,94.678809
184.275399,94.682662
184.177664,94.672249
184.169322,94.671449
184.071399,94.663116
184.057184,94.659414
184.042572,94.657858
183.947959,94.631065
183.939970,94.628894
183.844810,94.604117
183.831421,94.598064
183.817286,94.594062
183.728612,94.551688
183.720986,94.548144
183.711024,94.543640
183.631450,94.507672
183.619279,94.499445
183.606022,94.493111
183.525701,94.436302
183.518976,94.431652
183.437459,94.376557
183.426855,94.366392
183.414857,94.357908
183.345325,94.288374
183.339368,94.282543
183.268417,94.214544
183.261257,94.204861
183.252828,94.195878
182.929335,93.872386
182.828342,93.799010
182.709617,93.760434
182.584782,93.760434
182.466058,93.799010
182.365064,93.872386
182.002294,94.235156
181.984912,94.253683
181.956106,94.286414
181.956094,94.286425
181.944903,94.299141
181.931718,94.309787
181.868470,94.360856
181.861934,94.366249
181.829255,94.393802
181.755335,94.476216
181.706906,94.575770
181.687697,94.684799
181.699187,94.794909
181.740490,94.897624
181.808428,94.985036
181.897769,95.050415
182.001636,95.088728
182.203325,95.132602
182.203334,95.132604
182.217246,95.135631
182.230589,95.140607
182.230597,95.140610
182.472014,95.230654
182.472024,95.230658
182.485361,95.235633
182.497862,95.242459
182.497864,95.242460
182.724016,95.365948
182.724027,95.365954
182.736515,95.372774
182.747907,95.381301
182.747918,95.381309
182.954192,95.535724
182.954200,95.535730
182.965595,95.544261
182.975659,95.554324
182.975666,95.554331
182.988970,95.567636
183.071606,95.631044
183.167837,95.670904
183.271106,95.684500
208.807177,95.684500
208.910446,95.670904
209.006677,95.631044
209.089313,95.567636
209.172814,95.484135
209.242565,95.390086
209.282011,95.279840
209.287757,95.162890
209.259306,95.049308
209.199109,94.948876
209.112351,94.870243
209.006502,94.820180
208.890685,94.802999
207.229164,94.802999
207.109782,94.792386
206.914151,94.736409
206.896213,94.727039
206.889138,94.723344
206.799511,94.689502
206.704400,94.678000
203.270000,94.678000
203.174889,94.689502
203.085262,94.723344
203.078188,94.727039
203.078184,94.727040
203.060249,94.736409
202.864618,94.792386
202.745237,94.803000
200.929164,94.802999
200.809782,94.792386
200.614151,94.736409
200.596213,94.727039
200.589138,94.723344
200.499511,94.689502
200.404400,94.678000
198.691212,94.678000
198.665820,94.678809
198.605399,94.682662
198.507664,94.672249
198.499322,94.671449
198.401399,94.663116
198.387184,94.659414
198.372572,94.657858
198.277959,94.631065
198.269970,94.628894
198.174810,94.604117
198.161421,94.598064
198.147286,94.594062
198.058612,94.551688
198.050986,94.548144
198.041024,94.543640
197.961450,94.507672
197.949279,94.499445
197.936022,94.493111
197.855701,94.436302
197.848976,94.431652
197.767459,94.376557
197.756855,94.366392
197.744857,94.357908
197.675326,94.288375
197.669369,94.282544
197.598417,94.214544
197.591255,94.204858
197.582845,94.195894
196.506333,93.119382
196.412287,93.049634
196.302041,93.010188
196.185091,93.004442
Z" /> 
<path style="fill:#000000; fill-opacity:1.000000; 
stroke:#000000; stroke-width:0.000000; stroke-opacity:1; 
stroke-linecap:round; stroke-linejoin:round;fill-rule:evenodd;"
d="M 195.499278,54.795726
195.392120,54.847331
195.304934,54.928228
195.245466,55.031229
195.219001,55.147183
195.227889,55.265786
195.271341,55.376500
195.345496,55.469488
195.443765,55.536487
195.643775,55.632806
195.669560,55.647693
195.867793,55.782846
195.891071,55.801410
196.066955,55.964606
196.087199,55.986424
196.236790,56.174005
196.253567,56.198613
196.373529,56.406393
196.386443,56.433209
196.474099,56.656553
196.482878,56.685014
196.503040,56.773349
196.504941,56.798709
196.479790,56.802500
194.753700,56.802500
194.650431,56.816096
194.554200,56.855956
194.471564,56.919364
194.408156,57.002000
194.368296,57.098231
194.354700,57.201500
194.354700,58.933891
194.351159,58.958426
194.340861,58.958364
194.338748,58.957882
194.109513,58.887172
194.081790,58.876292
193.865631,58.772196
193.862317,58.770283
193.858564,58.768792
193.852176,58.765717
193.851958,58.766170
193.754573,58.727513
193.639082,58.717520
193.525593,58.741147
193.423685,58.796399
193.316960,58.876293
193.299015,58.889726
193.246633,58.918329
193.163890,58.978445
193.099147,59.057621
193.056660,59.150655
193.039219,59.251434
193.047971,59.353336
193.065598,59.434367
193.087396,59.534572
193.088413,59.548784
193.088414,59.548795
193.099989,59.710646
193.107810,59.820000
193.106793,59.834220
193.088414,60.091204
193.088413,60.091213
193.087396,60.105428
193.026569,60.385046
193.021592,60.398392
193.021590,60.398396
192.952376,60.583967
192.926567,60.653161
192.908242,60.686720
192.801845,60.881573
192.789426,60.904315
192.780894,60.915713
192.780891,60.915717
192.632576,61.113842
192.617939,61.133395
192.415595,61.335739
192.186515,61.507226
191.935361,61.644367
191.667246,61.744369
191.387628,61.805196
191.102200,61.825610
190.816772,61.805196
190.537154,61.744369
190.269039,61.644367
190.017885,61.507226
189.788805,61.335739
189.765431,61.312364
189.682794,61.248956
189.586563,61.209096
189.483294,61.195500
188.837223,61.195500
188.733954,61.209096
188.637723,61.248956
188.555087,61.312364
188.254564,61.612887
188.191156,61.695523
188.151296,61.791754
188.137700,61.895023
188.137700,83.121094
188.151296,83.224363
188.191156,83.320594
188.254564,83.403230
188.267869,83.416534
188.267876,83.416541
188.277939,83.426605
188.286470,83.438000
188.286476,83.438008
188.440891,83.644282
188.440899,83.644293
188.449426,83.655685
188.456246,83.668173
188.456252,83.668184
188.570820,83.878001
188.586567,83.906839
188.591542,83.920176
188.591546,83.920186
188.681590,84.161603
188.681593,84.161611
188.686569,84.174954
188.747396,84.454572
188.748413,84.468784
188.748414,84.468795
188.761499,84.651753
188.767810,84.740000
188.766793,84.754220
188.748414,85.011204
188.748413,85.011213
188.747396,85.025428
188.686569,85.305046
188.681592,85.318392
188.681590,85.318396
188.600784,85.535046
188.586567,85.573161
188.449426,85.824315
188.277939,86.053395
188.075595,86.255739
188.064192,86.264275
187.884280,86.398956
187.846515,86.427226
187.595361,86.564367
187.327246,86.664369
187.047628,86.725196
186.832815,86.740559
186.723289,86.764163
186.624643,86.817289
186.544656,86.895746
186.489635,86.993348
186.463920,87.102400
186.469538,87.214301
186.481690,87.277132
186.481691,87.277138
186.484905,87.293759
186.485217,87.308446
186.487700,87.322928
186.487700,87.339872
186.487700,87.421176
186.487790,87.429645
186.489516,87.510910
186.489516,87.510917
186.489875,87.527850
186.488093,87.539755
186.487700,87.552083
186.487700,87.803500
186.501296,87.906769
186.541156,88.003000
186.604564,88.085636
186.687200,88.149044
186.783431,88.188904
186.886700,88.202500
187.248550,88.202500
187.271658,88.205542
187.274700,88.228650
187.274700,89.503500
187.288296,89.606769
187.328156,89.703000
187.391564,89.785636
187.474200,89.849044
187.570431,89.888904
187.673700,89.902500
189.298550,89.902500
189.322853,89.905699
189.326823,89.910873
189.379417,89.998623
189.466175,90.077256
189.572024,90.127319
189.687848,90.144500
191.961552,90.144500
192.077376,90.127319
192.183225,90.077256
192.269983,89.998623
192.322578,89.910873
192.326548,89.905699
192.350850,89.902500
195.598550,89.902500
195.622853,89.905699
195.626823,89.910873
195.679417,89.998623
195.766175,90.077256
195.872024,90.127319
195.987848,90.144500
196.795688,90.144500
196.821080,90.143691
196.864587,90.140916
196.864595,90.140916
196.881501,90.139838
196.898350,90.141632
196.898356,90.141633
196.979215,90.150247
196.987639,90.151054
197.068613,90.157946
197.068620,90.157947
197.085501,90.159384
197.099717,90.163085
197.114328,90.164642
197.208906,90.191423
197.217031,90.193631
197.295705,90.214116
197.295712,90.214118
197.312090,90.218383
197.325476,90.224433
197.339613,90.228437
197.354899,90.235740
197.354904,90.235743
197.428247,90.270789
197.435918,90.274355
197.510016,90.307850
197.510028,90.307856
197.525450,90.314828
197.537622,90.323054
197.550878,90.329389
197.564699,90.339163
197.564708,90.339169
197.631073,90.386106
197.638027,90.390914
197.705402,90.436452
197.705418,90.436464
197.719441,90.445943
197.730046,90.456107
197.742043,90.464592
197.754020,90.476568
197.754025,90.476573
197.811540,90.534087
197.817585,90.540004
197.876250,90.596230
197.876259,90.596239
197.888483,90.607956
197.895641,90.617633
197.904080,90.626627
199.087586,91.810135
199.170222,91.873544
199.266453,91.913404
199.369722,91.927000
200.404400,91.927000
200.499511,91.915498
200.589138,91.881656
200.596213,91.877960
200.596222,91.877956
200.614151,91.868591
200.633604,91.863024
200.633606,91.863024
200.791542,91.817833
200.791544,91.817832
200.809782,91.812614
200.828674,91.810934
200.828681,91.810933
200.920341,91.802784
200.920349,91.802783
200.929163,91.802000
200.938018,91.802000
202.736396,91.802000
202.736419,91.802000
202.745236,91.802001
202.754027,91.802782
202.754038,91.802783
202.845732,91.810935
202.864618,91.812614
202.882849,91.817830
202.882852,91.817831
203.040795,91.863024
203.040800,91.863025
203.060249,91.868591
203.078176,91.877954
203.078188,91.877960
203.085262,91.881656
203.174889,91.915498
203.270000,91.927000
206.704400,91.927000
206.799511,91.915498
206.889138,91.881656
206.896213,91.877960
206.896222,91.877956
206.914151,91.868591
206.933604,91.863024
206.933606,91.863024
207.091542,91.817833
207.091544,91.817832
207.109782,91.812614
207.128674,91.810934
207.128681,91.810933
207.220341,91.802784
207.220349,91.802783
207.229163,91.802000
207.238018,91.802000
209.036396,91.802000
209.036419,91.802000
209.045236,91.802001
209.054027,91.802782
209.054038,91.802783
209.145732,91.810935
209.164618,91.812614
209.182842,91.817828
209.182845,91.817829
209.192751,91.820663
209.207942,91.825010
209.329493,91.840230
209.449936,91.817854
209.557914,91.759992
209.643248,91.672097
209.697894,91.562456
209.716700,91.441404
209.716700,91.157137
209.701979,91.049757
209.658903,90.950300
209.590649,90.866105
209.502255,90.803385
209.400243,90.766768
209.292140,90.758957
209.209509,90.775736
209.209338,90.774991
209.144081,90.789885
209.043247,90.801246
209.020935,90.802500
208.563350,90.802500
208.540243,90.799457
208.537200,90.776350
207.737200,90.776350
207.734158,90.799457
207.711050,90.802500
207.253465,90.802500
207.231154,90.801246
207.130320,90.789885
207.086912,90.779978
206.959045,90.735235
206.918925,90.715914
206.804230,90.643847
206.769408,90.616078
206.673622,90.520292
206.645853,90.485470
206.573786,90.370775
206.554465,90.330655
206.509722,90.202788
206.499815,90.159380
206.488454,90.058546
206.487200,90.036235
203.487200,90.036235
203.485947,90.058546
203.474586,90.159380
203.464679,90.202788
203.419936,90.330655
203.400615,90.370775
203.328548,90.485470
203.300779,90.520292
203.204993,90.616078
203.170171,90.643847
203.055476,90.715914
203.015356,90.735235
202.887489,90.779978
202.844081,90.789885
202.743247,90.801246
202.720935,90.802500
202.263350,90.802500
202.240243,90.799457
202.237200,90.776350
201.437200,90.776350
201.434158,90.799457
201.411050,90.802500
200.953465,90.802500
200.931154,90.801246
200.830320,90.789885
200.786912,90.779978
200.659045,90.735235
200.618925,90.715914
200.504230,90.643847
200.469408,90.616078
200.373622,90.520292
200.345853,90.485470
200.273786,90.370775
200.254465,90.330655
200.209722,90.202788
200.199815,90.159380
200.188454,90.058546
200.187200,90.036235
200.187200,89.928650
200.190243,89.905542
200.213350,89.902500
201.411050,89.902500
201.434158,89.905542
201.437200,89.928650
201.437200,90.776350
202.237200,90.776350
202.237200,89.928650
202.240243,89.905542
202.263350,89.902500
203.461050,89.902500
203.484158,89.905542
203.487200,89.928650
203.487200,90.036235
206.487200,90.036235
206.487200,89.928650
206.490243,89.905542
206.513350,89.902500
207.711050,89.902500
207.734158,89.905542
207.737200,89.928650
207.737200,90.776350
208.537200,90.776350
208.537200,89.501500
208.523604,89.398231
208.483744,89.302000
208.420336,89.219364
208.337700,89.155956
208.241469,89.116096
208.138200,89.102500
206.513350,89.102500
206.490243,89.099457
206.487200,89.076350
203.487200,89.076350
203.484158,89.099457
203.461050,89.102500
202.263350,89.102500
202.240243,89.099457
202.237200,89.076350
201.437200,89.076350
201.434158,89.099457
201.411050,89.102500
200.213350,89.102500
200.190243,89.099457
200.187200,89.076350
195.624700,89.076350
195.621658,89.099457
195.598550,89.102500
194.400850,89.102500
194.377743,89.099457
194.374700,89.076350
193.574700,89.076350
193.571658,89.099457
193.548550,89.102500
192.350850,89.102500
192.327743,89.099457
192.324700,89.076350
189.324700,89.076350
189.321658,89.099457
189.298550,89.102500
188.100850,89.102500
188.077743,89.099457
188.074700,89.076350
188.074700,88.228650
188.077743,88.205542
188.100850,88.202500
188.558435,88.202500
188.580747,88.203753
188.681581,88.215114
188.724989,88.225021
188.852856,88.269764
188.892976,88.289085
189.007671,88.361152
189.042493,88.388921
189.138279,88.484707
189.166048,88.519529
189.238115,88.634224
189.257436,88.674344
189.302179,88.802211
189.312086,88.845619
189.323447,88.946453
189.324700,88.968765
189.324700,89.076350
192.324700,89.076350
192.324700,88.968765
192.325954,88.946453
192.337315,88.845619
192.347222,88.802211
192.391965,88.674344
192.411286,88.634224
192.483353,88.519529
192.511122,88.484707
192.606908,88.388921
192.641730,88.361152
192.756425,88.289085
192.796545,88.269764
192.924412,88.225021
192.967820,88.215114
193.068654,88.203753
193.090965,88.202500
193.548550,88.202500
193.571658,88.205542
193.574700,88.228650
193.574700,89.076350
194.374700,89.076350
194.374700,88.228650
194.377743,88.205542
194.400850,88.202500
194.858435,88.202500
194.880747,88.203753
194.981581,88.215114
195.024989,88.225021
195.152856,88.269764
195.192976,88.289085
195.307671,88.361152
195.342493,88.388921
195.438279,88.484707
195.466048,88.519529
195.538115,88.634224
195.557436,88.674344
195.602179,88.802211
195.612086,88.845619
195.623447,88.946453
195.624700,88.968765
195.624700,89.076350
200.187200,89.076350
200.187200,88.968765
200.188454,88.946453
200.199815,88.845619
200.209722,88.802211
200.254465,88.674344
200.273786,88.634224
200.345853,88.519529
200.373622,88.484707
200.469408,88.388921
200.504230,88.361152
200.618925,88.289085
200.659045,88.269764
200.786912,88.225021
200.830320,88.215114
200.931154,88.203753
200.953465,88.202500
201.411050,88.202500
201.434158,88.205542
201.437200,88.228650
201.437200,89.076350
202.237200,89.076350
202.237200,88.228650
202.240243,88.205542
202.263350,88.202500
202.720935,88.202500
202.743247,88.203753
202.844081,88.215114
202.887489,88.225021
203.015356,88.269764
203.055476,88.289085
203.170171,88.361152
203.204993,88.388921
203.300779,88.484707
203.328548,88.519529
203.400615,88.634224
203.419936,88.674344
203.464679,88.802211
203.474586,88.845619
203.485947,88.946453
203.487200,88.968765
203.487200,89.076350
206.487200,89.076350
206.487200,88.968765
206.488454,88.946453
206.499815,88.845619
206.509722,88.802211
206.554465,88.674344
206.573786,88.634224
206.645853,88.519529
206.673622,88.484707
206.769408,88.388921
206.804230,88.361152
206.918925,88.289085
206.959045,88.269764
207.086912,88.225021
207.130320,88.215114
207.242274,88.202500
207.242001,88.200075
207.333098,88.181609
207.434096,88.128063
207.515767,88.048076
207.571405,87.948215
207.596444,87.836676
207.588829,87.722614
207.549184,87.615394
207.480764,87.523815
206.419312,86.462364
206.336677,86.398956
206.240446,86.359096
206.137177,86.345500
193.291106,86.345500
193.187837,86.359096
193.091606,86.398956
193.008971,86.462363
192.985595,86.485739
192.756515,86.657226
192.505361,86.794367
192.237246,86.894369
191.957628,86.955196
191.672200,86.975610
191.386772,86.955196
191.107154,86.894369
190.839039,86.794367
190.587885,86.657226
190.358805,86.485739
190.156461,86.283395
189.984974,86.054315
189.847833,85.803161
189.747831,85.535046
189.687004,85.255428
189.666590,84.970000
189.687004,84.684572
189.747831,84.404954
189.847833,84.136839
189.984974,83.885685
190.156461,83.656605
190.358805,83.454261
190.409202,83.416534
190.576483,83.291309
190.576487,83.291306
190.587885,83.282774
190.600381,83.275951
190.600385,83.275948
190.726140,83.207281
190.839039,83.145633
190.852382,83.140656
190.852387,83.140654
191.093804,83.050610
191.093808,83.050608
191.107154,83.045631
191.121073,83.042603
191.121087,83.042599
191.277896,83.008487
191.378022,82.972156
191.464968,82.910631
191.532539,82.828295
191.565614,82.754126
191.567831,82.754954
191.667833,82.486839
191.804974,82.235685
191.976461,82.006605
192.178805,81.804261
192.204348,81.785140
192.396483,81.641309
192.396487,81.641306
192.407885,81.632774
192.420381,81.625951
192.420385,81.625948
192.546140,81.557281
192.659039,81.495633
192.672382,81.490656
192.672387,81.490654
192.720141,81.472843
192.827350,81.412635
192.911136,81.322642
192.963542,81.211411
192.979591,81.089504
192.957759,80.968500
192.900120,80.859888
192.812147,80.773984
192.702194,80.718946
192.580704,80.700000
189.148350,80.700000
189.122200,80.700000
189.122200,64.460000
196.442200,64.460000
196.442200,80.700000
196.416050,80.700000
194.403696,80.700000
194.282206,80.718946
194.172253,80.773984
194.084280,80.859888
194.026641,80.968500
194.004809,81.089504
194.020858,81.211411
194.073264,81.322642
194.157050,81.412635
194.264259,81.472843
194.312014,81.490654
194.312024,81.490658
194.325361,81.495633
194.337862,81.502459
194.337864,81.502460
194.564016,81.625948
194.564027,81.625954
194.576515,81.632774
194.587907,81.641301
194.587918,81.641309
194.794192,81.795724
194.794200,81.795730
194.805595,81.804261
194.815659,81.814324
194.815666,81.814331
194.828970,81.827636
194.911606,81.891044
195.007837,81.930904
195.111106,81.944500
207.465685,81.944500
207.491076,81.943691
207.534586,81.940916
207.534593,81.940916
207.551501,81.939838
207.568350,81.941632
207.568356,81.941633
207.649215,81.950247
207.657639,81.951054
207.738613,81.957946
207.738620,81.957947
207.755501,81.959384
207.769717,81.963085
207.784328,81.964642
207.878906,81.991423
207.887031,81.993631
207.965705,82.014116
207.965712,82.014118
207.982090,82.018383
207.995476,82.024433
208.009613,82.028437
208.024899,82.035740
208.024904,82.035743
208.098247,82.070789
208.105918,82.074355
208.180016,82.107850
208.180028,82.107856
208.195450,82.114828
208.207622,82.123054
208.220878,82.129389
208.234699,82.139163
208.234708,82.139169
208.301073,82.186106
208.308027,82.190914
208.375402,82.236452
208.375418,82.236464
208.389441,82.245943
208.400046,82.256107
208.412043,82.264592
208.424020,82.276568
208.424025,82.276573
208.481540,82.334087
208.487585,82.340004
208.546250,82.396230
208.546259,82.396239
208.558483,82.407956
208.565641,82.417633
208.574073,82.426620
209.692973,83.545520
209.789686,83.616682
209.903191,83.655849
210.023210,83.659474
210.138872,83.627229
210.223869,83.572271
210.224271,83.571817
210.364270,83.475182
210.462291,83.438008
210.500759,83.423419
210.500761,83.423418
210.523328,83.414860
210.547285,83.411951
210.547289,83.411950
210.637865,83.400952
210.637875,83.400951
210.649828,83.399500
210.734572,83.399500
210.746525,83.400951
210.746536,83.400952
210.837112,83.411950
210.837118,83.411951
210.861072,83.414860
210.883638,83.423417
210.883642,83.423419
210.997565,83.466624
210.997568,83.466625
211.020130,83.475182
211.039991,83.488890
211.039991,83.488891
211.122031,83.545520
211.160129,83.571817
211.176131,83.589878
211.176135,83.589883
211.256927,83.681079
211.256930,83.681082
211.272934,83.699148
211.351990,83.849775
211.357765,83.873205
211.357766,83.873208
211.358947,83.878001
211.392700,84.014944
211.392700,84.185056
211.386924,84.208490
211.359545,84.319575
211.351990,84.350225
211.272934,84.500852
211.256927,84.518920
211.228576,84.550922
211.163384,84.651753
211.131141,84.767413
211.134768,84.887429
211.173935,85.000931
211.245096,85.097642
212.668064,86.520612
212.762112,86.590363
212.872359,86.629810
212.989309,86.635556
213.102891,86.607105
213.203323,86.546908
213.281956,86.460150
213.332019,86.354301
213.349200,86.238477
213.349200,81.185056
211.392700,81.185056
211.386924,81.208490
211.360823,81.314390
211.351990,81.350225
211.272934,81.500852
211.160129,81.628183
211.020130,81.724818
210.861072,81.785140
210.734572,81.800500
210.661881,81.800500
210.649828,81.800500
210.523328,81.785140
210.364270,81.724818
210.224271,81.628183
210.111466,81.500852
210.032410,81.350225
209.991700,81.185056
209.991700,81.014944
210.032410,80.849775
210.111466,80.699148
210.224271,80.571817
210.364270,80.475182
210.523328,80.414860
210.547285,80.411951
210.547289,80.411950
210.637865,80.400952
210.637875,80.400951
210.649828,80.399500
210.734572,80.399500
210.746525,80.400951
210.746536,80.400952
210.837112,80.411950
210.837118,80.411951
210.861072,80.414860
210.883638,80.423417
210.883642,80.423419
210.997565,80.466624
210.997568,80.466625
211.020130,80.475182
211.039991,80.488890
211.039991,80.488891
211.044809,80.492217
211.160129,80.571817
211.176131,80.589878
211.176135,80.589883
211.256927,80.681079
211.256930,80.681082
211.272934,80.699148
211.284151,80.720518
211.284152,80.720521
211.312211,80.773984
211.351990,80.849775
211.392700,81.014944
211.392700,81.185056
213.349200,81.185056
213.349200,77.350324
213.332438,77.235889
213.283559,77.131070
213.206672,77.044672
213.108235,76.983956
212.996520,76.954022
212.880913,76.957386
212.771128,76.993765
212.676389,77.060103
212.604656,77.150824
212.474015,77.377102
212.305761,77.588085
212.107941,77.771635
212.095599,77.780049
212.095596,77.780052
212.002663,77.843412
211.884974,77.923651
211.871524,77.930128
211.871519,77.930131
211.809495,77.960000
211.641841,78.040738
211.383972,78.120280
211.117129,78.160500
210.862205,78.160500
210.847271,78.160500
210.580428,78.120280
210.322559,78.040738
210.079425,77.923651
209.856459,77.771635
209.658639,77.588085
209.498841,77.387704
209.417130,77.310609
209.317164,77.259345
209.206869,77.237980
209.094991,77.248208
208.990399,77.289218
208.901385,77.357758
208.835005,77.448395
208.818710,77.478881
208.797030,77.511328
208.690695,77.640897
208.663098,77.668494
208.533529,77.774829
208.501082,77.796509
208.353248,77.875528
208.317203,77.890458
208.156798,77.939116
208.118528,77.946729
207.993541,77.959039
207.973985,77.960000
207.808350,77.960000
207.785243,77.956957
207.782200,77.933850
206.982200,77.933850
206.979158,77.956957
206.956050,77.960000
206.790415,77.960000
206.770860,77.959039
206.645873,77.946729
206.607603,77.939116
206.447198,77.890458
206.411153,77.875528
206.263319,77.796509
206.230872,77.774829
206.101303,77.668494
206.073706,77.640897
205.967371,77.511328
205.945691,77.478881
205.866672,77.331047
205.851742,77.295002
205.803084,77.134597
205.795471,77.096327
205.783161,76.971340
205.782200,76.951785
205.782200,76.786150
205.785243,76.763042
205.808350,76.760000
206.956050,76.760000
206.979158,76.763042
206.982200,76.786150
206.982200,77.933850
207.782200,77.933850
207.782200,75.933850
206.982200,75.933850
206.979158,75.956957
206.956050,75.960000
205.808350,75.960000
205.785243,75.956957
205.782200,75.933850
205.782200,75.768215
205.783161,75.748659
205.795471,75.623672
205.803084,75.585402
205.851742,75.424997
205.866672,75.388952
205.945691,75.241118
205.967371,75.208671
206.073706,75.079102
206.101303,75.051505
206.230872,74.945170
206.263319,74.923490
206.411153,74.844471
206.447198,74.829541
206.607603,74.780883
206.645873,74.773270
206.770860,74.760960
206.790415,74.760000
206.956050,74.760000
206.979158,74.763042
206.982200,74.786150
206.982200,75.933850
207.782200,75.933850
207.782200,74.786150
207.785243,74.763042
207.808350,74.760000
207.973985,74.760000
207.993541,74.760960
208.118528,74.773270
208.156798,74.780883
208.317203,74.829541
208.353248,74.844471
208.501082,74.923490
208.533529,74.945170
208.663098,75.051505
208.690695,75.079102
208.797030,75.208671
208.818713,75.241122
208.835007,75.271607
208.901387,75.362243
208.990401,75.430782
209.094993,75.471791
209.206870,75.482019
209.317164,75.460654
209.417130,75.409390
209.498843,75.332292
209.649327,75.143592
209.658639,75.131915
209.856459,74.948365
209.868792,74.939957
209.868795,74.939954
210.008843,74.844471
210.079425,74.796349
210.322559,74.679262
210.336815,74.674864
210.336819,74.674863
210.566167,74.604119
210.580428,74.599720
210.595176,74.597497
210.595185,74.597495
210.832508,74.561725
210.832511,74.561724
210.847271,74.559500
211.117129,74.559500
211.131889,74.561724
211.131893,74.561725
211.369216,74.597495
211.369228,74.597497
211.383972,74.599720
211.398231,74.604118
211.398234,74.604119
211.627578,74.674862
211.627584,74.674864
211.641841,74.679262
211.655287,74.685737
211.655294,74.685740
211.871519,74.789868
211.871534,74.789876
211.884974,74.796349
211.897311,74.804759
211.897316,74.804763
212.095596,74.939947
212.095608,74.939956
212.107941,74.948365
212.118883,74.958517
212.118891,74.958524
212.294815,75.121758
212.294820,75.121762
212.305761,75.131915
212.315068,75.143585
212.315074,75.143592
212.464704,75.331221
212.464711,75.331230
212.474015,75.342898
212.481479,75.355825
212.481481,75.355829
212.604655,75.569175
212.676389,75.659897
212.771128,75.726235
212.880913,75.762614
212.996520,75.765978
213.108235,75.736044
213.206672,75.675328
213.283559,75.588930
213.332438,75.484111
213.349200,75.369676
213.349200,58.449106
213.330254,58.327616
213.275216,58.217663
213.189312,58.129690
213.080700,58.072051
212.959695,58.050219
212.837789,58.066268
212.726558,58.118674
212.636565,58.202460
212.576357,58.309670
212.531548,58.429809
212.531543,58.429820
212.526567,58.443161
212.519740,58.455663
212.438967,58.603589
212.389426,58.694315
212.380894,58.705713
212.380891,58.705717
212.243143,58.889726
212.217939,58.923395
212.015595,59.125739
211.786515,59.297226
211.535361,59.434367
211.267246,59.534369
210.987628,59.595196
210.702200,59.615610
210.416772,59.595196
210.137154,59.534369
209.869039,59.434367
209.617885,59.297226
209.388805,59.125739
209.241231,58.978164
209.153090,58.911637
209.050085,58.871816
208.940109,58.861755
208.831588,58.882226
208.732836,58.931660
208.651416,59.006270
208.638035,59.022477
208.514678,59.145834
208.485499,59.169926
208.341029,59.267706
208.307815,59.285841
208.147457,59.354511
208.111411,59.366034
207.937466,59.403873
207.906962,59.408074
207.880576,59.409646
207.868685,59.410000
207.528350,59.410000
207.505243,59.406957
207.502200,59.383850
207.502200,59.383849
206.702200,59.383849
206.699158,59.406956
206.676050,59.409999
206.335688,59.409999
206.323844,59.409646
206.297445,59.408074
206.266932,59.403872
206.092990,59.366034
206.056944,59.354511
205.896586,59.285841
205.863372,59.267706
205.718902,59.169926
205.689723,59.145834
205.566366,59.022477
205.542274,58.993298
205.444494,58.848828
205.426359,58.815614
205.357689,58.655256
205.346166,58.619210
205.308327,58.445265
205.304126,58.414761
205.302554,58.388375
205.302200,58.376485
205.302200,58.036150
205.305243,58.013042
205.328350,58.010000
206.676050,58.010000
206.699158,58.013042
206.702200,58.036150
206.702200,59.383849
207.502200,59.383849
207.502200,57.606290
196.504941,57.606290
196.503040,57.631650
196.482878,57.719985
196.474099,57.748446
196.386443,57.971790
196.373529,57.998606
196.253567,58.206386
196.236790,58.230994
196.087199,58.418575
196.066955,58.440393
195.891071,58.603589
195.867793,58.622153
195.669560,58.757306
195.643775,58.772193
195.427610,58.876293
195.399887,58.887173
195.170653,58.957882
195.168540,58.958364
195.158242,58.958426
195.154700,58.933891
195.154700,57.628650
195.157743,57.605542
195.180850,57.602500
196.479790,57.602500
196.504941,57.606290
207.502200,57.606290
207.502200,57.183850
206.702200,57.183850
206.699158,57.206957
206.676050,57.210000
205.328351,57.210000
205.305244,57.206957
205.302201,57.183850
205.302201,56.843488
205.302554,56.831643
205.304126,56.805244
205.308328,56.774731
205.346166,56.600789
205.357689,56.564743
205.426359,56.404385
205.444494,56.371171
205.542274,56.226701
205.566366,56.197522
205.689723,56.074165
205.718902,56.050073
205.863372,55.952293
205.896586,55.934158
206.056944,55.865488
206.092990,55.853965
206.266935,55.816126
206.297439,55.811925
206.323825,55.810353
206.335715,55.810000
206.676050,55.810000
206.699158,55.813042
206.702200,55.836150
206.702200,57.183850
207.502200,57.183850
207.502200,55.836151
207.505243,55.813043
207.528350,55.810001
207.868712,55.810001
207.880557,55.810353
207.906956,55.811925
207.937469,55.816127
208.111411,55.853965
208.147457,55.865488
208.307815,55.934158
208.341029,55.952293
208.485499,56.050073
208.514678,56.074165
208.638037,56.197524
208.651420,56.213734
208.732840,56.288342
208.831592,56.337774
208.940112,56.358244
209.050086,56.348183
209.153090,56.308362
209.241234,56.241832
209.378735,56.104331
209.388805,56.094261
209.532858,55.986424
209.606483,55.931309
209.606487,55.931306
209.617885,55.922774
209.630381,55.915951
209.630385,55.915948
209.776523,55.836151
209.869039,55.785633
209.882382,55.780656
209.882387,55.780654
210.123804,55.690610
210.123808,55.690608
210.137154,55.685631
210.416772,55.624804
210.430987,55.623787
210.430996,55.623786
210.687980,55.605407
210.702200,55.604390
210.716420,55.605407
210.973405,55.623786
210.973416,55.623787
210.987628,55.624804
211.001557,55.627833
211.001557,55.627834
211.253322,55.682602
211.267246,55.685631
211.280589,55.690607
211.280597,55.690610
211.522014,55.780654
211.522024,55.780658
211.535361,55.785633
211.547862,55.792459
211.547864,55.792460
211.774016,55.915948
211.774027,55.915954
211.786515,55.922774
211.797907,55.931301
211.797918,55.931309
212.004192,56.085724
212.004200,56.085730
212.015595,56.094261
212.025659,56.104324
212.025666,56.104331
212.207869,56.286534
212.207876,56.286541
212.217939,56.296605
212.226470,56.308000
212.226476,56.308008
212.380891,56.514282
212.380899,56.514293
212.389426,56.525685
212.396246,56.538173
212.396252,56.538184
212.443167,56.624103
212.526567,56.776839
212.531541,56.790174
212.531548,56.790190
212.576357,56.910330
212.636565,57.017540
212.726558,57.101326
212.837789,57.153732
212.959695,57.169781
213.080700,57.147949
213.189312,57.090310
213.275216,57.002337
213.330254,56.892384
213.349200,56.770894
213.349200,55.177000
213.335604,55.073731
213.295744,54.977500
213.232336,54.894864
213.149700,54.831456
213.053469,54.791596
212.950200,54.778000
195.616885,54.778000
Z" /> 
</g>
</g>
</g>
<g style="fill:#FFFFFF; fill-opacity:1.000000; 
stroke:#FFFFFF; stroke-width:0.000000; stroke-opacity:1; 
stroke-linecap:round; stroke-linejoin:round;">
<circle cx="191.102200" cy="59.820000" r="0.175000" /> 
</g>
<g style="fill:#FFFFFF; fill-opacity:1.000000; 
stroke:#FFFFFF; stroke-width:0.021200; stroke-opacity:1; 
stroke-linecap:round; stroke-linejoin:round;">
</g>
<g style="fill:#FFFFFF; fill-opacity:1.000000; 
stroke:#FFFFFF; stroke-width:0.000000; stroke-opacity:1; 
stroke-linecap:round; stroke-linejoin:round;">
<circle cx="186.762200" cy="84.740000" r="0.175000" /> 
</g>
<g style="fill:#FFFFFF; fill-opacity:1.000000; 
stroke:#FFFFFF; stroke-width:0.021200; stroke-opacity:1; 
stroke-linecap:round; stroke-linejoin:round;">
</g>
<g style="fill:#FFFFFF; fill-opacity:1.000000; 
stroke:#FFFFFF; stroke-width:0.000000; stroke-opacity:1; 
stroke-linecap:round; stroke-linejoin:round;">
<circle cx="191.672200" cy="84.970000" r="0.175000" /> 
</g>
<g style="fill:#FFFFFF; fill-opacity:1.000000; 
stroke:#FFFFFF; stroke-width:0.021200; stroke-opacity:1; 
stroke-linecap:round; stroke-linejoin:round;">
</g>
<g style="fill:#FFFFFF; fill-opacity:1.000000; 
stroke:#FFFFFF; stroke-width:0.000000; stroke-opacity:1; 
stroke-linecap:round; stroke-linejoin:round;">
<circle cx="193.492200" cy="83.320000" r="0.175000" /> 
</g>
<g style="fill:#FFFFFF; fill-opacity:1.000000; 
stroke:#FFFFFF; stroke-width:0.021200; stroke-opacity:1; 
stroke-linecap:round; stroke-linejoin:round;">
</g>
<g style="fill:#FFFFFF; fill-opacity:1.000000; 
stroke:#FFFFFF; stroke-width:0.000000; stroke-opacity:1; 
stroke-linecap:round; stroke-linejoin:round;">
<circle cx="179.822200" cy="60.680000" r="0.175000" /> 
</g>
<g style="fill:#FFFFFF; fill-opacity:1.000000; 
stroke:#FFFFFF; stroke-width:0.021200; stroke-opacity:1; 
stroke-linecap:round; stroke-linejoin:round;">
</g>
<g style="fill:#FFFFFF; fill-opacity:1.000000; 
stroke:#FFFFFF; stroke-width:0.000000; stroke-opacity:1; 
stroke-linecap:round; stroke-linejoin:round;">
<circle cx="172.822200" cy="60.680000" r="0.175000" /> 
</g>
<g style="fill:#FFFFFF; fill-opacity:1.000000; 
stroke:#FFFFFF; stroke-width:0.021200; stroke-opacity:1; 
stroke-linecap:round; stroke-linejoin:round;">
</g>
<g style="fill:#FFFFFF; fill-opacity:1.000000; 
stroke:#FFFFFF; stroke-width:0.000000; stroke-opacity:1; 
stroke-linecap:round; stroke-linejoin:round;">
<circle cx="176.322200" cy="60.680000" r="0.175000" /> 
</g>
<g style="fill:#FFFFFF; fill-opacity:1.000000; 
stroke:#FFFFFF; stroke-width:0.021200; stroke-opacity:1; 
stroke-linecap:round; stroke-linejoin:round;">
</g>
<g style="fill:#FFFFFF; fill-opacity:1.000000; 
stroke:#FFFFFF; stroke-width:0.000000; stroke-opacity:1; 
stroke-linecap:round; stroke-linejoin:round;">
<circle cx="174.032200" cy="97.060000" r="0.175000" /> 
</g>
<g style="fill:#FFFFFF; fill-opacity:1.000000; 
stroke:#FFFFFF; stroke-width:0.021200; stroke-opacity:1; 
stroke-linecap:round; stroke-linejoin:round;">
</g>
<g style="fill:#FFFFFF; fill-opacity:1.000000; 
stroke:#FFFFFF; stroke-width:0.000000; stroke-opacity:1; 
stroke-linecap:round; stroke-linejoin:round;">
<circle cx="176.572200" cy="97.060000" r="0.175000" /> 
</g>
<g style="fill:#FFFFFF; fill-opacity:1.000000; 
stroke:#FFFFFF; stroke-width:0.021200; stroke-opacity:1; 
stroke-linecap:round; stroke-linejoin:round;">
</g>
<g style="fill:#FFFFFF; fill-opacity:1.000000; 
stroke:#FFFFFF; stroke-width:0.000000; stroke-opacity:1; 
stroke-linecap:round; stroke-linejoin:round;">
<circle cx="179.112200" cy="97.060000" r="0.175000" /> 
</g>
<g style="fill:#FFFFFF; fill-opacity:1.000000; 
stroke:#FFFFFF; stroke-width:0.021200; stroke-opacity:1; 
stroke-linecap:round; stroke-linejoin:round;">
</g>
<g style="fill:#FFFFFF; fill-opacity:1.000000; 
stroke:#FFFFFF; stroke-width:0.000000; stroke-opacity:1; 
stroke-linecap:round; stroke-linejoin:round;">
<circle cx="181.652200" cy="97.060000" r="0.175000" /> 
</g>
<g style="fill:#FFFFFF; fill-opacity:1.000000; 
stroke:#FFFFFF; stroke-width:0.021200; stroke-opacity:1; 
stroke-linecap:round; stroke-linejoin:round;">
</g>
<g style="fill:#FFFFFF; fill-opacity:1.000000; 
stroke:#FFFFFF; stroke-width:0.000000; stroke-opacity:1; 
stroke-linecap:round; stroke-linejoin:round;">
<circle cx="194.754700" cy="57.202500" r="0.175000" /> 
</g>
<g style="fill:#FFFFFF; fill-opacity:1.000000; 
stroke:#FFFFFF; stroke-width:0.021200; stroke-opacity:1; 
stroke-linecap:round; stroke-linejoin:round;">
</g>
<g style="fill:#FFFFFF; fill-opacity:1.000000; 
stroke:#FFFFFF; stroke-width:0.000000; stroke-opacity:1; 
stroke-linecap:round; stroke-linejoin:round;">
<circle cx="192.214700" cy="57.202500" r="0.175000" /> 
</g>
<g style="fill:#FFFFFF; fill-opacity:1.000000; 
stroke:#FFFFFF; stroke-width:0.021200; stroke-opacity:1; 
stroke-linecap:round; stroke-linejoin:round;">
</g>
<g style="fill:#FFFFFF; fill-opacity:1.000000; 
stroke:#FFFFFF; stroke-width:0.000000; stroke-opacity:1; 
stroke-linecap:round; stroke-linejoin:round;">
<circle cx="189.674700" cy="57.202500" r="0.175000" /> 
</g>
<g style="fill:#FFFFFF; fill-opacity:1.000000; 
stroke:#FFFFFF; stroke-width:0.021200; stroke-opacity:1; 
stroke-linecap:round; stroke-linejoin:round;">
</g>
<g style="fill:#FFFFFF; fill-opacity:1.000000; 
stroke:#FFFFFF; stroke-width:0.000000; stroke-opacity:1; 
stroke-linecap:round; stroke-linejoin:round;">
<circle cx="187.134700" cy="57.202500" r="0.175000" /> 
</g>
<g style="fill:#FFFFFF; fill-opacity:1.000000; 
stroke:#FFFFFF; stroke-width:0.021200; stroke-opacity:1; 
stroke-linecap:round; stroke-linejoin:round;">
</g>
<g style="fill:#FFFFFF; fill-opacity:1.000000; 
stroke:#FFFFFF; stroke-width:0.000000; stroke-opacity:1; 
stroke-linecap:round; stroke-linejoin:round;">
<circle cx="210.692200" cy="84.100000" r="0.175000" /> 
</g>
<g style="fill:#FFFFFF; fill-opacity:1.000000; 
stroke:#FFFFFF; stroke-width:0.021200; stroke-opacity:1; 
stroke-linecap:round; stroke-linejoin:round;">
</g>
<g style="fill:#FFFFFF; fill-opacity:1.000000; 
stroke:#FFFFFF; stroke-width:0.000000; stroke-opacity:1; 
stroke-linecap:round; stroke-linejoin:round;">
<circle cx="210.692200" cy="81.100000" r="0.175000" /> 
</g>
<g style="fill:#FFFFFF; fill-opacity:1.000000; 
stroke:#FFFFFF; stroke-width:0.021200; stroke-opacity:1; 
stroke-linecap:round; stroke-linejoin:round;">
</g>
<g style="fill:#FFFFFF; fill-opacity:1.000000; 
stroke:#FFFFFF; stroke-width:0.000000; stroke-opacity:1; 
stroke-linecap:round; stroke-linejoin:round;">
<circle cx="207.102200" cy="57.610000" r="0.175000" /> 
</g>
<g style="fill:#FFFFFF; fill-opacity:1.000000; 
stroke:#FFFFFF; stroke-width:0.021200; stroke-opacity:1; 
stroke-linecap:round; stroke-linejoin:round;">
</g>
<g style="fill:#FFFFFF; fill-opacity:1.000000; 
stroke:#FFFFFF; stroke-width:0.000000; stroke-opacity:1; 
stroke-linecap:round; stroke-linejoin:round;">
<circle cx="210.702200" cy="57.610000" r="0.175000" /> 
</g>
<g style="fill:#FFFFFF; fill-opacity:1.000000; 
stroke:#FFFFFF; stroke-width:0.021200; stroke-opacity:1; 
stroke-linecap:round; stroke-linejoin:round;">
</g>
<g style="fill:#FFFFFF; fill-opacity:1.000000; 
stroke:#FFFFFF; stroke-width:0.000000; stroke-opacity:1; 
stroke-linecap:round; stroke-linejoin:round;">
<circle cx="207.382200" cy="76.360000" r="0.175000" /> 
</g>
<g style="fill:#FFFFFF; fill-opacity:1.000000; 
stroke:#FFFFFF; stroke-width:0.021200; stroke-opacity:1; 
stroke-linecap:round; stroke-linejoin:round;">
</g>
<g style="fill:#FFFFFF; fill-opacity:1.000000; 
stroke:#FFFFFF; stroke-width:0.000000; stroke-opacity:1; 
stroke-linecap:round; stroke-linejoin:round;">
<circle cx="210.982200" cy="76.360000" r="0.175000" /> 
</g>
<g style="fill:#FFFFFF; fill-opacity:1.000000; 
stroke:#FFFFFF; stroke-width:0.021200; stroke-opacity:1; 
stroke-linecap:round; stroke-linejoin:round;">
</g>
<g style="fill:#000000; fill-opacity:1.000000; 
stroke:#000000; stroke-width:0.021200; stroke-opacity:1; 
stroke-linecap:round; stroke-linejoin:round;">
</g>
<g style="fill:#000000; fill-opacity:1.000000; 
stroke:#000000; stroke-width:0.100000; stroke-opacity:1; 
stroke-linecap:round; stroke-linejoin:round;">
</g>
<g style="fill:#000000; fill-opacity:0.0; 
stroke:#000000; stroke-width:0.100000; stroke-opacity:1; 
stroke-linecap:round; stroke-linejoin:round;">
<path d="M213.349700 54.777500
L168.349700 54.777500
" />
<path d="M168.349700 54.777500
L168.349700 99.777500
" />
<path d="M168.349700 99.777500
L213.349700 99.777500
" />
<path d="M213.349700 99.777500
L213.349700 54.777500
" />
<g >
</g>
<g >
</g>
<g >
</g>
<g >
</g>
<g >
</g>
<g >
</g>
<g >
</g>
<g >
</g>
<g >
</g>
<g >
</g>
<g >
</g>
<g >
</g>
<g >
</g>
<g >
</g>
<g >
</g>
<g >
</g>
<g >
</g>
<g >
</g>
<g >
</g>
<g >
</g>
<g >
</g>
<g >
</g>
</g> 
</svg>
